<svg width="105" height="90" viewBox="0 0 105 90" fill="none" xmlns="http://www.w3.org/2000/svg">
<g filter="url(#filter0_d_109_240)">
<path d="M28.5212 18.4608C32.9753 16.3769 37.7379 14.8623 42.717 14C43.3285 15.1055 44.0429 16.5925 44.5354 17.7754C49.8284 16.9794 55.0727 16.9794 60.2682 17.7754C60.7607 16.5925 61.4913 15.1055 62.1083 14C67.0928 14.8623 71.8608 16.3824 76.3149 18.4719C85.2989 32.0479 87.7343 45.2866 86.5166 58.3375C80.5579 62.7873 74.7833 65.4903 69.1061 67.2592C67.7044 65.33 66.4542 63.2792 65.3772 61.1179C67.4283 60.3385 69.3929 59.3767 71.2492 58.2601C70.7567 57.8953 70.2751 57.5139 69.8096 57.1214C58.4877 62.4169 46.1861 62.4169 34.9994 57.1214C34.5286 57.5139 34.0469 57.8953 33.5598 58.2601C35.4215 59.3822 37.3915 60.344 39.4427 61.1234C38.3657 63.2792 37.1209 65.3355 35.7138 67.2647C30.0312 65.4958 24.2511 62.7928 18.2924 58.3375C16.8637 43.2082 20.7333 30.0911 28.5212 18.4608ZM63.8347 50.3113C67.2335 50.3113 70.0207 47.1384 70.0207 43.2746C70.0207 39.4107 67.293 36.2323 63.8347 36.2323C60.3765 36.2323 57.5893 39.4052 57.6488 43.2746C57.6434 47.1384 60.3765 50.3113 63.8347 50.3113ZM40.9743 50.3113C44.3731 50.3113 47.1603 47.1384 47.1603 43.2746C47.1603 39.4107 44.4326 36.2323 40.9743 36.2323C37.516 36.2323 34.7288 39.4052 34.7883 43.2746C34.7883 47.1384 37.516 50.3113 40.9743 50.3113Z" fill="white" fill-opacity="0.7" shape-rendering="crispEdges"/>
<path d="M38.747 61.3895C36.8537 60.6371 35.0315 59.7309 33.3017 58.6883L32.6658 58.305L33.2601 57.8599C33.7399 57.5005 34.2148 57.1245 34.6793 56.7373L34.9246 56.5328L35.2133 56.6695C46.2638 61.9005 58.4092 61.9016 69.5978 56.6685L69.8875 56.533L70.132 56.7392C70.5895 57.125 71.063 57.4999 71.5469 57.8583L72.1475 58.3033L71.507 58.6886C69.7825 59.7259 67.9653 60.6316 66.0724 61.3841C67.024 63.2333 68.1048 64.999 69.3006 66.6737C74.7611 64.9368 80.3128 62.3148 86.0391 58.0696C87.1956 45.2329 84.7777 32.221 75.9754 18.8651C71.7023 16.8737 67.1395 15.4105 62.3739 14.5545C61.8052 15.6026 61.1696 16.9112 60.7298 17.9676L60.5794 18.3289L60.1925 18.2696C55.0476 17.4814 49.8539 17.4812 44.6098 18.2698L44.2238 18.3279L44.0738 17.9676C43.6332 16.9093 43.0111 15.6013 42.4498 14.5549C37.6896 15.4108 33.132 16.8688 28.8592 18.8549C21.2202 30.3111 17.4154 43.2067 18.7697 58.0696C24.4964 62.3203 30.0536 64.9425 35.5198 66.6795C36.7187 65.0054 37.7957 63.2361 38.747 61.3895ZM70.5207 43.2746C70.5207 47.352 67.5683 50.8113 63.8347 50.8113C60.0406 50.8113 57.1451 47.3515 57.1488 43.278C57.0879 39.187 60.046 35.7323 63.8347 35.7323C67.6312 35.7323 70.5207 39.201 70.5207 43.2746ZM47.6603 43.2746C47.6603 47.352 44.7079 50.8113 40.9743 50.8113C37.1794 50.8113 34.2901 47.3508 34.2883 43.2783C34.2273 39.1871 37.1855 35.7323 40.9743 35.7323C44.7708 35.7323 47.6603 39.201 47.6603 43.2746Z" stroke="white" stroke-opacity="0.5" shape-rendering="crispEdges"/>
</g>
<g filter="url(#filter1_d_109_240)">
<path d="M28.5212 18.4608C32.9753 16.3769 37.7379 14.8623 42.717 14C43.3285 15.1055 44.0429 16.5925 44.5354 17.7754C49.8284 16.9794 55.0727 16.9794 60.2682 17.7754C60.7607 16.5925 61.4913 15.1055 62.1083 14C67.0928 14.8623 71.8608 16.3824 76.3149 18.4719C85.2989 32.0479 87.7343 45.2866 86.5166 58.3375C80.5579 62.7873 74.7833 65.4903 69.1061 67.2592C67.7044 65.33 66.4542 63.2792 65.3772 61.1179C67.4283 60.3385 69.3929 59.3767 71.2492 58.2601C70.7567 57.8953 70.2751 57.5139 69.8096 57.1214C58.4877 62.4169 46.1861 62.4169 34.9994 57.1214C34.5286 57.5139 34.0469 57.8953 33.5598 58.2601C35.4215 59.3822 37.3915 60.344 39.4427 61.1234C38.3657 63.2792 37.1209 65.3355 35.7138 67.2647C30.0312 65.4958 24.2511 62.7928 18.2924 58.3375C16.8637 43.2082 20.7333 30.0911 28.5212 18.4608ZM63.8347 50.3113C67.2335 50.3113 70.0207 47.1384 70.0207 43.2746C70.0207 39.4107 67.293 36.2323 63.8347 36.2323C60.3765 36.2323 57.5893 39.4052 57.6488 43.2746C57.6434 47.1384 60.3765 50.3113 63.8347 50.3113ZM40.9743 50.3113C44.3731 50.3113 47.1603 47.1384 47.1603 43.2746C47.1603 39.4107 44.4326 36.2323 40.9743 36.2323C37.516 36.2323 34.7288 39.4052 34.7883 43.2746C34.7883 47.1384 37.516 50.3113 40.9743 50.3113Z" fill="white" fill-opacity="0.7" shape-rendering="crispEdges"/>
<path d="M38.747 61.3895C36.8537 60.6371 35.0315 59.7309 33.3017 58.6883L32.6658 58.305L33.2601 57.8599C33.7399 57.5005 34.2148 57.1245 34.6793 56.7373L34.9246 56.5328L35.2133 56.6695C46.2638 61.9005 58.4092 61.9016 69.5978 56.6685L69.8875 56.533L70.132 56.7392C70.5895 57.125 71.063 57.4999 71.5469 57.8583L72.1475 58.3033L71.507 58.6886C69.7825 59.7259 67.9653 60.6316 66.0724 61.3841C67.024 63.2333 68.1048 64.999 69.3006 66.6737C74.7611 64.9368 80.3128 62.3148 86.0391 58.0696C87.1956 45.2329 84.7777 32.221 75.9754 18.8651C71.7023 16.8737 67.1395 15.4105 62.3739 14.5545C61.8052 15.6026 61.1696 16.9112 60.7298 17.9676L60.5794 18.3289L60.1925 18.2696C55.0476 17.4814 49.8539 17.4812 44.6098 18.2698L44.2238 18.3279L44.0738 17.9676C43.6332 16.9093 43.0111 15.6013 42.4498 14.5549C37.6896 15.4108 33.132 16.8688 28.8592 18.8549C21.2202 30.3111 17.4154 43.2067 18.7697 58.0696C24.4964 62.3203 30.0536 64.9425 35.5198 66.6795C36.7187 65.0054 37.7957 63.2361 38.747 61.3895ZM70.5207 43.2746C70.5207 47.352 67.5683 50.8113 63.8347 50.8113C60.0406 50.8113 57.1451 47.3515 57.1488 43.278C57.0879 39.187 60.046 35.7323 63.8347 35.7323C67.6312 35.7323 70.5207 39.201 70.5207 43.2746ZM47.6603 43.2746C47.6603 47.352 44.7079 50.8113 40.9743 50.8113C37.1794 50.8113 34.2901 47.3508 34.2883 43.2783C34.2273 39.1871 37.1855 35.7323 40.9743 35.7323C44.7708 35.7323 47.6603 39.201 47.6603 43.2746Z" stroke="white" stroke-opacity="0.5" shape-rendering="crispEdges"/>
</g>
<g filter="url(#filter2_d_109_240)">
<path d="M28.5212 18.4608C32.9753 16.3769 37.7379 14.8623 42.717 14C43.3285 15.1055 44.0429 16.5925 44.5354 17.7754C49.8284 16.9794 55.0727 16.9794 60.2682 17.7754C60.7607 16.5925 61.4913 15.1055 62.1083 14C67.0928 14.8623 71.8608 16.3824 76.3149 18.4719C85.2989 32.0479 87.7343 45.2866 86.5166 58.3375C80.5579 62.7873 74.7833 65.4903 69.1061 67.2592C67.7044 65.33 66.4542 63.2792 65.3772 61.1179C67.4283 60.3385 69.3929 59.3767 71.2492 58.2601C70.7567 57.8953 70.2751 57.5139 69.8096 57.1214C58.4877 62.4169 46.1861 62.4169 34.9994 57.1214C34.5286 57.5139 34.0469 57.8953 33.5598 58.2601C35.4215 59.3822 37.3915 60.344 39.4427 61.1234C38.3657 63.2792 37.1209 65.3355 35.7138 67.2647C30.0312 65.4958 24.2511 62.7928 18.2924 58.3375C16.8637 43.2082 20.7333 30.0911 28.5212 18.4608ZM63.8347 50.3113C67.2335 50.3113 70.0207 47.1384 70.0207 43.2746C70.0207 39.4107 67.293 36.2323 63.8347 36.2323C60.3765 36.2323 57.5893 39.4052 57.6488 43.2746C57.6434 47.1384 60.3765 50.3113 63.8347 50.3113ZM40.9743 50.3113C44.3731 50.3113 47.1603 47.1384 47.1603 43.2746C47.1603 39.4107 44.4326 36.2323 40.9743 36.2323C37.516 36.2323 34.7288 39.4052 34.7883 43.2746C34.7883 47.1384 37.516 50.3113 40.9743 50.3113Z" fill="white" fill-opacity="0.5" shape-rendering="crispEdges"/>
<path d="M38.747 61.3895C36.8537 60.6371 35.0315 59.7309 33.3017 58.6883L32.6658 58.305L33.2601 57.8599C33.7399 57.5005 34.2148 57.1245 34.6793 56.7373L34.9246 56.5328L35.2133 56.6695C46.2638 61.9005 58.4092 61.9016 69.5978 56.6685L69.8875 56.533L70.132 56.7392C70.5895 57.125 71.063 57.4999 71.5469 57.8583L72.1475 58.3033L71.507 58.6886C69.7825 59.7259 67.9653 60.6316 66.0724 61.3841C67.024 63.2333 68.1048 64.999 69.3006 66.6737C74.7611 64.9368 80.3128 62.3148 86.0391 58.0696C87.1956 45.2329 84.7777 32.221 75.9754 18.8651C71.7023 16.8737 67.1395 15.4105 62.3739 14.5545C61.8052 15.6026 61.1696 16.9112 60.7298 17.9676L60.5794 18.3289L60.1925 18.2696C55.0476 17.4814 49.8539 17.4812 44.6098 18.2698L44.2238 18.3279L44.0738 17.9676C43.6332 16.9093 43.0111 15.6013 42.4498 14.5549C37.6896 15.4108 33.132 16.8688 28.8592 18.8549C21.2202 30.3111 17.4154 43.2067 18.7697 58.0696C24.4964 62.3203 30.0536 64.9425 35.5198 66.6795C36.7187 65.0054 37.7957 63.2361 38.747 61.3895ZM70.5207 43.2746C70.5207 47.352 67.5683 50.8113 63.8347 50.8113C60.0406 50.8113 57.1451 47.3515 57.1488 43.278C57.0879 39.187 60.046 35.7323 63.8347 35.7323C67.6312 35.7323 70.5207 39.201 70.5207 43.2746ZM47.6603 43.2746C47.6603 47.352 44.7079 50.8113 40.9743 50.8113C37.1794 50.8113 34.2901 47.3508 34.2883 43.2783C34.2273 39.1871 37.1855 35.7323 40.9743 35.7323C44.7708 35.7323 47.6603 39.201 47.6603 43.2746Z" stroke="white" stroke-opacity="0.5" shape-rendering="crispEdges"/>
</g>
<defs>
<filter id="filter0_d_109_240" x="3.8147e-06" y="0" width="104.809" height="89.2646" filterUnits="userSpaceOnUse" color-interpolation-filters="sRGB">
<feFlood flood-opacity="0" result="BackgroundImageFix"/>
<feColorMatrix in="SourceAlpha" type="matrix" values="0 0 0 0 0 0 0 0 0 0 0 0 0 0 0 0 0 0 127 0" result="hardAlpha"/>
<feOffset dy="4"/>
<feGaussianBlur stdDeviation="9"/>
<feComposite in2="hardAlpha" operator="out"/>
<feColorMatrix type="matrix" values="0 0 0 0 1 0 0 0 0 0.541176 0 0 0 0 0.929412 0 0 0 0.7 0"/>
<feBlend mode="normal" in2="BackgroundImageFix" result="effect1_dropShadow_109_240"/>
<feBlend mode="normal" in="SourceGraphic" in2="effect1_dropShadow_109_240" result="shape"/>
</filter>
<filter id="filter1_d_109_240" x="3.8147e-06" y="0" width="104.809" height="89.2646" filterUnits="userSpaceOnUse" color-interpolation-filters="sRGB">
<feFlood flood-opacity="0" result="BackgroundImageFix"/>
<feColorMatrix in="SourceAlpha" type="matrix" values="0 0 0 0 0 0 0 0 0 0 0 0 0 0 0 0 0 0 127 0" result="hardAlpha"/>
<feOffset dy="4"/>
<feGaussianBlur stdDeviation="9"/>
<feComposite in2="hardAlpha" operator="out"/>
<feColorMatrix type="matrix" values="0 0 0 0 1 0 0 0 0 0.541176 0 0 0 0 0.929412 0 0 0 0.7 0"/>
<feBlend mode="normal" in2="BackgroundImageFix" result="effect1_dropShadow_109_240"/>
<feBlend mode="normal" in="SourceGraphic" in2="effect1_dropShadow_109_240" result="shape"/>
</filter>
<filter id="filter2_d_109_240" x="3.8147e-06" y="0" width="104.809" height="89.2646" filterUnits="userSpaceOnUse" color-interpolation-filters="sRGB">
<feFlood flood-opacity="0" result="BackgroundImageFix"/>
<feColorMatrix in="SourceAlpha" type="matrix" values="0 0 0 0 0 0 0 0 0 0 0 0 0 0 0 0 0 0 127 0" result="hardAlpha"/>
<feOffset dy="4"/>
<feGaussianBlur stdDeviation="9"/>
<feComposite in2="hardAlpha" operator="out"/>
<feColorMatrix type="matrix" values="0 0 0 0 1 0 0 0 0 0.541176 0 0 0 0 0.929412 0 0 0 0.7 0"/>
<feBlend mode="normal" in2="BackgroundImageFix" result="effect1_dropShadow_109_240"/>
<feBlend mode="normal" in="SourceGraphic" in2="effect1_dropShadow_109_240" result="shape"/>
</filter>
</defs>
</svg>
