<svg width="275" height="373" viewBox="0 0 275 373" fill="none" xmlns="http://www.w3.org/2000/svg">
<g filter="url(#filter0_df_160_248)">
<path d="M11 35.5L36 10H133H144.5H190H227.5H238L264.5 36.2929V336.5L241.5 363H34.5L10 336L11 35.5L13.5 36.5V238.5L21 242.75V276.5L13.5 280.5V335.724L35.5 360.5H205.5H214.5H234.5H240L262 335.5V305.5L254.5 300.5V156L262 151.5V37.3393L237 12.5H227.5L224 21H195L191.5 12.5H37.5L13.5 36.5L11 35.5Z" fill="#E3A7FF"/>
</g>
<defs>
<filter id="filter0_df_160_248" x="0" y="0" width="274.5" height="373" filterUnits="userSpaceOnUse" color-interpolation-filters="sRGB">
<feFlood flood-opacity="0" result="BackgroundImageFix"/>
<feColorMatrix in="SourceAlpha" type="matrix" values="0 0 0 0 0 0 0 0 0 0 0 0 0 0 0 0 0 0 127 0" result="hardAlpha"/>
<feOffset/>
<feGaussianBlur stdDeviation="5"/>
<feComposite in2="hardAlpha" operator="out"/>
<feColorMatrix type="matrix" values="0 0 0 0 0.890196 0 0 0 0 0.654902 0 0 0 0 1 0 0 0 0.9 0"/>
<feBlend mode="normal" in2="BackgroundImageFix" result="effect1_dropShadow_160_248"/>
<feBlend mode="normal" in="SourceGraphic" in2="effect1_dropShadow_160_248" result="shape"/>
<feGaussianBlur stdDeviation="0.5" result="effect2_foregroundBlur_160_248"/>
</filter>
</defs>
</svg>
