<svg width="275" height="379" viewBox="0 0 275 379" fill="none" xmlns="http://www.w3.org/2000/svg">
<g filter="url(#filter0_df_160_250)">
<path d="M11 35.5L36 10H133H144.5H190H227.5H238L264.5 36.2929V336.5L241.5 363H216L213 368.5H184L181.5 363H34.5L10 336L11 35.5L13.5 36.5V72L21.5 77V109L13.5 113V238.5V250.5V271V280.5V335.724L35.5 360.5H125L130 352.5H167.5L172.5 360.5H240L262 335.5V305.5V282V173.5V151.5V37.3393L237 12.5H227.5H219.5H198.5H191.5H37.5L13.5 36.5L11 35.5Z" fill="#A0FFF4"/>
</g>
<defs>
<filter id="filter0_df_160_250" x="0" y="0" width="274.5" height="378.5" filterUnits="userSpaceOnUse" color-interpolation-filters="sRGB">
<feFlood flood-opacity="0" result="BackgroundImageFix"/>
<feColorMatrix in="SourceAlpha" type="matrix" values="0 0 0 0 0 0 0 0 0 0 0 0 0 0 0 0 0 0 127 0" result="hardAlpha"/>
<feOffset/>
<feGaussianBlur stdDeviation="5"/>
<feComposite in2="hardAlpha" operator="out"/>
<feColorMatrix type="matrix" values="0 0 0 0 0.627451 0 0 0 0 1 0 0 0 0 0.956863 0 0 0 0.9 0"/>
<feBlend mode="normal" in2="BackgroundImageFix" result="effect1_dropShadow_160_250"/>
<feBlend mode="normal" in="SourceGraphic" in2="effect1_dropShadow_160_250" result="shape"/>
<feGaussianBlur stdDeviation="0.5" result="effect2_foregroundBlur_160_250"/>
</filter>
</defs>
</svg>
