<svg width="286" height="396" viewBox="0 0 286 396" fill="none" xmlns="http://www.w3.org/2000/svg">
<g filter="url(#filter0_df_160_245)">
<g filter="url(#filter1_b_160_245)">
<path d="M10 384V351V350.201C10 348.37 12.2576 347.502 13.4848 348.862L43.9859 382.66C45.1468 383.947 44.234 386 42.5011 386H12C10.8954 386 10 385.105 10 384Z" fill="#83DAFF"/>
</g>
<path d="M22 45.5L47 20H144L149 10H189L195.5 20H249L275.5 46.2929V346.5L252.5 373H45.5L21 346L22 45.5L24.5 46.5V345.724L46.5 370.5H216.5L220 364H247L251 370.5L273 345.5V47.3393L248 22.5H137L133.5 31H85L81.5 22.5H48.5L24.5 46.5L22 45.5Z" fill="#7ED8FF"/>
</g>
<defs>
<filter id="filter0_df_160_245" x="0" y="0" width="285.5" height="396" filterUnits="userSpaceOnUse" color-interpolation-filters="sRGB">
<feFlood flood-opacity="0" result="BackgroundImageFix"/>
<feColorMatrix in="SourceAlpha" type="matrix" values="0 0 0 0 0 0 0 0 0 0 0 0 0 0 0 0 0 0 127 0" result="hardAlpha"/>
<feOffset/>
<feGaussianBlur stdDeviation="5"/>
<feComposite in2="hardAlpha" operator="out"/>
<feColorMatrix type="matrix" values="0 0 0 0 0.283333 0 0 0 0 0.783333 0 0 0 0 1 0 0 0 0.9 0"/>
<feBlend mode="normal" in2="BackgroundImageFix" result="effect1_dropShadow_160_245"/>
<feBlend mode="normal" in="SourceGraphic" in2="effect1_dropShadow_160_245" result="shape"/>
<feGaussianBlur stdDeviation="0.5" result="effect2_foregroundBlur_160_245"/>
</filter>
<filter id="filter1_b_160_245" x="-317" y="21.1973" width="688.505" height="691.803" filterUnits="userSpaceOnUse" color-interpolation-filters="sRGB">
<feFlood flood-opacity="0" result="BackgroundImageFix"/>
<feGaussianBlur in="BackgroundImage" stdDeviation="163.5"/>
<feComposite in2="SourceAlpha" operator="in" result="effect1_backgroundBlur_160_245"/>
<feBlend mode="normal" in="SourceGraphic" in2="effect1_backgroundBlur_160_245" result="shape"/>
</filter>
</defs>
</svg>
