<svg width="286" height="383" viewBox="0 0 286 383" fill="none" xmlns="http://www.w3.org/2000/svg">
<g filter="url(#filter0_df_160_252)">
<g filter="url(#filter1_b_160_252)">
<path d="M276 12V45V45.7986C276 47.6302 273.742 48.4983 272.515 47.1385L242.014 13.3399C240.853 12.0535 241.766 10 243.499 10L274 10C275.105 10 276 10.8954 276 12Z" fill="#FFB5F3"/>
</g>
</g>
<g filter="url(#filter2_df_160_252)">
<path d="M11 45.4912L36 19.9912H133H144.5H190H227.5H240.77L264.5 46.2841V346.491L241.5 372.991H216H207H187.5H181.5H34.5L10 345.991L11 45.4912L13.5 46.4912V133.991L20 135.991V195.991L13.5 197.991V248.491V260.491V280.991V290.491V345.715L35.5 370.491H62.5L67 362.491H94L99 370.491H240L262 345.491V315.491V291.991V183.491V161.491V47.3305L240 22.4912H227.5H219.5H198.5H191.5H37.5L13.5 46.4912L11 45.4912Z" fill="#FFB5F3"/>
</g>
<defs>
<filter id="filter0_df_160_252" x="231.495" y="0" width="54.505" height="57.8027" filterUnits="userSpaceOnUse" color-interpolation-filters="sRGB">
<feFlood flood-opacity="0" result="BackgroundImageFix"/>
<feColorMatrix in="SourceAlpha" type="matrix" values="0 0 0 0 0 0 0 0 0 0 0 0 0 0 0 0 0 0 127 0" result="hardAlpha"/>
<feOffset/>
<feGaussianBlur stdDeviation="5"/>
<feComposite in2="hardAlpha" operator="out"/>
<feColorMatrix type="matrix" values="0 0 0 0 1 0 0 0 0 0.709804 0 0 0 0 0.952941 0 0 0 0.9 0"/>
<feBlend mode="normal" in2="BackgroundImageFix" result="effect1_dropShadow_160_252"/>
<feBlend mode="normal" in="SourceGraphic" in2="effect1_dropShadow_160_252" result="shape"/>
<feGaussianBlur stdDeviation="0.5" result="effect2_foregroundBlur_160_252"/>
</filter>
<filter id="filter1_b_160_252" x="-85.505" y="-317" width="688.505" height="691.803" filterUnits="userSpaceOnUse" color-interpolation-filters="sRGB">
<feFlood flood-opacity="0" result="BackgroundImageFix"/>
<feGaussianBlur in="BackgroundImage" stdDeviation="163.5"/>
<feComposite in2="SourceAlpha" operator="in" result="effect1_backgroundBlur_160_252"/>
<feBlend mode="normal" in="SourceGraphic" in2="effect1_backgroundBlur_160_252" result="shape"/>
</filter>
<filter id="filter2_df_160_252" x="0" y="9.99121" width="274.5" height="373" filterUnits="userSpaceOnUse" color-interpolation-filters="sRGB">
<feFlood flood-opacity="0" result="BackgroundImageFix"/>
<feColorMatrix in="SourceAlpha" type="matrix" values="0 0 0 0 0 0 0 0 0 0 0 0 0 0 0 0 0 0 127 0" result="hardAlpha"/>
<feOffset/>
<feGaussianBlur stdDeviation="5"/>
<feComposite in2="hardAlpha" operator="out"/>
<feColorMatrix type="matrix" values="0 0 0 0 1 0 0 0 0 0.709804 0 0 0 0 0.952941 0 0 0 0.9 0"/>
<feBlend mode="normal" in2="BackgroundImageFix" result="effect1_dropShadow_160_252"/>
<feBlend mode="normal" in="SourceGraphic" in2="effect1_dropShadow_160_252" result="shape"/>
<feGaussianBlur stdDeviation="0.5" result="effect2_foregroundBlur_160_252"/>
</filter>
</defs>
</svg>
