<svg width="646" height="739" viewBox="0 0 646 739" fill="none" xmlns="http://www.w3.org/2000/svg">
<path d="M322.5 -2.18557e-08L322.5 1289L323.5 1289L323.5 2.18557e-08L322.5 -2.18557e-08ZM309 -6.11959e-07L309 1289L310 1289L310 -5.68248e-07L309 -6.11959e-07ZM295.5 -1.20206e-06L295.5 1289L296.5 1289L296.5 -1.15835e-06L295.5 -1.20206e-06ZM282 -1.79217e-06L282 1289L283 1289L283 -1.74846e-06L282 -1.79217e-06ZM268.5 -2.38227e-06L268.5 1289L269.5 1289L269.5 -2.33856e-06L268.5 -2.38227e-06ZM255 -2.97237e-06L255 1289L256 1289L256 -2.92866e-06L255 -2.97237e-06ZM241.5 -3.56248e-06L241.5 1289L242.5 1289L242.5 -3.51877e-06L241.5 -3.56248e-06ZM228 -4.15258e-06L228 1289L229 1289L229 -4.10887e-06L228 -4.15258e-06ZM214.5 -4.74268e-06L214.5 1289L215.5 1289L215.5 -4.69897e-06L214.5 -4.74268e-06Z" fill="url(#paint0_linear_102_238)" fill-opacity="0.6"/>
<path d="M214.5 -2.17422e-08L214.5 1289L215.5 1289L215.5 2.17422e-08L214.5 -2.17422e-08ZM201.125 -6.03346e-07L201.125 1289L202.125 1289L202.125 -5.59862e-07L201.125 -6.03346e-07ZM187.75 -1.18495e-06L187.75 1289L188.75 1289L188.75 -1.14147e-06L187.75 -1.18495e-06ZM174.375 -1.76655e-06L174.375 1289L175.375 1289L175.375 -1.72307e-06L174.375 -1.76655e-06ZM161 -2.34816e-06L161 1289L162 1289L162 -2.30467e-06L161 -2.34816e-06ZM147.625 -2.92976e-06L147.625 1289L148.625 1289L148.625 -2.88628e-06L147.625 -2.92976e-06ZM134.25 -3.51136e-06L134.25 1289L135.25 1289L135.25 -3.46788e-06L134.25 -3.51136e-06ZM120.875 -4.09297e-06L120.875 1289L121.875 1289L121.875 -4.04948e-06L120.875 -4.09297e-06ZM107.5 -4.67457e-06L107.5 1289L108.5 1289L108.5 -4.63109e-06L107.5 -4.67457e-06Z" fill="url(#paint1_linear_102_238)" fill-opacity="0.6"/>
<path d="M108.5 -2.17422e-08L108.5 1289L109.5 1289L109.5 2.17422e-08L108.5 -2.17422e-08ZM95 -6.08781e-07L94.9999 1289L95.9999 1289L96 -5.65297e-07L95 -6.08781e-07ZM81.5 -1.19582e-06L81.5 1289L82.5 1289L82.5 -1.15234e-06L81.5 -1.19582e-06ZM68 -1.78286e-06L68 1289L69 1289L69 -1.73938e-06L68 -1.78286e-06ZM54.5 -2.3699e-06L54.5 1289L55.5 1289L55.5 -2.32641e-06L54.5 -2.3699e-06ZM41 -2.95694e-06L41 1289L42 1289L42 -2.91345e-06L41 -2.95694e-06ZM27.5 -3.54398e-06L27.5 1289L28.5 1289L28.5 -3.50049e-06L27.5 -3.54398e-06ZM14 -4.13102e-06L14 1289L15 1289L15 -4.08753e-06L14 -4.13102e-06ZM0.500027 -4.71806e-06L0.49997 1289L1.49997 1289L1.50003 -4.67457e-06L0.500027 -4.71806e-06Z" fill="url(#paint2_linear_102_238)" fill-opacity="0.6"/>
<path d="M644.5 -2.18557e-08L644.5 1289L645.5 1289L645.5 2.18557e-08L644.5 -2.18557e-08ZM631 -6.11959e-07L631 1289L632 1289L632 -5.68248e-07L631 -6.11959e-07ZM617.5 -1.20206e-06L617.5 1289L618.5 1289L618.5 -1.15835e-06L617.5 -1.20206e-06ZM604 -1.79217e-06L604 1289L605 1289L605 -1.74846e-06L604 -1.79217e-06ZM590.5 -2.38227e-06L590.5 1289L591.5 1289L591.5 -2.33856e-06L590.5 -2.38227e-06ZM577 -2.97237e-06L577 1289L578 1289L578 -2.92866e-06L577 -2.97237e-06ZM563.5 -3.56248e-06L563.5 1289L564.5 1289L564.5 -3.51877e-06L563.5 -3.56248e-06ZM550 -4.15258e-06L550 1289L551 1289L551 -4.10887e-06L550 -4.15258e-06ZM536.5 -4.74268e-06L536.5 1289L537.5 1289L537.5 -4.69897e-06L536.5 -4.74268e-06Z" fill="url(#paint3_linear_102_238)" fill-opacity="0.6"/>
<path d="M536.5 -2.17422e-08L536.5 1289L537.5 1289L537.5 2.17422e-08L536.5 -2.17422e-08ZM523.125 -6.03346e-07L523.125 1289L524.125 1289L524.125 -5.59862e-07L523.125 -6.03346e-07ZM509.75 -1.18495e-06L509.75 1289L510.75 1289L510.75 -1.14147e-06L509.75 -1.18495e-06ZM496.375 -1.76655e-06L496.375 1289L497.375 1289L497.375 -1.72307e-06L496.375 -1.76655e-06ZM483 -2.34816e-06L483 1289L484 1289L484 -2.30467e-06L483 -2.34816e-06ZM469.625 -2.92976e-06L469.625 1289L470.625 1289L470.625 -2.88628e-06L469.625 -2.92976e-06ZM456.25 -3.51136e-06L456.25 1289L457.25 1289L457.25 -3.46788e-06L456.25 -3.51136e-06ZM442.875 -4.09297e-06L442.875 1289L443.875 1289L443.875 -4.04948e-06L442.875 -4.09297e-06ZM429.5 -4.67457e-06L429.5 1289L430.5 1289L430.5 -4.63109e-06L429.5 -4.67457e-06Z" fill="url(#paint4_linear_102_238)" fill-opacity="0.6"/>
<path d="M430.5 -2.17422e-08L430.5 1289L431.5 1289L431.5 2.17422e-08L430.5 -2.17422e-08ZM417 -6.08781e-07L417 1289L418 1289L418 -5.65297e-07L417 -6.08781e-07ZM403.5 -1.19582e-06L403.5 1289L404.5 1289L404.5 -1.15234e-06L403.5 -1.19582e-06ZM390 -1.78286e-06L390 1289L391 1289L391 -1.73938e-06L390 -1.78286e-06ZM376.5 -2.3699e-06L376.5 1289L377.5 1289L377.5 -2.32641e-06L376.5 -2.3699e-06ZM363 -2.95694e-06L363 1289L364 1289L364 -2.91345e-06L363 -2.95694e-06ZM349.5 -3.54398e-06L349.5 1289L350.5 1289L350.5 -3.50049e-06L349.5 -3.54398e-06ZM336 -4.13102e-06L336 1289L337 1289L337 -4.08753e-06L336 -4.13102e-06ZM322.5 -4.71806e-06L322.5 1289L323.5 1289L323.5 -4.67457e-06L322.5 -4.71806e-06Z" fill="url(#paint5_linear_102_238)" fill-opacity="0.6"/>
<defs>
<linearGradient id="paint0_linear_102_238" x1="269.001" y1="9.81011e-05" x2="171.328" y2="1281.85" gradientUnits="userSpaceOnUse">
<stop stop-color="#A034D9" stop-opacity="0.34"/>
<stop offset="0.514801" stop-color="white" stop-opacity="0"/>
<stop offset="1" stop-color="white" stop-opacity="0"/>
</linearGradient>
<linearGradient id="paint1_linear_102_238" x1="161.501" y1="9.81351e-05" x2="62.9262" y2="1281.71" gradientUnits="userSpaceOnUse">
<stop stop-color="#A034D9" stop-opacity="0.34"/>
<stop offset="0.514801" stop-color="white" stop-opacity="0"/>
<stop offset="1" stop-color="white" stop-opacity="0"/>
</linearGradient>
<linearGradient id="paint2_linear_102_238" x1="55.0013" y1="9.81133e-05" x2="-42.6717" y2="1281.85" gradientUnits="userSpaceOnUse">
<stop stop-color="#A034D9" stop-opacity="0.34"/>
<stop offset="0.514801" stop-color="white" stop-opacity="0"/>
<stop offset="1" stop-color="white" stop-opacity="0"/>
</linearGradient>
<linearGradient id="paint3_linear_102_238" x1="591.001" y1="9.81011e-05" x2="493.328" y2="1281.85" gradientUnits="userSpaceOnUse">
<stop stop-color="#A034D9" stop-opacity="0.34"/>
<stop offset="0.514801" stop-color="white" stop-opacity="0"/>
<stop offset="1" stop-color="white" stop-opacity="0"/>
</linearGradient>
<linearGradient id="paint4_linear_102_238" x1="483.501" y1="9.81351e-05" x2="384.926" y2="1281.71" gradientUnits="userSpaceOnUse">
<stop stop-color="#A034D9" stop-opacity="0.34"/>
<stop offset="0.514801" stop-color="white" stop-opacity="0"/>
<stop offset="1" stop-color="white" stop-opacity="0"/>
</linearGradient>
<linearGradient id="paint5_linear_102_238" x1="377.001" y1="9.81133e-05" x2="279.328" y2="1281.85" gradientUnits="userSpaceOnUse">
<stop stop-color="#A034D9" stop-opacity="0.34"/>
<stop offset="0.514801" stop-color="white" stop-opacity="0"/>
<stop offset="1" stop-color="white" stop-opacity="0"/>
</linearGradient>
</defs>
</svg>
