<svg width="1349" height="383" viewBox="0 0 1349 383" fill="none" xmlns="http://www.w3.org/2000/svg">
<path d="M0.907227 1.94342L1348.91 1.94341L1348.91 0.943407L0.907227 0.94342L0.907227 1.94342ZM0.907226 11.4694L1348.91 11.4693L1348.91 10.4693L0.907226 10.4694L0.907226 11.4694ZM0.907226 20.9953L1348.91 20.9953L1348.91 19.9953L0.907226 19.9953L0.907226 20.9953ZM0.907226 30.5212L1348.91 30.5212L1348.91 29.5212L0.907226 29.5212L0.907226 30.5212ZM0.907226 40.0471L1348.91 40.0471L1348.91 39.0471L0.907226 39.0471L0.907226 40.0471ZM0.907226 49.5731L1348.91 49.5731L1348.91 48.5731L0.907226 48.5731L0.907226 49.5731ZM0.907226 59.099L1348.91 59.099L1348.91 58.099L0.907226 58.099L0.907226 59.099ZM0.907226 68.6249L1348.91 68.6249L1348.91 67.6249L0.907226 67.6249L0.907226 68.6249ZM0.907226 78.1509L1348.91 78.1508L1348.91 77.1508L0.907226 77.1509L0.907226 78.1509Z" fill="url(#paint0_linear_1_415)" fill-opacity="0.6"/>
<path d="M0.907227 78.151L1348.91 78.151L1348.91 77.151L0.907227 77.151L0.907227 78.151ZM0.907226 87.6769L1348.91 87.6769L1348.91 86.6769L0.907226 86.6769L0.907226 87.6769ZM0.907226 97.2029L1348.91 97.2028L1348.91 96.2028L0.907226 96.2029L0.907226 97.2029ZM0.907226 106.729L1348.91 106.729L1348.91 105.729L0.907226 105.729L0.907226 106.729ZM0.907226 116.255L1348.91 116.255L1348.91 115.255L0.907226 115.255L0.907226 116.255ZM0.907226 125.781L1348.91 125.781L1348.91 124.781L0.907226 124.781L0.907226 125.781ZM0.907226 135.307L1348.91 135.307L1348.91 134.307L0.907226 134.307L0.907226 135.307ZM0.907226 144.833L1348.91 144.832L1348.91 143.832L0.907226 143.833L0.907226 144.833ZM0.907226 154.358L1348.91 154.358L1348.91 153.358L0.907226 153.358L0.907226 154.358Z" fill="url(#paint1_linear_1_415)" fill-opacity="0.6"/>
<path d="M0.907227 153.644L1348.91 153.644L1348.91 152.644L0.907227 152.644L0.907227 153.644ZM0.907226 163.17L1348.91 163.17L1348.91 162.17L0.907226 162.17L0.907226 163.17ZM0.907226 172.696L1348.91 172.696L1348.91 171.696L0.907226 171.696L0.907226 172.696ZM0.907226 182.222L1348.91 182.222L1348.91 181.222L0.907226 181.222L0.907226 182.222ZM0.907226 191.748L1348.91 191.748L1348.91 190.748L0.907226 190.748L0.907226 191.748ZM0.907226 201.273L1348.91 201.273L1348.91 200.273L0.907226 200.273L0.907226 201.273ZM0.907226 210.799L1348.91 210.799L1348.91 209.799L0.907226 209.799L0.907226 210.799ZM0.907226 220.325L1348.91 220.325L1348.91 219.325L0.907226 219.325L0.907226 220.325ZM0.907226 229.851L1348.91 229.851L1348.91 228.851L0.907226 228.851L0.907226 229.851Z" fill="url(#paint2_linear_1_415)" fill-opacity="0.6"/>
<path d="M0.907227 229.851L1348.91 229.851L1348.91 228.851L0.907227 228.851L0.907227 229.851ZM0.907226 239.377L1348.91 239.377L1348.91 238.377L0.907226 238.377L0.907226 239.377ZM0.907226 248.903L1348.91 248.903L1348.91 247.903L0.907226 247.903L0.907226 248.903ZM0.907226 258.429L1348.91 258.429L1348.91 257.429L0.907226 257.429L0.907226 258.429ZM0.907226 267.955L1348.91 267.955L1348.91 266.955L0.907226 266.955L0.907226 267.955ZM0.907226 277.481L1348.91 277.481L1348.91 276.481L0.907226 276.481L0.907226 277.481ZM0.907226 287.007L1348.91 287.007L1348.91 286.007L0.907226 286.007L0.907226 287.007ZM0.907226 296.533L1348.91 296.533L1348.91 295.533L0.907226 295.533L0.907226 296.533ZM0.907226 306.059L1348.91 306.059L1348.91 305.059L0.907226 305.059L0.907226 306.059Z" fill="url(#paint3_linear_1_415)" fill-opacity="0.6"/>
<path d="M0.907227 306.293L1348.91 306.293L1348.91 305.293L0.907227 305.293L0.907227 306.293ZM0.907226 315.819L1348.91 315.819L1348.91 314.819L0.907226 314.819L0.907226 315.819ZM0.907226 325.344L1348.91 325.344L1348.91 324.344L0.907226 324.344L0.907226 325.344ZM0.907226 334.87L1348.91 334.87L1348.91 333.87L0.907226 333.87L0.907226 334.87ZM0.907226 344.396L1348.91 344.396L1348.91 343.396L0.907226 343.396L0.907226 344.396ZM0.907226 353.922L1348.91 353.922L1348.91 352.922L0.907226 352.922L0.907226 353.922ZM0.907226 363.448L1348.91 363.448L1348.91 362.448L0.907226 362.448L0.907226 363.448ZM0.907226 372.974L1348.91 372.974L1348.91 371.974L0.907226 371.974L0.907226 372.974ZM0.907226 382.5L1348.91 382.5L1348.91 381.5L0.907226 381.5L0.907226 382.5Z" fill="url(#paint4_linear_1_415)" fill-opacity="0.6"/>
<defs>
<linearGradient id="paint0_linear_1_415" x1="0.907331" y1="39.5462" x2="1332.24" y2="189.89" gradientUnits="userSpaceOnUse">
<stop stop-color="#A034D9" stop-opacity="0.34"/>
<stop offset="0.514801" stop-color="white" stop-opacity="0"/>
<stop offset="1" stop-color="white" stop-opacity="0"/>
</linearGradient>
<linearGradient id="paint1_linear_1_415" x1="0.907331" y1="115.754" x2="1332.24" y2="266.098" gradientUnits="userSpaceOnUse">
<stop stop-color="#A034D9" stop-opacity="0.34"/>
<stop offset="0.514801" stop-color="white" stop-opacity="0"/>
<stop offset="1" stop-color="white" stop-opacity="0"/>
</linearGradient>
<linearGradient id="paint2_linear_1_415" x1="0.907331" y1="191.247" x2="1332.24" y2="341.59" gradientUnits="userSpaceOnUse">
<stop stop-color="#A034D9" stop-opacity="0.34"/>
<stop offset="0.514801" stop-color="white" stop-opacity="0"/>
<stop offset="1" stop-color="white" stop-opacity="0"/>
</linearGradient>
<linearGradient id="paint3_linear_1_415" x1="0.907331" y1="267.454" x2="1332.24" y2="417.798" gradientUnits="userSpaceOnUse">
<stop stop-color="#A034D9" stop-opacity="0.34"/>
<stop offset="0.514801" stop-color="white" stop-opacity="0"/>
<stop offset="1" stop-color="white" stop-opacity="0"/>
</linearGradient>
<linearGradient id="paint4_linear_1_415" x1="0.907331" y1="343.895" x2="1332.24" y2="494.239" gradientUnits="userSpaceOnUse">
<stop stop-color="#A034D9" stop-opacity="0.34"/>
<stop offset="0.514801" stop-color="white" stop-opacity="0"/>
<stop offset="1" stop-color="white" stop-opacity="0"/>
</linearGradient>
</defs>
</svg>
