<svg width="58" height="59" viewBox="0 0 58 59" fill="none" xmlns="http://www.w3.org/2000/svg">
<path d="M29.0002 53.8734C42.347 53.8734 53.1668 43.0536 53.1668 29.7067C53.1668 16.3598 42.347 5.54004 29.0002 5.54004C15.6533 5.54004 4.8335 16.3598 4.8335 29.7067C4.8335 43.0536 15.6533 53.8734 29.0002 53.8734Z" stroke="white" stroke-width="2.6875" stroke-linecap="round" stroke-linejoin="round"/>
<path d="M19.3333 7.95703H21.75C17.0375 22.0704 17.0375 37.3437 21.75 51.457H19.3333" stroke="white" stroke-width="2.6875" stroke-linecap="round" stroke-linejoin="round"/>
<path d="M36.25 7.95703C40.9625 22.0704 40.9625 37.3437 36.25 51.457" stroke="white" stroke-width="2.6875" stroke-linecap="round" stroke-linejoin="round"/>
<path d="M7.25 39.3737V36.957C21.3633 41.6695 36.6367 41.6695 50.75 36.957V39.3737" stroke="white" stroke-width="2.6875" stroke-linecap="round" stroke-linejoin="round"/>
<path d="M7.25 22.4572C21.3633 17.7447 36.6367 17.7447 50.75 22.4572" stroke="white" stroke-width="2.6875" stroke-linecap="round" stroke-linejoin="round"/>
</svg>
