<svg width="255" height="354" viewBox="0 0 255 354" fill="none" xmlns="http://www.w3.org/2000/svg">
<g opacity="0.3">
<path d="M0 25.6459L22.7394 3.79023C24.6021 1.99992 27.0854 1 29.669 1H121.308H137.088H157.306H172.1H220.746C223.384 1 225.915 2.04226 227.788 3.89977L248.042 23.9866C249.935 25.8643 251 28.4203 251 31.0868V319.14C251 321.549 250.13 323.877 248.551 325.696L231.306 345.556C229.407 347.744 226.653 349 223.756 349H28.591C25.7711 349 23.0822 347.809 21.1868 345.721L2.59579 325.242C0.925387 323.402 0 321.006 0 318.52V25.6459V25.6459C1.18503 26.2382 2.61368 26.0285 3.57858 25.1207L27.1218 2.97167H114.405H140.54H173.58H184.921H195.277H209.084H224.371H114.405H98.6248H69.5304H60.1611H43.3949H27.1218L3.57858 25.1207C2.61368 26.0285 1.18503 26.2382 0 25.6459V25.6459Z" fill="url(#paint0_linear_109_244)"/>
<path d="M2 27.6459L24.7394 5.79023C26.6021 3.99992 29.0854 3 31.669 3H123.308H139.088H159.306H174.1H222.746C225.384 3 227.915 4.04226 229.788 5.89977L250.042 25.9866C251.935 27.8643 253 30.4203 253 33.0868V321.14C253 323.549 252.13 325.877 250.551 327.696L233.306 347.556C231.407 349.744 228.653 351 225.756 351H30.591C27.7711 351 25.0822 349.809 23.1868 347.721L4.59579 327.242C2.92539 325.402 2 323.006 2 320.52V27.6459V27.6459C3.18503 28.2382 4.61368 28.0285 5.57858 27.1207L29.1218 4.97167H116.405H142.54H175.58H186.921H197.277H211.084H226.371H116.405H100.625H71.5304H62.1611H45.3949H29.1218L5.57858 27.1207C4.61368 28.0285 3.18503 28.2382 2 27.6459V27.6459Z" fill="url(#paint1_linear_109_244)"/>
</g>
<path d="M0 25.5957L23.0967 3.38738C24.9595 1.59618 27.4435 0.595703 30.0278 0.595703H123H139H159.5H174.5H223.881C226.519 0.595703 229.051 1.63853 230.924 3.49695L251.543 23.9549C253.436 25.8325 254.5 28.3879 254.5 31.0537V323.361C254.5 325.77 253.631 328.097 252.052 329.916L234.49 350.15C232.591 352.339 229.836 353.596 226.938 353.596H28.9292C26.1086 353.596 23.4191 352.404 21.5236 350.316L2.5944 329.455C0.924853 327.615 0 325.219 0 322.735V25.5957L2 26.5957V322.695C2 325.204 2.94253 327.62 4.64069 329.466L22.0289 348.366C23.9225 350.424 26.5915 351.596 29.3882 351.596H195.5H202.5H221H226.106C228.906 351.596 231.578 350.422 233.472 348.36L250.359 329.972C252.057 328.122 252.998 325.702 252.993 323.191L252.507 31.7281C252.502 29.0817 251.449 26.545 249.578 24.6737L230.429 5.52464C228.554 3.64927 226.01 2.5957 223.358 2.5957H116H100H70.5H61H44H31.4658C28.9184 2.5957 26.4671 3.56784 24.6121 5.3137L2 26.5957L0 25.5957Z" fill="#AAA8B7"/>
<path d="M3.01495 30.4095L250.585 28.1711L250.575 27.1712L3.0059 29.4095L3.01495 30.4095ZM3.01577 32.5495L252.203 30.3105L252.194 29.3105L3.00678 31.5495L3.01577 32.5495ZM3.01661 34.6895L252.744 32.4502L252.735 31.4502L3.00764 33.6895L3.01661 34.6895ZM3.01746 36.8294L252.745 34.5901L252.736 33.5902L3.00849 35.8295L3.01746 36.8294ZM3.01831 38.9694L252.745 36.7301L252.736 35.7302L3.00935 37.9695L3.01831 38.9694ZM3.01916 41.1094L252.746 38.8701L252.737 37.8702L3.0102 40.1095L3.01916 41.1094ZM3.02001 43.2494L252.747 41.0101L252.738 40.0101L3.01105 42.2495L3.02001 43.2494ZM3.02087 45.3894L252.748 43.1501L252.739 42.1501L3.0119 44.3894L3.02087 45.3894ZM3.02172 47.5294L252.749 45.2901L252.74 44.2901L3.01275 46.5294L3.02172 47.5294ZM3.02257 49.6693L252.75 47.43L252.741 46.4301L3.0136 48.6694L3.02257 49.6693ZM3.02342 51.8093L252.75 49.57L252.742 48.5701L3.01445 50.8094L3.02342 51.8093ZM3.02427 53.9493L252.751 51.71L252.742 50.71L3.0153 52.9493L3.02427 53.9493ZM3.02512 56.0893L252.752 53.85L252.743 52.85L3.01615 55.0893L3.02512 56.0893ZM3.02597 58.2293L252.753 55.99L252.744 54.99L3.01701 57.2293L3.02597 58.2293ZM3.02682 60.3692L252.754 58.13L252.745 57.13L3.01786 59.3693L3.02682 60.3692ZM3.02767 62.5092L252.755 60.2699L252.746 59.27L3.01871 61.5093L3.02767 62.5092ZM3.02853 64.6492L252.756 62.4099L252.747 61.41L3.01956 63.6492L3.02853 64.6492ZM3.02938 66.7892L252.756 64.5499L252.747 63.5499L3.02041 65.7892L3.02938 66.7892ZM3.03023 68.9292L252.757 66.6899L252.748 65.6899L3.02126 67.9292L3.03023 68.9292ZM3.03108 71.0691L252.758 68.8298L252.749 67.8299L3.02211 70.0692L3.03108 71.0691ZM3.03193 73.2091L252.759 70.9698L252.75 69.9699L3.02296 72.2092L3.03193 73.2091ZM3.03278 75.3491L252.76 73.1098L252.751 72.1098L3.02381 74.3492L3.03278 75.3491ZM3.03363 77.4891L252.761 75.2498L252.752 74.2498L3.02466 76.4891L3.03363 77.4891ZM3.03448 79.6291L252.762 77.3898L252.753 76.3898L3.02552 78.6291L3.03448 79.6291ZM3.03533 81.7691L252.762 79.5298L252.753 78.5298L3.02637 80.7691L3.03533 81.7691ZM3.03618 83.9091L252.763 81.6698L252.754 80.6698L3.02722 82.9091L3.03618 83.9091ZM3.03704 86.049L252.764 83.8098L252.755 82.8098L3.02807 85.0491L3.03704 86.049ZM3.03789 88.189L252.765 85.9497L252.756 84.9498L3.02892 87.1891L3.03789 88.189ZM3.03874 90.329L252.766 88.0897L252.757 87.0898L3.02977 89.329L3.03874 90.329ZM3.03959 92.469L252.767 90.2297L252.758 89.2297L3.03062 91.469L3.03959 92.469ZM3.04044 94.609L252.767 92.3697L252.759 91.3697L3.03147 93.609L3.04044 94.609ZM3.04129 96.749L252.768 94.5097L252.759 93.5097L3.03232 95.749L3.04129 96.749ZM3.04214 98.8889L252.769 96.6496L252.76 95.6497L3.03318 97.889L3.04214 98.8889ZM3.04299 101.029L252.77 98.7896L252.761 97.7897L3.03403 100.029L3.04299 101.029ZM3.04384 103.169L252.771 100.93L252.762 99.9296L3.03488 102.169L3.04384 103.169ZM3.04469 105.309L252.772 103.07L252.763 102.07L3.03573 104.309L3.04469 105.309ZM3.04555 107.449L252.773 105.21L252.764 104.21L3.03658 106.449L3.04555 107.449ZM3.0464 109.589L252.773 107.35L252.764 106.35L3.03743 108.589L3.0464 109.589ZM3.04725 111.729L252.774 109.49L252.765 108.49L3.03828 110.729L3.04725 111.729ZM3.0481 113.869L252.775 111.63L252.766 110.63L3.03913 112.869L3.0481 113.869ZM3.04895 116.009L252.776 113.769L252.767 112.77L3.03998 115.009L3.04895 116.009ZM3.0498 118.149L252.777 115.909L252.768 114.91L3.04083 117.149L3.0498 118.149ZM3.05065 120.289L252.778 118.049L252.769 117.049L3.04169 119.289L3.05065 120.289ZM3.0515 122.429L252.779 120.189L252.77 119.189L3.04254 121.429L3.0515 122.429ZM3.05235 124.569L252.779 122.329L252.77 121.329L3.04339 123.569L3.05235 124.569ZM3.05321 126.709L252.78 124.469L252.771 123.469L3.04424 125.709L3.05321 126.709ZM3.05406 128.849L252.781 126.609L252.772 125.609L3.04509 127.849L3.05406 128.849ZM3.05491 130.989L252.782 128.749L252.773 127.749L3.04594 129.989L3.05491 130.989ZM3.05576 133.129L252.783 130.889L252.774 129.889L3.04679 132.129L3.05576 133.129ZM3.05661 135.269L252.784 133.029L252.775 132.029L3.04764 134.269L3.05661 135.269ZM3.05746 137.409L252.785 135.169L252.776 134.169L3.04849 136.409L3.05746 137.409ZM3.05831 139.549L252.785 137.309L252.776 136.309L3.04934 138.549L3.05831 139.549ZM3.05916 141.689L252.786 139.449L252.777 138.449L3.0502 140.689L3.05916 141.689ZM3.06001 143.829L252.787 141.589L252.778 140.589L3.05105 142.829L3.06001 143.829ZM3.06086 145.969L252.788 143.729L252.779 142.729L3.0519 144.969L3.06086 145.969ZM3.06172 148.109L252.789 145.869L252.78 144.869L3.05275 147.109L3.06172 148.109ZM3.06257 150.249L252.79 148.009L252.781 147.009L3.0536 149.249L3.06257 150.249ZM3.06342 152.388L252.79 150.149L252.782 149.149L3.05445 151.389L3.06342 152.388ZM3.06427 154.528L252.791 152.289L252.782 151.289L3.0553 153.529L3.06427 154.528ZM3.06512 156.668L252.792 154.429L252.783 153.429L3.05615 155.668L3.06512 156.668ZM3.06597 158.808L252.793 156.569L252.784 155.569L3.057 157.808L3.06597 158.808ZM3.06682 160.948L252.794 158.709L252.785 157.709L3.05786 159.948L3.06682 160.948ZM3.06767 163.088L252.795 160.849L252.786 159.849L3.05871 162.088L3.06767 163.088ZM3.06852 165.228L252.796 162.989L252.787 161.989L3.05956 164.228L3.06852 165.228ZM3.06937 167.368L252.796 165.129L252.787 164.129L3.06041 166.368L3.06937 167.368ZM3.07023 169.508L252.797 167.269L252.788 166.269L3.06126 168.508L3.07023 169.508ZM3.07108 171.648L252.798 169.409L252.789 168.409L3.06211 170.648L3.07108 171.648ZM3.07193 173.788L252.799 171.549L252.79 170.549L3.06296 172.788L3.07193 173.788ZM3.07278 175.928L252.8 173.689L252.791 172.689L3.06381 174.928L3.07278 175.928ZM3.07363 178.068L252.801 175.829L252.792 174.829L3.06466 177.068L3.07363 178.068ZM3.07448 180.208L252.802 177.969L252.793 176.969L3.06551 179.208L3.07448 180.208ZM3.07533 182.348L252.802 180.109L252.793 179.109L3.06637 181.348L3.07533 182.348ZM3.07618 184.488L252.803 182.249L252.794 181.249L3.06722 183.488L3.07618 184.488ZM3.07703 186.628L252.804 184.389L252.795 183.389L3.06807 185.628L3.07703 186.628ZM3.07789 188.768L252.805 186.529L252.796 185.529L3.06892 187.768L3.07789 188.768ZM3.07874 190.908L252.806 188.669L252.797 187.669L3.06977 189.908L3.07874 190.908ZM3.07959 193.048L252.807 190.809L252.798 189.809L3.07062 192.048L3.07959 193.048ZM3.08044 195.188L252.807 192.949L252.799 191.949L3.07147 194.188L3.08044 195.188ZM3.08129 197.328L252.808 195.089L252.799 194.089L3.07232 196.328L3.08129 197.328ZM3.08214 199.468L252.809 197.229L252.8 196.229L3.07317 198.468L3.08214 199.468ZM3.08299 201.608L252.81 199.369L252.801 198.369L3.07402 200.608L3.08299 201.608ZM3.08384 203.748L252.811 201.509L252.802 200.509L3.07488 202.748L3.08384 203.748ZM3.08469 205.888L252.812 203.649L252.803 202.649L3.07573 204.888L3.08469 205.888ZM3.08554 208.028L252.813 205.789L252.804 204.789L3.07658 207.028L3.08554 208.028ZM3.0864 210.168L252.813 207.929L252.804 206.929L3.07743 209.168L3.0864 210.168ZM3.08725 212.308L252.814 210.069L252.805 209.069L3.07828 211.308L3.08725 212.308ZM3.0881 214.448L252.815 212.209L252.806 211.209L3.07913 213.448L3.0881 214.448ZM3.08895 216.588L252.816 214.349L252.807 213.349L3.07998 215.588L3.08895 216.588ZM3.0898 218.728L252.817 216.489L252.808 215.489L3.08083 217.728L3.0898 218.728ZM3.09065 220.868L252.818 218.629L252.809 217.629L3.08168 219.868L3.09065 220.868ZM3.0915 223.008L252.819 220.769L252.81 219.769L3.08254 222.008L3.0915 223.008ZM3.09235 225.148L252.819 222.909L252.81 221.909L3.08339 224.148L3.09235 225.148ZM3.0932 227.288L252.82 225.049L252.811 224.049L3.08424 226.288L3.0932 227.288ZM3.09405 229.428L252.821 227.188L252.812 226.189L3.08509 228.428L3.09405 229.428ZM3.09491 231.568L252.822 229.328L252.813 228.329L3.08594 230.568L3.09491 231.568ZM3.09576 233.708L252.823 231.468L252.814 230.468L3.08679 232.708L3.09576 233.708ZM3.09661 235.848L252.824 233.608L252.815 232.608L3.08764 234.848L3.09661 235.848ZM3.09746 237.988L252.825 235.748L252.816 234.748L3.08849 236.988L3.09746 237.988ZM3.09831 240.128L252.825 237.888L252.816 236.888L3.08934 239.128L3.09831 240.128ZM3.09916 242.268L252.826 240.028L252.817 239.028L3.09019 241.268L3.09916 242.268ZM3.10001 244.408L252.827 242.168L252.818 241.168L3.09105 243.408L3.10001 244.408ZM3.10086 246.548L252.828 244.308L252.819 243.308L3.0919 245.548L3.10086 246.548ZM3.10171 248.687L252.829 246.448L252.82 245.448L3.09275 247.688L3.10171 248.687ZM3.10257 250.827L252.83 248.588L252.821 247.588L3.0936 249.827L3.10257 250.827ZM3.10342 252.967L252.83 250.728L252.822 249.728L3.09445 251.967L3.10342 252.967ZM3.10427 255.107L252.831 252.868L252.822 251.868L3.0953 254.107L3.10427 255.107ZM3.10512 257.247L252.832 255.008L252.823 254.008L3.09615 256.247L3.10512 257.247ZM3.10597 259.387L252.833 257.148L252.824 256.148L3.097 258.387L3.10597 259.387ZM3.10682 261.527L252.834 259.288L252.825 258.288L3.09785 260.527L3.10682 261.527ZM3.10767 263.667L252.835 261.428L252.826 260.428L3.0987 262.667L3.10767 263.667ZM3.10852 265.807L252.836 263.568L252.827 262.568L3.09956 264.807L3.10852 265.807ZM3.10937 267.947L252.836 265.708L252.827 264.708L3.10041 266.947L3.10937 267.947ZM3.11022 270.087L252.837 267.848L252.828 266.848L3.10126 269.087L3.11022 270.087ZM3.11108 272.227L252.838 269.988L252.829 268.988L3.10211 271.227L3.11108 272.227ZM3.11193 274.367L252.839 272.128L252.83 271.128L3.10296 273.367L3.11193 274.367ZM3.11278 276.507L252.84 274.268L252.831 273.268L3.10381 275.507L3.11278 276.507ZM3.11363 278.647L252.841 276.408L252.832 275.408L3.10466 277.647L3.11363 278.647ZM3.11448 280.787L252.842 278.548L252.833 277.548L3.10551 279.787L3.11448 280.787ZM3.11533 282.927L252.842 280.688L252.833 279.688L3.10636 281.927L3.11533 282.927ZM3.11618 285.067L252.843 282.828L252.834 281.828L3.10722 284.067L3.11618 285.067ZM3.11703 287.207L252.844 284.968L252.835 283.968L3.10807 286.207L3.11703 287.207ZM3.11788 289.347L252.845 287.108L252.836 286.108L3.10892 288.347L3.11788 289.347ZM3.11873 291.487L252.846 289.247L252.837 288.248L3.10977 290.487L3.11873 291.487ZM3.11959 293.627L252.847 291.387L252.838 290.388L3.11062 292.627L3.11959 293.627ZM3.12044 295.767L252.847 293.527L252.839 292.527L3.11147 294.767L3.12044 295.767ZM3.12129 297.907L252.848 295.667L252.839 294.667L3.11232 296.907L3.12129 297.907ZM3.12214 300.047L252.849 297.807L252.84 296.807L3.11317 299.047L3.12214 300.047ZM3.12299 302.187L252.85 299.947L252.841 298.947L3.11402 301.187L3.12299 302.187ZM3.12384 304.327L252.851 302.087L252.842 301.087L3.11487 303.327L3.12384 304.327ZM3.12469 306.467L252.852 304.227L252.843 303.227L3.11573 305.467L3.12469 306.467ZM3.12554 308.607L252.853 306.367L252.844 305.367L3.11658 307.607L3.12554 308.607ZM3.12639 310.747L252.853 308.507L252.844 307.507L3.11743 309.747L3.12639 310.747ZM3.12725 312.887L252.854 310.647L252.845 309.647L3.11828 311.887L3.12725 312.887ZM3.1281 315.027L252.855 312.787L252.846 311.787L3.11913 314.027L3.1281 315.027ZM3.12895 317.167L252.856 314.927L252.847 313.927L3.11998 316.167L3.12895 317.167ZM3.1298 319.307L252.857 317.067L252.848 316.067L3.12083 318.307L3.1298 319.307ZM3.13065 321.447L252.858 319.207L252.849 318.207L3.12168 320.447L3.13065 321.447ZM3.1315 323.586L252.859 321.347L252.85 320.347L3.12253 322.587L3.1315 323.586ZM3.13235 325.726L252.859 323.487L252.85 322.487L3.12338 324.727L3.13235 325.726ZM3.1332 327.866L252.86 325.627L252.851 324.627L3.12424 326.866L3.1332 327.866ZM4.21281 330.006L252.861 327.767L252.852 326.767L4.20381 329.006L4.21281 330.006ZM25.1159 4.72102L223.064 4.10731L223.061 3.10731L25.1128 3.72103L25.1159 4.72102ZM21.3424 6.8625L226.302 5.711L226.297 4.71102L21.3368 5.86251L21.3424 6.8625ZM19.187 9.00333L228.462 7.31512L228.454 6.31515L19.179 8.00336L19.187 9.00333ZM17.0316 11.1442L230.082 8.91945L230.071 7.9195L17.0211 10.1442L17.0316 11.1442ZM14.8749 13.285L232.24 11.0586L232.23 10.0586L14.8646 12.285L14.8749 13.285ZM12.7181 15.4258L234.398 13.1977L234.388 12.1977L12.7081 14.4259L12.7181 15.4258ZM10.5614 17.5667L237.096 15.3366L237.086 14.3367L10.5516 16.5667L10.5614 17.5667ZM7.86532 19.7077L239.254 17.4757L239.244 16.4758L7.85567 18.7078L7.86532 19.7077ZM6.24797 21.8484L241.951 19.6146L241.942 18.6147L6.2385 20.8484L6.24797 21.8484ZM4.63063 23.989L245.188 21.7533L245.179 20.7534L4.62133 22.989L4.63063 23.989ZM3.01331 26.1296L246.807 23.8927L246.798 22.8927L3.00414 25.1296L3.01331 26.1296ZM3.01412 28.2695L248.966 26.0318L248.956 25.0318L3.00503 27.2696L3.01412 28.2695ZM4.75304 332.146L252.862 329.907L252.853 328.907L4.74402 331.146L4.75304 332.146ZM6.37207 334.286L250.166 332.049L250.157 331.049L6.3629 333.286L6.37207 334.286ZM8.53048 336.425L248.01 334.189L248 333.189L8.52115 335.425L8.53048 336.425ZM10.1495 338.564L246.392 336.33L246.383 335.33L10.14 337.564L10.1495 338.564ZM11.7685 340.703L243.696 338.471L243.687 337.471L11.7589 339.703L11.7685 340.703ZM12.8482 342.843L242.079 340.612L242.069 339.612L12.8385 341.843L12.8482 342.843ZM15.546 344.982L240.462 342.752L240.452 341.752L15.5361 343.982L15.546 344.982ZM16.6256 347.121L237.766 344.893L237.756 343.893L16.6156 346.121L16.6256 347.121ZM18.2447 349.261L235.61 347.034L235.599 346.034L18.2344 348.261L18.2447 349.261ZM20.4031 351.4L232.914 349.175L232.903 348.175L20.3927 350.4L20.4031 351.4Z" fill="white" fill-opacity="0.1"/>
<path d="M252.912 30.642L2.27487 29.2836L2.28029 28.2836L252.917 29.642L252.912 30.642ZM252.918 32.7768L0.643405 31.4235L0.64877 30.4235L252.924 31.7768L252.918 32.7768ZM252.925 34.9116L0.103987 33.5599L0.109333 32.5599L252.93 33.9116L252.925 34.9116ZM252.932 37.0464L0.110599 35.6947L0.115946 34.6948L252.937 36.0464L252.932 37.0464ZM252.938 39.1812L0.117212 37.8295L0.122559 36.8296L252.944 38.1812L252.938 39.1812ZM252.945 41.3161L0.123825 39.9643L0.129171 38.9644L252.95 40.3161L252.945 41.3161ZM252.951 43.4509L0.130438 42.0992L0.135784 41.0992L252.957 42.4509L252.951 43.4509ZM252.958 45.5857L0.137051 44.234L0.142397 43.234L252.963 44.5857L252.958 45.5857ZM252.965 47.7205L0.143664 46.3688L0.14901 45.3688L252.97 46.7205L252.965 47.7205ZM252.971 49.8553L0.150276 48.5036L0.155623 47.5036L252.977 48.8553L252.971 49.8553ZM252.978 51.9901L0.156889 50.6384L0.162236 49.6384L252.983 50.9901L252.978 51.9901ZM252.984 54.1249L0.163502 52.7732L0.168848 51.7732L252.99 53.1249L252.984 54.1249ZM252.991 56.2597L0.170115 54.908L0.175461 53.908L252.996 55.2597L252.991 56.2597ZM252.998 58.3945L0.176728 57.0428L0.182074 56.0428L253.003 57.3945L252.998 58.3945ZM253.004 60.5293L0.183341 59.1776L0.188687 58.1776L253.01 59.5293L253.004 60.5293ZM253.011 62.6641L0.189954 61.3124L0.1953 60.3124L253.016 61.6641L253.011 62.6641ZM253.018 64.7989L0.196566 63.4472L0.201913 62.4473L253.023 63.799L253.018 64.7989ZM253.024 66.9337L0.203179 65.582L0.208526 64.5821L253.03 65.9337L253.024 66.9337ZM253.031 69.0685L0.209792 67.7168L0.215138 66.7169L253.036 68.0686L253.031 69.0685ZM253.037 71.2034L0.216405 69.8517L0.221751 68.8517L253.043 70.2034L253.037 71.2034ZM253.044 73.3382L0.223018 71.9865L0.228364 70.9865L253.049 72.3382L253.044 73.3382ZM253.051 75.473L0.229631 74.1213L0.234977 73.1213L253.056 74.473L253.051 75.473ZM253.057 77.6078L0.236244 76.2561L0.24159 75.2561L253.063 76.6078L253.057 77.6078ZM253.064 79.7426L0.242856 78.3909L0.248203 77.3909L253.069 78.7426L253.064 79.7426ZM253.07 81.8774L0.249469 80.5257L0.254816 79.5257L253.076 80.8775L253.07 81.8774ZM253.077 84.0123L0.256082 82.6606L0.261429 81.6606L253.082 83.0123L253.077 84.0123ZM253.084 86.1471L0.262695 84.7954L0.268041 83.7954L253.089 85.1471L253.084 86.1471ZM253.09 88.2819L0.269308 86.9302L0.274654 85.9302L253.096 87.2819L253.09 88.2819ZM253.097 90.4167L0.275921 89.065L0.281267 88.065L253.102 89.4167L253.097 90.4167ZM253.104 92.5515L0.282534 91.1998L0.28788 90.1998L253.109 91.5515L253.104 92.5515ZM253.11 94.6863L0.289146 93.3346L0.294493 92.3346L253.115 93.6863L253.11 94.6863ZM253.117 96.8211L0.295759 95.4694L0.301106 94.4694L253.122 95.8211L253.117 96.8211ZM253.123 98.9559L0.302372 97.6042L0.307718 96.6042L253.129 97.9559L253.123 98.9559ZM253.13 101.091L0.308985 99.739L0.314331 98.739L253.135 100.091L253.13 101.091ZM253.137 103.226L0.315598 101.874L0.320944 100.874L253.142 102.226L253.137 103.226ZM253.143 105.36L0.322211 104.009L0.327557 103.009L253.149 104.36L253.143 105.36ZM253.15 107.495L0.328824 106.143L0.33417 105.143L253.155 106.495L253.15 107.495ZM253.156 109.63L0.335436 108.278L0.340783 107.278L253.162 108.63L253.156 109.63ZM253.163 111.765L0.342049 110.413L0.347396 109.413L253.168 110.765L253.163 111.765ZM253.17 113.9L0.348662 112.548L0.354008 111.548L253.175 112.9L253.17 113.9ZM253.176 116.034L0.355275 114.683L0.360621 113.683L253.182 115.034L253.176 116.034ZM253.183 118.169L0.361888 116.817L0.367234 115.817L253.188 117.169L253.183 118.169ZM253.189 120.304L0.368501 118.952L0.373847 117.952L253.195 119.304L253.189 120.304ZM253.196 122.439L0.375113 121.087L0.38046 120.087L253.201 121.439L253.196 122.439ZM253.203 124.574L0.381726 123.222L0.387073 122.222L253.208 123.574L253.203 124.574ZM253.209 126.708L0.388339 125.357L0.393685 124.357L253.215 125.708L253.209 126.708ZM253.216 128.843L0.394952 127.492L0.400298 126.492L253.221 127.843L253.216 128.843ZM253.223 130.978L0.401565 129.626L0.406911 128.626L253.228 129.978L253.223 130.978ZM253.229 133.113L0.408178 131.761L0.413524 130.761L253.235 132.113L253.229 133.113ZM253.236 135.248L0.414791 133.896L0.420137 132.896L253.241 134.248L253.236 135.248ZM253.242 137.382L0.421403 136.031L0.42675 135.031L253.248 136.382L253.242 137.382ZM253.249 139.517L0.428016 138.166L0.433363 137.166L253.254 138.517L253.249 139.517ZM253.256 141.652L0.434629 140.3L0.439975 139.3L253.261 140.652L253.256 141.652ZM253.262 143.787L0.441242 142.435L0.446588 141.435L253.268 142.787L253.262 143.787ZM253.269 145.922L0.447855 144.57L0.453201 143.57L253.274 144.922L253.269 145.922ZM253.275 148.057L0.454468 146.705L0.459814 145.705L253.281 147.057L253.275 148.057ZM253.282 150.191L0.461081 148.84L0.466427 147.84L253.287 149.191L253.282 150.191ZM253.289 152.326L0.467693 150.974L0.47304 149.974L253.294 151.326L253.289 152.326ZM253.295 154.461L0.474306 153.109L0.479653 152.109L253.301 153.461L253.295 154.461ZM253.302 156.596L0.480919 155.244L0.486265 154.244L253.307 155.596L253.302 156.596ZM253.309 158.731L0.487532 157.379L0.492878 156.379L253.314 157.731L253.309 158.731ZM253.315 160.865L0.494145 159.514L0.499491 158.514L253.32 159.865L253.315 160.865ZM253.322 163L0.500758 161.648L0.506104 160.649L253.327 162L253.322 163ZM253.328 165.135L0.50737 163.783L0.512717 162.783L253.334 164.135L253.328 165.135ZM253.335 167.27L0.513983 165.918L0.51933 164.918L253.34 166.27L253.335 167.27ZM253.342 169.405L0.520596 168.053L0.525942 167.053L253.347 168.405L253.342 169.405ZM253.348 171.539L0.527209 170.188L0.532555 169.188L253.354 170.539L253.348 171.539ZM253.355 173.674L0.533822 172.323L0.539168 171.323L253.36 172.674L253.355 173.674ZM253.361 175.809L0.540435 174.457L0.545781 173.457L253.367 174.809L253.361 175.809ZM253.368 177.944L0.547047 176.592L0.552394 175.592L253.373 176.944L253.368 177.944ZM253.375 180.079L0.55366 178.727L0.559007 177.727L253.38 179.079L253.375 180.079ZM253.381 182.213L0.560273 180.862L0.56562 179.862L253.387 181.213L253.381 182.213ZM253.388 184.348L0.566886 182.997L0.572232 181.997L253.393 183.348L253.388 184.348ZM253.394 186.483L0.573499 185.131L0.578845 184.131L253.4 185.483L253.394 186.483ZM253.401 188.618L0.580112 187.266L0.585458 186.266L253.406 187.618L253.401 188.618ZM253.408 190.753L0.586725 189.401L0.592071 188.401L253.413 189.753L253.408 190.753ZM253.414 192.887L0.593337 191.536L0.598684 190.536L253.42 191.887L253.414 192.887ZM253.421 195.022L0.59995 193.671L0.605297 192.671L253.426 194.022L253.421 195.022ZM253.428 197.157L0.606563 195.805L0.611909 194.805L253.433 196.157L253.428 197.157ZM253.434 199.292L0.613176 197.94L0.618522 196.94L253.44 198.292L253.434 199.292ZM253.441 201.427L0.619789 200.075L0.625135 199.075L253.446 200.427L253.441 201.427ZM253.447 203.562L0.626402 202.21L0.631748 201.21L253.453 202.562L253.447 203.562ZM253.454 205.696L0.633015 204.345L0.638361 203.345L253.459 204.696L253.454 205.696ZM253.461 207.831L0.639627 206.479L0.644974 205.479L253.466 206.831L253.461 207.831ZM253.467 209.966L0.64624 208.614L0.651587 207.614L253.473 208.966L253.467 209.966ZM253.474 212.101L0.652853 210.749L0.658199 209.749L253.479 211.101L253.474 212.101ZM253.48 214.236L0.659466 212.884L0.664812 211.884L253.486 213.236L253.48 214.236ZM253.487 216.37L0.666079 215.019L0.671425 214.019L253.492 215.37L253.487 216.37ZM253.494 218.505L0.672692 217.153L0.678038 216.153L253.499 217.505L253.494 218.505ZM253.5 220.64L0.679304 219.288L0.684651 218.288L253.506 219.64L253.5 220.64ZM253.507 222.775L0.685917 221.423L0.691264 220.423L253.512 221.775L253.507 222.775ZM253.514 224.91L0.69253 223.558L0.697876 222.558L253.519 223.91L253.514 224.91ZM253.52 227.044L0.699143 225.693L0.704489 224.693L253.525 226.044L253.52 227.044ZM253.527 229.179L0.705756 227.827L0.711102 226.828L253.532 228.179L253.527 229.179ZM253.533 231.314L0.712369 229.962L0.717715 228.962L253.539 230.314L253.533 231.314ZM253.54 233.449L0.718981 232.097L0.724328 231.097L253.545 232.449L253.54 233.449ZM253.547 235.584L0.725594 234.232L0.730941 233.232L253.552 234.584L253.547 235.584ZM253.553 237.718L0.732207 236.367L0.737554 235.367L253.559 236.718L253.553 237.718ZM253.56 239.853L0.73882 238.502L0.744166 237.502L253.565 238.853L253.56 239.853ZM253.566 241.988L0.745433 240.636L0.750779 239.636L253.572 240.988L253.566 241.988ZM253.573 244.123L0.752046 242.771L0.757392 241.771L253.578 243.123L253.573 244.123ZM253.58 246.258L0.758659 244.906L0.764005 243.906L253.585 245.258L253.58 246.258ZM253.586 248.392L0.765271 247.041L0.770617 246.041L253.592 247.392L253.586 248.392ZM253.593 250.527L0.771884 249.175L0.77723 248.175L253.598 249.527L253.593 250.527ZM253.599 252.662L0.778497 251.31L0.783843 250.31L253.605 251.662L253.599 252.662ZM253.606 254.797L0.785109 253.445L0.790456 252.445L253.611 253.797L253.606 254.797ZM253.613 256.932L0.791722 255.58L0.797069 254.58L253.618 255.932L253.613 256.932ZM253.619 259.066L0.798335 257.715L0.803681 256.715L253.625 258.066L253.619 259.066ZM253.626 261.201L0.804948 259.849L0.810294 258.849L253.631 260.201L253.626 261.201ZM253.633 263.336L0.811561 261.984L0.816907 260.984L253.638 262.336L253.633 263.336ZM253.639 265.471L0.818174 264.119L0.82352 263.119L253.644 264.471L253.639 265.471ZM253.646 267.606L0.824786 266.254L0.830133 265.254L253.651 266.606L253.646 267.606ZM253.652 269.74L0.831399 268.389L0.836746 267.389L253.658 268.74L253.652 269.74ZM253.659 271.875L0.838012 270.523L0.843358 269.523L253.664 270.875L253.659 271.875ZM253.666 274.01L0.844625 272.658L0.849971 271.658L253.671 273.01L253.666 274.01ZM253.672 276.145L0.851238 274.793L0.856584 273.793L253.678 275.145L253.672 276.145ZM253.679 278.28L0.857851 276.928L0.863197 275.928L253.684 277.28L253.679 278.28ZM253.685 280.414L0.864464 279.063L0.86981 278.063L253.691 279.414L253.685 280.414ZM253.692 282.549L0.871076 281.197L0.876423 280.197L253.697 281.549L253.692 282.549ZM253.699 284.684L0.877689 283.332L0.883035 282.332L253.704 283.684L253.699 284.684ZM253.705 286.819L0.884302 285.467L0.889648 284.467L253.711 285.819L253.705 286.819ZM253.712 288.953L0.890914 287.602L0.896261 286.602L253.717 287.953L253.712 288.953ZM253.719 291.088L0.897527 289.737L0.902873 288.737L253.724 290.088L253.719 291.088ZM253.725 293.223L0.90414 291.871L0.909486 290.871L253.73 292.223L253.725 293.223ZM253.732 295.358L0.910753 294.006L0.916099 293.006L253.737 294.358L253.732 295.358ZM253.738 297.493L0.917366 296.141L0.922712 295.141L253.744 296.493L253.738 297.493ZM253.745 299.627L0.923979 298.276L0.929325 297.276L253.75 298.627L253.745 299.627ZM253.752 301.762L0.930591 300.411L0.935938 299.411L253.757 300.762L253.752 301.762ZM253.758 303.897L0.937204 302.545L0.942551 301.545L253.764 302.897L253.758 303.897ZM253.765 306.032L0.943817 304.68L0.949163 303.68L253.77 305.032L253.765 306.032ZM253.771 308.167L0.95043 306.815L0.955776 305.815L253.777 307.167L253.771 308.167ZM253.778 310.302L0.957043 308.95L0.962389 307.95L253.783 309.302L253.778 310.302ZM253.785 312.436L0.963656 311.085L0.969002 310.085L253.79 311.436L253.785 312.436ZM253.791 314.571L0.970269 313.219L0.975615 312.219L253.797 313.571L253.791 314.571ZM253.798 316.706L0.976881 315.354L0.982228 314.354L253.803 315.706L253.798 316.706ZM253.804 318.841L0.983494 317.489L0.98884 316.489L253.81 317.841L253.804 318.841ZM253.811 320.976L0.990107 319.624L0.995453 318.624L253.816 319.976L253.811 320.976ZM253.818 323.11L0.99672 321.759L1.00207 320.759L253.823 322.11L253.818 323.11ZM253.824 325.245L1.00333 323.893L1.00868 322.893L253.83 324.245L253.824 325.245ZM252.741 327.128L1.01044 326.028L1.0148 325.028L252.745 326.128L252.741 327.128ZM250.561 329.293L1.01697 328.163L1.02149 327.163L250.566 328.293L250.561 329.293ZM231.25 6.65106L24.5001 6.05753L24.5029 5.05754L231.253 5.65106L231.25 6.65106ZM232.685 8.86931L22.412 8.21413L22.4152 7.21414L232.689 7.86931L232.685 8.86931ZM234.87 11.0206L20.8449 9.83157L20.8504 8.83158L234.876 10.0207L234.87 11.0206ZM236.478 13.1738L19.8261 12.5033L19.8292 11.5033L236.481 12.1738L236.478 13.1738ZM238.668 15.3251L18.61 14.2892L18.6147 13.2892L238.672 14.3251L238.668 15.3251ZM240.858 17.4764L15.8865 16.4325L15.8911 15.4325L240.863 16.4764L240.858 17.4764ZM243.049 19.6277L13.709 18.5741L13.7136 17.5741L243.054 18.6277L243.049 19.6277ZM245.24 21.779L10.9854 20.7173L10.99 19.7173L245.245 20.7791L245.24 21.779ZM247.443 23.9303L7.71587 22.8623L7.72033 21.8623L247.447 22.9303L247.443 23.9303ZM249.622 26.0817L6.08437 25.0022L6.08881 24.0022L249.626 25.0817L249.622 26.0817ZM251.815 28.233L3.90688 27.1437L3.91127 26.1437L251.819 27.233L251.815 28.233ZM249.485 331.454L1.02352 330.298L1.02817 329.298L249.49 330.454L249.485 331.454ZM247.312 333.619L3.76019 332.425L3.7651 331.425L247.317 332.619L247.312 333.619ZM245.12 335.784L5.95083 334.553L5.95598 333.553L245.126 334.784L245.12 335.784ZM243.511 337.947L7.59543 336.682L7.60079 335.682L243.517 336.947L243.511 337.947ZM241.311 340.112L10.3321 338.809L10.3377 337.809L241.317 339.112L241.311 340.112ZM239.165 342.276L11.9767 340.938L11.9826 339.939L239.171 341.276L239.165 342.276ZM237.537 344.44L13.6213 343.068L13.6274 342.068L237.544 343.44L237.537 344.44ZM235.365 346.604L16.3579 345.195L16.3644 344.195L235.371 345.604L235.365 346.604ZM233.192 348.769L18.5485 347.323L18.5553 346.323L233.198 347.769L233.192 348.769ZM230.473 350.396L21.2864 349.449L21.2909 348.449L230.478 349.396L230.473 350.396ZM231.218 4.52643L27.6478 3.88516L27.6509 2.88517L231.221 3.52644L231.218 4.52643ZM171.81 2.23713L30.2557 1.18939L30.2631 0.189415L171.817 1.23716L171.81 2.23713Z" fill="white" fill-opacity="0.1"/>
<path d="M0 25.5957L23.0967 3.38738C24.9595 1.59618 27.4435 0.595703 30.0278 0.595703H123H139H159.5H174.5H223.881C226.519 0.595703 229.051 1.63853 230.924 3.49695L251.543 23.9549C253.436 25.8325 254.5 28.3879 254.5 31.0537V323.361C254.5 325.77 253.631 328.097 252.052 329.916L234.49 350.15C232.591 352.339 229.836 353.596 226.938 353.596H28.9292C26.1086 353.596 23.4191 352.404 21.5236 350.316L2.5944 329.455C0.924853 327.615 0 325.219 0 322.735V25.5957L2 26.5957V322.695C2 325.204 2.94253 327.62 4.64069 329.466L22.0289 348.366C23.9225 350.424 26.5915 351.596 29.3882 351.596H195.5H202.5H221H226.106C228.906 351.596 231.578 350.422 233.472 348.36L250.359 329.972C252.057 328.122 252.998 325.702 252.993 323.191L252.507 31.7281C252.502 29.0817 251.449 26.545 249.578 24.6737L230.429 5.52464C228.554 3.64927 226.01 2.5957 223.358 2.5957H116H100H70.5H61H44H31.4658C28.9184 2.5957 26.4671 3.56784 24.6121 5.3137L2 26.5957L0 25.5957Z" fill="#AAA8B7"/>
<path d="M3.01495 30.4095L250.585 28.1711L250.575 27.1712L3.0059 29.4095L3.01495 30.4095ZM3.01577 32.5495L252.203 30.3105L252.194 29.3105L3.00678 31.5495L3.01577 32.5495ZM3.01661 34.6895L252.744 32.4502L252.735 31.4502L3.00764 33.6895L3.01661 34.6895ZM3.01746 36.8294L252.745 34.5901L252.736 33.5902L3.00849 35.8295L3.01746 36.8294ZM3.01831 38.9694L252.745 36.7301L252.736 35.7302L3.00935 37.9695L3.01831 38.9694ZM3.01916 41.1094L252.746 38.8701L252.737 37.8702L3.0102 40.1095L3.01916 41.1094ZM3.02001 43.2494L252.747 41.0101L252.738 40.0101L3.01105 42.2495L3.02001 43.2494ZM3.02087 45.3894L252.748 43.1501L252.739 42.1501L3.0119 44.3894L3.02087 45.3894ZM3.02172 47.5294L252.749 45.2901L252.74 44.2901L3.01275 46.5294L3.02172 47.5294ZM3.02257 49.6693L252.75 47.43L252.741 46.4301L3.0136 48.6694L3.02257 49.6693ZM3.02342 51.8093L252.75 49.57L252.742 48.5701L3.01445 50.8094L3.02342 51.8093ZM3.02427 53.9493L252.751 51.71L252.742 50.71L3.0153 52.9493L3.02427 53.9493ZM3.02512 56.0893L252.752 53.85L252.743 52.85L3.01615 55.0893L3.02512 56.0893ZM3.02597 58.2293L252.753 55.99L252.744 54.99L3.01701 57.2293L3.02597 58.2293ZM3.02682 60.3692L252.754 58.13L252.745 57.13L3.01786 59.3693L3.02682 60.3692ZM3.02767 62.5092L252.755 60.2699L252.746 59.27L3.01871 61.5093L3.02767 62.5092ZM3.02853 64.6492L252.756 62.4099L252.747 61.41L3.01956 63.6492L3.02853 64.6492ZM3.02938 66.7892L252.756 64.5499L252.747 63.5499L3.02041 65.7892L3.02938 66.7892ZM3.03023 68.9292L252.757 66.6899L252.748 65.6899L3.02126 67.9292L3.03023 68.9292ZM3.03108 71.0691L252.758 68.8298L252.749 67.8299L3.02211 70.0692L3.03108 71.0691ZM3.03193 73.2091L252.759 70.9698L252.75 69.9699L3.02296 72.2092L3.03193 73.2091ZM3.03278 75.3491L252.76 73.1098L252.751 72.1098L3.02381 74.3492L3.03278 75.3491ZM3.03363 77.4891L252.761 75.2498L252.752 74.2498L3.02466 76.4891L3.03363 77.4891ZM3.03448 79.6291L252.762 77.3898L252.753 76.3898L3.02552 78.6291L3.03448 79.6291ZM3.03533 81.7691L252.762 79.5298L252.753 78.5298L3.02637 80.7691L3.03533 81.7691ZM3.03618 83.9091L252.763 81.6698L252.754 80.6698L3.02722 82.9091L3.03618 83.9091ZM3.03704 86.049L252.764 83.8098L252.755 82.8098L3.02807 85.0491L3.03704 86.049ZM3.03789 88.189L252.765 85.9497L252.756 84.9498L3.02892 87.1891L3.03789 88.189ZM3.03874 90.329L252.766 88.0897L252.757 87.0898L3.02977 89.329L3.03874 90.329ZM3.03959 92.469L252.767 90.2297L252.758 89.2297L3.03062 91.469L3.03959 92.469ZM3.04044 94.609L252.767 92.3697L252.759 91.3697L3.03147 93.609L3.04044 94.609ZM3.04129 96.749L252.768 94.5097L252.759 93.5097L3.03232 95.749L3.04129 96.749ZM3.04214 98.8889L252.769 96.6496L252.76 95.6497L3.03318 97.889L3.04214 98.8889ZM3.04299 101.029L252.77 98.7896L252.761 97.7897L3.03403 100.029L3.04299 101.029ZM3.04384 103.169L252.771 100.93L252.762 99.9296L3.03488 102.169L3.04384 103.169ZM3.04469 105.309L252.772 103.07L252.763 102.07L3.03573 104.309L3.04469 105.309ZM3.04555 107.449L252.773 105.21L252.764 104.21L3.03658 106.449L3.04555 107.449ZM3.0464 109.589L252.773 107.35L252.764 106.35L3.03743 108.589L3.0464 109.589ZM3.04725 111.729L252.774 109.49L252.765 108.49L3.03828 110.729L3.04725 111.729ZM3.0481 113.869L252.775 111.63L252.766 110.63L3.03913 112.869L3.0481 113.869ZM3.04895 116.009L252.776 113.769L252.767 112.77L3.03998 115.009L3.04895 116.009ZM3.0498 118.149L252.777 115.909L252.768 114.91L3.04083 117.149L3.0498 118.149ZM3.05065 120.289L252.778 118.049L252.769 117.049L3.04169 119.289L3.05065 120.289ZM3.0515 122.429L252.779 120.189L252.77 119.189L3.04254 121.429L3.0515 122.429ZM3.05235 124.569L252.779 122.329L252.77 121.329L3.04339 123.569L3.05235 124.569ZM3.05321 126.709L252.78 124.469L252.771 123.469L3.04424 125.709L3.05321 126.709ZM3.05406 128.849L252.781 126.609L252.772 125.609L3.04509 127.849L3.05406 128.849ZM3.05491 130.989L252.782 128.749L252.773 127.749L3.04594 129.989L3.05491 130.989ZM3.05576 133.129L252.783 130.889L252.774 129.889L3.04679 132.129L3.05576 133.129ZM3.05661 135.269L252.784 133.029L252.775 132.029L3.04764 134.269L3.05661 135.269ZM3.05746 137.409L252.785 135.169L252.776 134.169L3.04849 136.409L3.05746 137.409ZM3.05831 139.549L252.785 137.309L252.776 136.309L3.04934 138.549L3.05831 139.549ZM3.05916 141.689L252.786 139.449L252.777 138.449L3.0502 140.689L3.05916 141.689ZM3.06001 143.829L252.787 141.589L252.778 140.589L3.05105 142.829L3.06001 143.829ZM3.06086 145.969L252.788 143.729L252.779 142.729L3.0519 144.969L3.06086 145.969ZM3.06172 148.109L252.789 145.869L252.78 144.869L3.05275 147.109L3.06172 148.109ZM3.06257 150.249L252.79 148.009L252.781 147.009L3.0536 149.249L3.06257 150.249ZM3.06342 152.388L252.79 150.149L252.782 149.149L3.05445 151.389L3.06342 152.388ZM3.06427 154.528L252.791 152.289L252.782 151.289L3.0553 153.529L3.06427 154.528ZM3.06512 156.668L252.792 154.429L252.783 153.429L3.05615 155.668L3.06512 156.668ZM3.06597 158.808L252.793 156.569L252.784 155.569L3.057 157.808L3.06597 158.808ZM3.06682 160.948L252.794 158.709L252.785 157.709L3.05786 159.948L3.06682 160.948ZM3.06767 163.088L252.795 160.849L252.786 159.849L3.05871 162.088L3.06767 163.088ZM3.06852 165.228L252.796 162.989L252.787 161.989L3.05956 164.228L3.06852 165.228ZM3.06937 167.368L252.796 165.129L252.787 164.129L3.06041 166.368L3.06937 167.368ZM3.07023 169.508L252.797 167.269L252.788 166.269L3.06126 168.508L3.07023 169.508ZM3.07108 171.648L252.798 169.409L252.789 168.409L3.06211 170.648L3.07108 171.648ZM3.07193 173.788L252.799 171.549L252.79 170.549L3.06296 172.788L3.07193 173.788ZM3.07278 175.928L252.8 173.689L252.791 172.689L3.06381 174.928L3.07278 175.928ZM3.07363 178.068L252.801 175.829L252.792 174.829L3.06466 177.068L3.07363 178.068ZM3.07448 180.208L252.802 177.969L252.793 176.969L3.06551 179.208L3.07448 180.208ZM3.07533 182.348L252.802 180.109L252.793 179.109L3.06637 181.348L3.07533 182.348ZM3.07618 184.488L252.803 182.249L252.794 181.249L3.06722 183.488L3.07618 184.488ZM3.07703 186.628L252.804 184.389L252.795 183.389L3.06807 185.628L3.07703 186.628ZM3.07789 188.768L252.805 186.529L252.796 185.529L3.06892 187.768L3.07789 188.768ZM3.07874 190.908L252.806 188.669L252.797 187.669L3.06977 189.908L3.07874 190.908ZM3.07959 193.048L252.807 190.809L252.798 189.809L3.07062 192.048L3.07959 193.048ZM3.08044 195.188L252.807 192.949L252.799 191.949L3.07147 194.188L3.08044 195.188ZM3.08129 197.328L252.808 195.089L252.799 194.089L3.07232 196.328L3.08129 197.328ZM3.08214 199.468L252.809 197.229L252.8 196.229L3.07317 198.468L3.08214 199.468ZM3.08299 201.608L252.81 199.369L252.801 198.369L3.07402 200.608L3.08299 201.608ZM3.08384 203.748L252.811 201.509L252.802 200.509L3.07488 202.748L3.08384 203.748ZM3.08469 205.888L252.812 203.649L252.803 202.649L3.07573 204.888L3.08469 205.888ZM3.08554 208.028L252.813 205.789L252.804 204.789L3.07658 207.028L3.08554 208.028ZM3.0864 210.168L252.813 207.929L252.804 206.929L3.07743 209.168L3.0864 210.168ZM3.08725 212.308L252.814 210.069L252.805 209.069L3.07828 211.308L3.08725 212.308ZM3.0881 214.448L252.815 212.209L252.806 211.209L3.07913 213.448L3.0881 214.448ZM3.08895 216.588L252.816 214.349L252.807 213.349L3.07998 215.588L3.08895 216.588ZM3.0898 218.728L252.817 216.489L252.808 215.489L3.08083 217.728L3.0898 218.728ZM3.09065 220.868L252.818 218.629L252.809 217.629L3.08168 219.868L3.09065 220.868ZM3.0915 223.008L252.819 220.769L252.81 219.769L3.08254 222.008L3.0915 223.008ZM3.09235 225.148L252.819 222.909L252.81 221.909L3.08339 224.148L3.09235 225.148ZM3.0932 227.288L252.82 225.049L252.811 224.049L3.08424 226.288L3.0932 227.288ZM3.09405 229.428L252.821 227.188L252.812 226.189L3.08509 228.428L3.09405 229.428ZM3.09491 231.568L252.822 229.328L252.813 228.329L3.08594 230.568L3.09491 231.568ZM3.09576 233.708L252.823 231.468L252.814 230.468L3.08679 232.708L3.09576 233.708ZM3.09661 235.848L252.824 233.608L252.815 232.608L3.08764 234.848L3.09661 235.848ZM3.09746 237.988L252.825 235.748L252.816 234.748L3.08849 236.988L3.09746 237.988ZM3.09831 240.128L252.825 237.888L252.816 236.888L3.08934 239.128L3.09831 240.128ZM3.09916 242.268L252.826 240.028L252.817 239.028L3.09019 241.268L3.09916 242.268ZM3.10001 244.408L252.827 242.168L252.818 241.168L3.09105 243.408L3.10001 244.408ZM3.10086 246.548L252.828 244.308L252.819 243.308L3.0919 245.548L3.10086 246.548ZM3.10171 248.687L252.829 246.448L252.82 245.448L3.09275 247.688L3.10171 248.687ZM3.10257 250.827L252.83 248.588L252.821 247.588L3.0936 249.827L3.10257 250.827ZM3.10342 252.967L252.83 250.728L252.822 249.728L3.09445 251.967L3.10342 252.967ZM3.10427 255.107L252.831 252.868L252.822 251.868L3.0953 254.107L3.10427 255.107ZM3.10512 257.247L252.832 255.008L252.823 254.008L3.09615 256.247L3.10512 257.247ZM3.10597 259.387L252.833 257.148L252.824 256.148L3.097 258.387L3.10597 259.387ZM3.10682 261.527L252.834 259.288L252.825 258.288L3.09785 260.527L3.10682 261.527ZM3.10767 263.667L252.835 261.428L252.826 260.428L3.0987 262.667L3.10767 263.667ZM3.10852 265.807L252.836 263.568L252.827 262.568L3.09956 264.807L3.10852 265.807ZM3.10937 267.947L252.836 265.708L252.827 264.708L3.10041 266.947L3.10937 267.947ZM3.11022 270.087L252.837 267.848L252.828 266.848L3.10126 269.087L3.11022 270.087ZM3.11108 272.227L252.838 269.988L252.829 268.988L3.10211 271.227L3.11108 272.227ZM3.11193 274.367L252.839 272.128L252.83 271.128L3.10296 273.367L3.11193 274.367ZM3.11278 276.507L252.84 274.268L252.831 273.268L3.10381 275.507L3.11278 276.507ZM3.11363 278.647L252.841 276.408L252.832 275.408L3.10466 277.647L3.11363 278.647ZM3.11448 280.787L252.842 278.548L252.833 277.548L3.10551 279.787L3.11448 280.787ZM3.11533 282.927L252.842 280.688L252.833 279.688L3.10636 281.927L3.11533 282.927ZM3.11618 285.067L252.843 282.828L252.834 281.828L3.10722 284.067L3.11618 285.067ZM3.11703 287.207L252.844 284.968L252.835 283.968L3.10807 286.207L3.11703 287.207ZM3.11788 289.347L252.845 287.108L252.836 286.108L3.10892 288.347L3.11788 289.347ZM3.11873 291.487L252.846 289.247L252.837 288.248L3.10977 290.487L3.11873 291.487ZM3.11959 293.627L252.847 291.387L252.838 290.388L3.11062 292.627L3.11959 293.627ZM3.12044 295.767L252.847 293.527L252.839 292.527L3.11147 294.767L3.12044 295.767ZM3.12129 297.907L252.848 295.667L252.839 294.667L3.11232 296.907L3.12129 297.907ZM3.12214 300.047L252.849 297.807L252.84 296.807L3.11317 299.047L3.12214 300.047ZM3.12299 302.187L252.85 299.947L252.841 298.947L3.11402 301.187L3.12299 302.187ZM3.12384 304.327L252.851 302.087L252.842 301.087L3.11487 303.327L3.12384 304.327ZM3.12469 306.467L252.852 304.227L252.843 303.227L3.11573 305.467L3.12469 306.467ZM3.12554 308.607L252.853 306.367L252.844 305.367L3.11658 307.607L3.12554 308.607ZM3.12639 310.747L252.853 308.507L252.844 307.507L3.11743 309.747L3.12639 310.747ZM3.12725 312.887L252.854 310.647L252.845 309.647L3.11828 311.887L3.12725 312.887ZM3.1281 315.027L252.855 312.787L252.846 311.787L3.11913 314.027L3.1281 315.027ZM3.12895 317.167L252.856 314.927L252.847 313.927L3.11998 316.167L3.12895 317.167ZM3.1298 319.307L252.857 317.067L252.848 316.067L3.12083 318.307L3.1298 319.307ZM3.13065 321.447L252.858 319.207L252.849 318.207L3.12168 320.447L3.13065 321.447ZM3.1315 323.586L252.859 321.347L252.85 320.347L3.12253 322.587L3.1315 323.586ZM3.13235 325.726L252.859 323.487L252.85 322.487L3.12338 324.727L3.13235 325.726ZM3.1332 327.866L252.86 325.627L252.851 324.627L3.12424 326.866L3.1332 327.866ZM4.21281 330.006L252.861 327.767L252.852 326.767L4.20381 329.006L4.21281 330.006ZM25.1159 4.72102L223.064 4.10731L223.061 3.10731L25.1128 3.72103L25.1159 4.72102ZM21.3424 6.8625L226.302 5.711L226.297 4.71102L21.3368 5.86251L21.3424 6.8625ZM19.187 9.00333L228.462 7.31512L228.454 6.31515L19.179 8.00336L19.187 9.00333ZM17.0316 11.1442L230.082 8.91945L230.071 7.9195L17.0211 10.1442L17.0316 11.1442ZM14.8749 13.285L232.24 11.0586L232.23 10.0586L14.8646 12.285L14.8749 13.285ZM12.7181 15.4258L234.398 13.1977L234.388 12.1977L12.7081 14.4259L12.7181 15.4258ZM10.5614 17.5667L237.096 15.3366L237.086 14.3367L10.5516 16.5667L10.5614 17.5667ZM7.86532 19.7077L239.254 17.4757L239.244 16.4758L7.85567 18.7078L7.86532 19.7077ZM6.24797 21.8484L241.951 19.6146L241.942 18.6147L6.2385 20.8484L6.24797 21.8484ZM4.63063 23.989L245.188 21.7533L245.179 20.7534L4.62133 22.989L4.63063 23.989ZM3.01331 26.1296L246.807 23.8927L246.798 22.8927L3.00414 25.1296L3.01331 26.1296ZM3.01412 28.2695L248.966 26.0318L248.956 25.0318L3.00503 27.2696L3.01412 28.2695ZM4.75304 332.146L252.862 329.907L252.853 328.907L4.74402 331.146L4.75304 332.146ZM6.37207 334.286L250.166 332.049L250.157 331.049L6.3629 333.286L6.37207 334.286ZM8.53048 336.425L248.01 334.189L248 333.189L8.52115 335.425L8.53048 336.425ZM10.1495 338.564L246.392 336.33L246.383 335.33L10.14 337.564L10.1495 338.564ZM11.7685 340.703L243.696 338.471L243.687 337.471L11.7589 339.703L11.7685 340.703ZM12.8482 342.843L242.079 340.612L242.069 339.612L12.8385 341.843L12.8482 342.843ZM15.546 344.982L240.462 342.752L240.452 341.752L15.5361 343.982L15.546 344.982ZM16.6256 347.121L237.766 344.893L237.756 343.893L16.6156 346.121L16.6256 347.121ZM18.2447 349.261L235.61 347.034L235.599 346.034L18.2344 348.261L18.2447 349.261ZM20.4031 351.4L232.914 349.175L232.903 348.175L20.3927 350.4L20.4031 351.4Z" fill="white" fill-opacity="0.1"/>
<path d="M252.912 30.642L2.27487 29.2836L2.28029 28.2836L252.917 29.642L252.912 30.642ZM252.918 32.7768L0.643405 31.4235L0.64877 30.4235L252.924 31.7768L252.918 32.7768ZM252.925 34.9116L0.103987 33.5599L0.109333 32.5599L252.93 33.9116L252.925 34.9116ZM252.932 37.0464L0.110599 35.6947L0.115946 34.6948L252.937 36.0464L252.932 37.0464ZM252.938 39.1812L0.117212 37.8295L0.122559 36.8296L252.944 38.1812L252.938 39.1812ZM252.945 41.3161L0.123825 39.9643L0.129171 38.9644L252.95 40.3161L252.945 41.3161ZM252.951 43.4509L0.130438 42.0992L0.135784 41.0992L252.957 42.4509L252.951 43.4509ZM252.958 45.5857L0.137051 44.234L0.142397 43.234L252.963 44.5857L252.958 45.5857ZM252.965 47.7205L0.143664 46.3688L0.14901 45.3688L252.97 46.7205L252.965 47.7205ZM252.971 49.8553L0.150276 48.5036L0.155623 47.5036L252.977 48.8553L252.971 49.8553ZM252.978 51.9901L0.156889 50.6384L0.162236 49.6384L252.983 50.9901L252.978 51.9901ZM252.984 54.1249L0.163502 52.7732L0.168848 51.7732L252.99 53.1249L252.984 54.1249ZM252.991 56.2597L0.170115 54.908L0.175461 53.908L252.996 55.2597L252.991 56.2597ZM252.998 58.3945L0.176728 57.0428L0.182074 56.0428L253.003 57.3945L252.998 58.3945ZM253.004 60.5293L0.183341 59.1776L0.188687 58.1776L253.01 59.5293L253.004 60.5293ZM253.011 62.6641L0.189954 61.3124L0.1953 60.3124L253.016 61.6641L253.011 62.6641ZM253.018 64.7989L0.196566 63.4472L0.201913 62.4473L253.023 63.799L253.018 64.7989ZM253.024 66.9337L0.203179 65.582L0.208526 64.5821L253.03 65.9337L253.024 66.9337ZM253.031 69.0685L0.209792 67.7168L0.215138 66.7169L253.036 68.0686L253.031 69.0685ZM253.037 71.2034L0.216405 69.8517L0.221751 68.8517L253.043 70.2034L253.037 71.2034ZM253.044 73.3382L0.223018 71.9865L0.228364 70.9865L253.049 72.3382L253.044 73.3382ZM253.051 75.473L0.229631 74.1213L0.234977 73.1213L253.056 74.473L253.051 75.473ZM253.057 77.6078L0.236244 76.2561L0.24159 75.2561L253.063 76.6078L253.057 77.6078ZM253.064 79.7426L0.242856 78.3909L0.248203 77.3909L253.069 78.7426L253.064 79.7426ZM253.07 81.8774L0.249469 80.5257L0.254816 79.5257L253.076 80.8775L253.07 81.8774ZM253.077 84.0123L0.256082 82.6606L0.261429 81.6606L253.082 83.0123L253.077 84.0123ZM253.084 86.1471L0.262695 84.7954L0.268041 83.7954L253.089 85.1471L253.084 86.1471ZM253.09 88.2819L0.269308 86.9302L0.274654 85.9302L253.096 87.2819L253.09 88.2819ZM253.097 90.4167L0.275921 89.065L0.281267 88.065L253.102 89.4167L253.097 90.4167ZM253.104 92.5515L0.282534 91.1998L0.28788 90.1998L253.109 91.5515L253.104 92.5515ZM253.11 94.6863L0.289146 93.3346L0.294493 92.3346L253.115 93.6863L253.11 94.6863ZM253.117 96.8211L0.295759 95.4694L0.301106 94.4694L253.122 95.8211L253.117 96.8211ZM253.123 98.9559L0.302372 97.6042L0.307718 96.6042L253.129 97.9559L253.123 98.9559ZM253.13 101.091L0.308985 99.739L0.314331 98.739L253.135 100.091L253.13 101.091ZM253.137 103.226L0.315598 101.874L0.320944 100.874L253.142 102.226L253.137 103.226ZM253.143 105.36L0.322211 104.009L0.327557 103.009L253.149 104.36L253.143 105.36ZM253.15 107.495L0.328824 106.143L0.33417 105.143L253.155 106.495L253.15 107.495ZM253.156 109.63L0.335436 108.278L0.340783 107.278L253.162 108.63L253.156 109.63ZM253.163 111.765L0.342049 110.413L0.347396 109.413L253.168 110.765L253.163 111.765ZM253.17 113.9L0.348662 112.548L0.354008 111.548L253.175 112.9L253.17 113.9ZM253.176 116.034L0.355275 114.683L0.360621 113.683L253.182 115.034L253.176 116.034ZM253.183 118.169L0.361888 116.817L0.367234 115.817L253.188 117.169L253.183 118.169ZM253.189 120.304L0.368501 118.952L0.373847 117.952L253.195 119.304L253.189 120.304ZM253.196 122.439L0.375113 121.087L0.38046 120.087L253.201 121.439L253.196 122.439ZM253.203 124.574L0.381726 123.222L0.387073 122.222L253.208 123.574L253.203 124.574ZM253.209 126.708L0.388339 125.357L0.393685 124.357L253.215 125.708L253.209 126.708ZM253.216 128.843L0.394952 127.492L0.400298 126.492L253.221 127.843L253.216 128.843ZM253.223 130.978L0.401565 129.626L0.406911 128.626L253.228 129.978L253.223 130.978ZM253.229 133.113L0.408178 131.761L0.413524 130.761L253.235 132.113L253.229 133.113ZM253.236 135.248L0.414791 133.896L0.420137 132.896L253.241 134.248L253.236 135.248ZM253.242 137.382L0.421403 136.031L0.42675 135.031L253.248 136.382L253.242 137.382ZM253.249 139.517L0.428016 138.166L0.433363 137.166L253.254 138.517L253.249 139.517ZM253.256 141.652L0.434629 140.3L0.439975 139.3L253.261 140.652L253.256 141.652ZM253.262 143.787L0.441242 142.435L0.446588 141.435L253.268 142.787L253.262 143.787ZM253.269 145.922L0.447855 144.57L0.453201 143.57L253.274 144.922L253.269 145.922ZM253.275 148.057L0.454468 146.705L0.459814 145.705L253.281 147.057L253.275 148.057ZM253.282 150.191L0.461081 148.84L0.466427 147.84L253.287 149.191L253.282 150.191ZM253.289 152.326L0.467693 150.974L0.47304 149.974L253.294 151.326L253.289 152.326ZM253.295 154.461L0.474306 153.109L0.479653 152.109L253.301 153.461L253.295 154.461ZM253.302 156.596L0.480919 155.244L0.486265 154.244L253.307 155.596L253.302 156.596ZM253.309 158.731L0.487532 157.379L0.492878 156.379L253.314 157.731L253.309 158.731ZM253.315 160.865L0.494145 159.514L0.499491 158.514L253.32 159.865L253.315 160.865ZM253.322 163L0.500758 161.648L0.506104 160.649L253.327 162L253.322 163ZM253.328 165.135L0.50737 163.783L0.512717 162.783L253.334 164.135L253.328 165.135ZM253.335 167.27L0.513983 165.918L0.51933 164.918L253.34 166.27L253.335 167.27ZM253.342 169.405L0.520596 168.053L0.525942 167.053L253.347 168.405L253.342 169.405ZM253.348 171.539L0.527209 170.188L0.532555 169.188L253.354 170.539L253.348 171.539ZM253.355 173.674L0.533822 172.323L0.539168 171.323L253.36 172.674L253.355 173.674ZM253.361 175.809L0.540435 174.457L0.545781 173.457L253.367 174.809L253.361 175.809ZM253.368 177.944L0.547047 176.592L0.552394 175.592L253.373 176.944L253.368 177.944ZM253.375 180.079L0.55366 178.727L0.559007 177.727L253.38 179.079L253.375 180.079ZM253.381 182.213L0.560273 180.862L0.56562 179.862L253.387 181.213L253.381 182.213ZM253.388 184.348L0.566886 182.997L0.572232 181.997L253.393 183.348L253.388 184.348ZM253.394 186.483L0.573499 185.131L0.578845 184.131L253.4 185.483L253.394 186.483ZM253.401 188.618L0.580112 187.266L0.585458 186.266L253.406 187.618L253.401 188.618ZM253.408 190.753L0.586725 189.401L0.592071 188.401L253.413 189.753L253.408 190.753ZM253.414 192.887L0.593337 191.536L0.598684 190.536L253.42 191.887L253.414 192.887ZM253.421 195.022L0.59995 193.671L0.605297 192.671L253.426 194.022L253.421 195.022ZM253.428 197.157L0.606563 195.805L0.611909 194.805L253.433 196.157L253.428 197.157ZM253.434 199.292L0.613176 197.94L0.618522 196.94L253.44 198.292L253.434 199.292ZM253.441 201.427L0.619789 200.075L0.625135 199.075L253.446 200.427L253.441 201.427ZM253.447 203.562L0.626402 202.21L0.631748 201.21L253.453 202.562L253.447 203.562ZM253.454 205.696L0.633015 204.345L0.638361 203.345L253.459 204.696L253.454 205.696ZM253.461 207.831L0.639627 206.479L0.644974 205.479L253.466 206.831L253.461 207.831ZM253.467 209.966L0.64624 208.614L0.651587 207.614L253.473 208.966L253.467 209.966ZM253.474 212.101L0.652853 210.749L0.658199 209.749L253.479 211.101L253.474 212.101ZM253.48 214.236L0.659466 212.884L0.664812 211.884L253.486 213.236L253.48 214.236ZM253.487 216.37L0.666079 215.019L0.671425 214.019L253.492 215.37L253.487 216.37ZM253.494 218.505L0.672692 217.153L0.678038 216.153L253.499 217.505L253.494 218.505ZM253.5 220.64L0.679304 219.288L0.684651 218.288L253.506 219.64L253.5 220.64ZM253.507 222.775L0.685917 221.423L0.691264 220.423L253.512 221.775L253.507 222.775ZM253.514 224.91L0.69253 223.558L0.697876 222.558L253.519 223.91L253.514 224.91ZM253.52 227.044L0.699143 225.693L0.704489 224.693L253.525 226.044L253.52 227.044ZM253.527 229.179L0.705756 227.827L0.711102 226.828L253.532 228.179L253.527 229.179ZM253.533 231.314L0.712369 229.962L0.717715 228.962L253.539 230.314L253.533 231.314ZM253.54 233.449L0.718981 232.097L0.724328 231.097L253.545 232.449L253.54 233.449ZM253.547 235.584L0.725594 234.232L0.730941 233.232L253.552 234.584L253.547 235.584ZM253.553 237.718L0.732207 236.367L0.737554 235.367L253.559 236.718L253.553 237.718ZM253.56 239.853L0.73882 238.502L0.744166 237.502L253.565 238.853L253.56 239.853ZM253.566 241.988L0.745433 240.636L0.750779 239.636L253.572 240.988L253.566 241.988ZM253.573 244.123L0.752046 242.771L0.757392 241.771L253.578 243.123L253.573 244.123ZM253.58 246.258L0.758659 244.906L0.764005 243.906L253.585 245.258L253.58 246.258ZM253.586 248.392L0.765271 247.041L0.770617 246.041L253.592 247.392L253.586 248.392ZM253.593 250.527L0.771884 249.175L0.77723 248.175L253.598 249.527L253.593 250.527ZM253.599 252.662L0.778497 251.31L0.783843 250.31L253.605 251.662L253.599 252.662ZM253.606 254.797L0.785109 253.445L0.790456 252.445L253.611 253.797L253.606 254.797ZM253.613 256.932L0.791722 255.58L0.797069 254.58L253.618 255.932L253.613 256.932ZM253.619 259.066L0.798335 257.715L0.803681 256.715L253.625 258.066L253.619 259.066ZM253.626 261.201L0.804948 259.849L0.810294 258.849L253.631 260.201L253.626 261.201ZM253.633 263.336L0.811561 261.984L0.816907 260.984L253.638 262.336L253.633 263.336ZM253.639 265.471L0.818174 264.119L0.82352 263.119L253.644 264.471L253.639 265.471ZM253.646 267.606L0.824786 266.254L0.830133 265.254L253.651 266.606L253.646 267.606ZM253.652 269.74L0.831399 268.389L0.836746 267.389L253.658 268.74L253.652 269.74ZM253.659 271.875L0.838012 270.523L0.843358 269.523L253.664 270.875L253.659 271.875ZM253.666 274.01L0.844625 272.658L0.849971 271.658L253.671 273.01L253.666 274.01ZM253.672 276.145L0.851238 274.793L0.856584 273.793L253.678 275.145L253.672 276.145ZM253.679 278.28L0.857851 276.928L0.863197 275.928L253.684 277.28L253.679 278.28ZM253.685 280.414L0.864464 279.063L0.86981 278.063L253.691 279.414L253.685 280.414ZM253.692 282.549L0.871076 281.197L0.876423 280.197L253.697 281.549L253.692 282.549ZM253.699 284.684L0.877689 283.332L0.883035 282.332L253.704 283.684L253.699 284.684ZM253.705 286.819L0.884302 285.467L0.889648 284.467L253.711 285.819L253.705 286.819ZM253.712 288.953L0.890914 287.602L0.896261 286.602L253.717 287.953L253.712 288.953ZM253.719 291.088L0.897527 289.737L0.902873 288.737L253.724 290.088L253.719 291.088ZM253.725 293.223L0.90414 291.871L0.909486 290.871L253.73 292.223L253.725 293.223ZM253.732 295.358L0.910753 294.006L0.916099 293.006L253.737 294.358L253.732 295.358ZM253.738 297.493L0.917366 296.141L0.922712 295.141L253.744 296.493L253.738 297.493ZM253.745 299.627L0.923979 298.276L0.929325 297.276L253.75 298.627L253.745 299.627ZM253.752 301.762L0.930591 300.411L0.935938 299.411L253.757 300.762L253.752 301.762ZM253.758 303.897L0.937204 302.545L0.942551 301.545L253.764 302.897L253.758 303.897ZM253.765 306.032L0.943817 304.68L0.949163 303.68L253.77 305.032L253.765 306.032ZM253.771 308.167L0.95043 306.815L0.955776 305.815L253.777 307.167L253.771 308.167ZM253.778 310.302L0.957043 308.95L0.962389 307.95L253.783 309.302L253.778 310.302ZM253.785 312.436L0.963656 311.085L0.969002 310.085L253.79 311.436L253.785 312.436ZM253.791 314.571L0.970269 313.219L0.975615 312.219L253.797 313.571L253.791 314.571ZM253.798 316.706L0.976881 315.354L0.982228 314.354L253.803 315.706L253.798 316.706ZM253.804 318.841L0.983494 317.489L0.98884 316.489L253.81 317.841L253.804 318.841ZM253.811 320.976L0.990107 319.624L0.995453 318.624L253.816 319.976L253.811 320.976ZM253.818 323.11L0.99672 321.759L1.00207 320.759L253.823 322.11L253.818 323.11ZM253.824 325.245L1.00333 323.893L1.00868 322.893L253.83 324.245L253.824 325.245ZM252.741 327.128L1.01044 326.028L1.0148 325.028L252.745 326.128L252.741 327.128ZM250.561 329.293L1.01697 328.163L1.02149 327.163L250.566 328.293L250.561 329.293ZM231.25 6.65106L24.5001 6.05753L24.5029 5.05754L231.253 5.65106L231.25 6.65106ZM232.685 8.86931L22.412 8.21413L22.4152 7.21414L232.689 7.86931L232.685 8.86931ZM234.87 11.0206L20.8449 9.83157L20.8504 8.83158L234.876 10.0207L234.87 11.0206ZM236.478 13.1738L19.8261 12.5033L19.8292 11.5033L236.481 12.1738L236.478 13.1738ZM238.668 15.3251L18.61 14.2892L18.6147 13.2892L238.672 14.3251L238.668 15.3251ZM240.858 17.4764L15.8865 16.4325L15.8911 15.4325L240.863 16.4764L240.858 17.4764ZM243.049 19.6277L13.709 18.5741L13.7136 17.5741L243.054 18.6277L243.049 19.6277ZM245.24 21.779L10.9854 20.7173L10.99 19.7173L245.245 20.7791L245.24 21.779ZM247.443 23.9303L7.71587 22.8623L7.72033 21.8623L247.447 22.9303L247.443 23.9303ZM249.622 26.0817L6.08437 25.0022L6.08881 24.0022L249.626 25.0817L249.622 26.0817ZM251.815 28.233L3.90688 27.1437L3.91127 26.1437L251.819 27.233L251.815 28.233ZM249.485 331.454L1.02352 330.298L1.02817 329.298L249.49 330.454L249.485 331.454ZM247.312 333.619L3.76019 332.425L3.7651 331.425L247.317 332.619L247.312 333.619ZM245.12 335.784L5.95083 334.553L5.95598 333.553L245.126 334.784L245.12 335.784ZM243.511 337.947L7.59543 336.682L7.60079 335.682L243.517 336.947L243.511 337.947ZM241.311 340.112L10.3321 338.809L10.3377 337.809L241.317 339.112L241.311 340.112ZM239.165 342.276L11.9767 340.938L11.9826 339.939L239.171 341.276L239.165 342.276ZM237.537 344.44L13.6213 343.068L13.6274 342.068L237.544 343.44L237.537 344.44ZM235.365 346.604L16.3579 345.195L16.3644 344.195L235.371 345.604L235.365 346.604ZM233.192 348.769L18.5485 347.323L18.5553 346.323L233.198 347.769L233.192 348.769ZM230.473 350.396L21.2864 349.449L21.2909 348.449L230.478 349.396L230.473 350.396ZM231.218 4.52643L27.6478 3.88516L27.6509 2.88517L231.221 3.52644L231.218 4.52643ZM171.81 2.23713L30.2557 1.18939L30.2631 0.189415L171.817 1.23716L171.81 2.23713Z" fill="white" fill-opacity="0.1"/>
<defs>
<linearGradient id="paint0_linear_109_244" x1="125.5" y1="1" x2="125.5" y2="349" gradientUnits="userSpaceOnUse">
<stop stop-color="#00B2FF"/>
<stop offset="1" stop-color="#818181" stop-opacity="0"/>
</linearGradient>
<linearGradient id="paint1_linear_109_244" x1="127.5" y1="3" x2="127.5" y2="351" gradientUnits="userSpaceOnUse">
<stop stop-color="#00B2FF"/>
<stop offset="1" stop-color="#818181" stop-opacity="0"/>
</linearGradient>
</defs>
</svg>
