<svg width="124" height="127" viewBox="0 0 124 127" fill="none" xmlns="http://www.w3.org/2000/svg">
<g filter="url(#filter0_d_1_944)">
<path d="M31.3365 62.2808C47.9526 54.8617 59.0326 49.9705 64.5765 47.6073C80.4054 40.86 83.6945 39.6879 85.8383 39.6488C86.3098 39.6407 87.3641 39.7605 88.047 40.3284C88.6236 40.8079 88.7823 41.4556 88.8582 41.9103C88.9341 42.3649 89.0287 43.4006 88.9535 44.2098C88.0957 53.4464 84.3841 75.8612 82.4959 86.2063C81.6969 90.5837 80.1237 92.0514 78.6006 92.195C75.2906 92.5072 72.7772 89.9533 69.5713 87.7996C64.5548 84.4295 61.7207 82.3316 56.8513 79.043C51.2238 75.2424 54.8719 73.1536 58.0789 69.7399C58.9183 68.8465 73.5021 55.2519 73.7844 54.0186C73.8197 53.8644 73.8524 53.2894 73.5191 52.9859C73.1859 52.6823 72.694 52.7861 72.339 52.8687C71.8359 52.9857 63.8219 58.4142 48.297 69.1543C46.0222 70.7551 43.9618 71.5351 42.1158 71.4942C40.0806 71.4491 36.1659 70.3149 33.2557 69.3454C29.6862 68.1563 26.8492 67.5276 27.0962 65.5081C27.2249 64.4562 28.6383 63.3805 31.3365 62.2808Z" fill="white" fill-opacity="0.5" shape-rendering="crispEdges"/>
<path d="M31.5252 62.7439L31.5329 62.7408L31.5404 62.7374C48.1571 55.3179 59.2332 50.4285 64.7725 48.0673C72.6888 44.6928 77.4576 42.7177 80.5136 41.5811C83.5783 40.4414 84.8672 40.1667 85.8471 40.1487C86.0428 40.1454 86.381 40.1692 86.7444 40.2582C87.1108 40.348 87.4653 40.4949 87.7273 40.7128C88.1602 41.0728 88.2939 41.5669 88.365 41.9926C88.4363 42.4194 88.5256 43.4098 88.4556 44.1636C87.6002 53.3753 83.8926 75.7697 82.004 86.1165C81.2122 90.4545 79.7128 91.5879 78.5537 91.6973C77.05 91.8391 75.7042 91.3362 74.3048 90.4936C73.6039 90.0716 72.9012 89.5717 72.1634 89.0346C72.0411 88.9456 71.9178 88.8554 71.7934 88.7646C71.1727 88.3111 70.5262 87.8387 69.8501 87.3845C67.3458 85.7021 65.3861 84.3372 63.4423 82.9807L63.1853 82.8013C61.3273 81.5046 59.462 80.2028 57.1311 78.6286C55.7511 77.6966 55.006 76.9114 54.6635 76.2391C54.3384 75.6009 54.3593 75.0331 54.6118 74.4431C54.8783 73.8205 55.4029 73.176 56.1037 72.4453C56.4108 72.125 56.7421 71.7977 57.0904 71.4535C57.1354 71.4091 57.1806 71.3644 57.2261 71.3194C57.6221 70.9279 58.0356 70.5162 58.4434 70.0822C58.6361 69.8771 59.5867 68.9714 60.936 67.686C62.4531 66.2408 64.4741 64.3154 66.4883 62.366C68.3822 60.5329 70.2624 58.6857 71.688 57.2181C72.4001 56.485 73.0037 55.8416 73.4402 55.3397C73.6578 55.0894 73.8398 54.8677 73.9743 54.6838C74.0414 54.592 74.1015 54.5032 74.1494 54.4205C74.1927 54.3459 74.2459 54.2431 74.2718 54.1302C74.304 53.9894 74.3222 53.7449 74.2848 53.4867C74.2477 53.2299 74.1437 52.8784 73.8558 52.6162C73.5679 52.354 73.2252 52.2848 72.9412 52.2825C72.6654 52.2803 72.4 52.3411 72.2257 52.3817C72.1168 52.407 71.9958 52.4714 71.9186 52.5132C71.818 52.5677 71.6906 52.642 71.5389 52.7341C71.2345 52.9188 70.8143 53.1858 70.2806 53.5333C69.212 54.2291 67.6749 55.2563 65.6707 56.6139C61.6616 59.3296 55.7753 63.3728 48.0125 68.7431L48.0092 68.7454C45.7799 70.3142 43.8243 71.0319 42.1268 70.9943C41.1715 70.9732 39.7323 70.6918 38.1383 70.2822C36.5563 69.8757 34.8618 69.3535 33.4137 68.8711C32.9686 68.7228 32.5404 68.5848 32.1317 68.453C30.8654 68.0448 29.7858 67.6967 28.9671 67.2903C28.4323 67.0248 28.0647 66.7595 27.8441 66.4816C27.6384 66.2226 27.5474 65.9379 27.5925 65.5688C27.6324 65.2433 27.8875 64.8187 28.5556 64.3103C29.2122 63.8105 30.1944 63.2862 31.5252 62.7439Z" stroke="white" stroke-opacity="0.5" shape-rendering="crispEdges"/>
</g>
<g filter="url(#filter1_d_1_944)">
<path d="M31.3365 62.2808C47.9526 54.8617 59.0326 49.9705 64.5765 47.6073C80.4054 40.86 83.6945 39.6879 85.8383 39.6488C86.3098 39.6407 87.3641 39.7605 88.047 40.3284C88.6236 40.8079 88.7823 41.4556 88.8582 41.9103C88.9341 42.3649 89.0287 43.4006 88.9535 44.2098C88.0957 53.4464 84.3841 75.8612 82.4959 86.2063C81.6969 90.5837 80.1237 92.0514 78.6006 92.195C75.2906 92.5072 72.7772 89.9533 69.5713 87.7996C64.5548 84.4295 61.7207 82.3316 56.8513 79.043C51.2238 75.2424 54.8719 73.1536 58.0789 69.7399C58.9183 68.8465 73.5021 55.2519 73.7844 54.0186C73.8197 53.8644 73.8524 53.2894 73.5191 52.9859C73.1859 52.6823 72.694 52.7861 72.339 52.8687C71.8359 52.9857 63.8219 58.4142 48.297 69.1543C46.0222 70.7551 43.9618 71.5351 42.1158 71.4942C40.0806 71.4491 36.1659 70.3149 33.2557 69.3454C29.6862 68.1563 26.8492 67.5276 27.0962 65.5081C27.2249 64.4562 28.6383 63.3805 31.3365 62.2808Z" fill="white" fill-opacity="0.5" shape-rendering="crispEdges"/>
<path d="M31.5252 62.7439L31.5329 62.7408L31.5404 62.7374C48.1571 55.3179 59.2332 50.4285 64.7725 48.0673C72.6888 44.6928 77.4576 42.7177 80.5136 41.5811C83.5783 40.4414 84.8672 40.1667 85.8471 40.1487C86.0428 40.1454 86.381 40.1692 86.7444 40.2582C87.1108 40.348 87.4653 40.4949 87.7273 40.7128C88.1602 41.0728 88.2939 41.5669 88.365 41.9926C88.4363 42.4194 88.5256 43.4098 88.4556 44.1636C87.6002 53.3753 83.8926 75.7697 82.004 86.1165C81.2122 90.4545 79.7128 91.5879 78.5537 91.6973C77.05 91.8391 75.7042 91.3362 74.3048 90.4936C73.6039 90.0716 72.9012 89.5717 72.1634 89.0346C72.0411 88.9456 71.9178 88.8554 71.7934 88.7646C71.1727 88.3111 70.5262 87.8387 69.8501 87.3845C67.3458 85.7021 65.3861 84.3372 63.4423 82.9807L63.1853 82.8013C61.3273 81.5046 59.462 80.2028 57.1311 78.6286C55.7511 77.6966 55.006 76.9114 54.6635 76.2391C54.3384 75.6009 54.3593 75.0331 54.6118 74.4431C54.8783 73.8205 55.4029 73.176 56.1037 72.4453C56.4108 72.125 56.7421 71.7977 57.0904 71.4535C57.1354 71.4091 57.1806 71.3644 57.2261 71.3194C57.6221 70.9279 58.0356 70.5162 58.4434 70.0822C58.6361 69.8771 59.5867 68.9714 60.936 67.686C62.4531 66.2408 64.4741 64.3154 66.4883 62.366C68.3822 60.5329 70.2624 58.6857 71.688 57.2181C72.4001 56.485 73.0037 55.8416 73.4402 55.3397C73.6578 55.0894 73.8398 54.8677 73.9743 54.6838C74.0414 54.592 74.1015 54.5032 74.1494 54.4205C74.1927 54.3459 74.2459 54.2431 74.2718 54.1302C74.304 53.9894 74.3222 53.7449 74.2848 53.4867C74.2477 53.2299 74.1437 52.8784 73.8558 52.6162C73.5679 52.354 73.2252 52.2848 72.9412 52.2825C72.6654 52.2803 72.4 52.3411 72.2257 52.3817C72.1168 52.407 71.9958 52.4714 71.9186 52.5132C71.818 52.5677 71.6906 52.642 71.5389 52.7341C71.2345 52.9188 70.8143 53.1858 70.2806 53.5333C69.212 54.2291 67.6749 55.2563 65.6707 56.6139C61.6616 59.3296 55.7753 63.3728 48.0125 68.7431L48.0092 68.7454C45.7799 70.3142 43.8243 71.0319 42.1268 70.9943C41.1715 70.9732 39.7323 70.6918 38.1383 70.2822C36.5563 69.8757 34.8618 69.3535 33.4137 68.8711C32.9686 68.7228 32.5404 68.5848 32.1317 68.453C30.8654 68.0448 29.7858 67.6967 28.9671 67.2903C28.4323 67.0248 28.0647 66.7595 27.8441 66.4816C27.6384 66.2226 27.5474 65.9379 27.5925 65.5688C27.6324 65.2433 27.8875 64.8187 28.5556 64.3103C29.2122 63.8105 30.1944 63.2862 31.5252 62.7439Z" stroke="white" stroke-opacity="0.5" shape-rendering="crispEdges"/>
</g>
<g filter="url(#filter2_d_1_944)">
<path d="M31.3365 62.2808C47.9526 54.8617 59.0326 49.9705 64.5765 47.6073C80.4054 40.86 83.6945 39.6879 85.8383 39.6488C86.3098 39.6407 87.3641 39.7605 88.047 40.3284C88.6236 40.8079 88.7823 41.4556 88.8582 41.9103C88.9341 42.3649 89.0287 43.4006 88.9535 44.2098C88.0957 53.4464 84.3841 75.8612 82.4959 86.2063C81.6969 90.5837 80.1237 92.0514 78.6006 92.195C75.2906 92.5072 72.7772 89.9533 69.5713 87.7996C64.5548 84.4295 61.7207 82.3316 56.8513 79.043C51.2238 75.2424 54.8719 73.1536 58.0789 69.7399C58.9183 68.8465 73.5021 55.2519 73.7844 54.0186C73.8197 53.8644 73.8524 53.2894 73.5191 52.9859C73.1859 52.6823 72.694 52.7861 72.339 52.8687C71.8359 52.9857 63.8219 58.4142 48.297 69.1543C46.0222 70.7551 43.9618 71.5351 42.1158 71.4942C40.0806 71.4491 36.1659 70.3149 33.2557 69.3454C29.6862 68.1563 26.8492 67.5276 27.0962 65.5081C27.2249 64.4562 28.6383 63.3805 31.3365 62.2808Z" fill="white" fill-opacity="0.5" shape-rendering="crispEdges"/>
<path d="M31.5252 62.7439L31.5329 62.7408L31.5404 62.7374C48.1571 55.3179 59.2332 50.4285 64.7725 48.0673C72.6888 44.6928 77.4576 42.7177 80.5136 41.5811C83.5783 40.4414 84.8672 40.1667 85.8471 40.1487C86.0428 40.1454 86.381 40.1692 86.7444 40.2582C87.1108 40.348 87.4653 40.4949 87.7273 40.7128C88.1602 41.0728 88.2939 41.5669 88.365 41.9926C88.4363 42.4194 88.5256 43.4098 88.4556 44.1636C87.6002 53.3753 83.8926 75.7697 82.004 86.1165C81.2122 90.4545 79.7128 91.5879 78.5537 91.6973C77.05 91.8391 75.7042 91.3362 74.3048 90.4936C73.6039 90.0716 72.9012 89.5717 72.1634 89.0346C72.0411 88.9456 71.9178 88.8554 71.7934 88.7646C71.1727 88.3111 70.5262 87.8387 69.8501 87.3845C67.3458 85.7021 65.3861 84.3372 63.4423 82.9807L63.1853 82.8013C61.3273 81.5046 59.462 80.2028 57.1311 78.6286C55.7511 77.6966 55.006 76.9114 54.6635 76.2391C54.3384 75.6009 54.3593 75.0331 54.6118 74.4431C54.8783 73.8205 55.4029 73.176 56.1037 72.4453C56.4108 72.125 56.7421 71.7977 57.0904 71.4535C57.1354 71.4091 57.1806 71.3644 57.2261 71.3194C57.6221 70.9279 58.0356 70.5162 58.4434 70.0822C58.6361 69.8771 59.5867 68.9714 60.936 67.686C62.4531 66.2408 64.4741 64.3154 66.4883 62.366C68.3822 60.5329 70.2624 58.6857 71.688 57.2181C72.4001 56.485 73.0037 55.8416 73.4402 55.3397C73.6578 55.0894 73.8398 54.8677 73.9743 54.6838C74.0414 54.592 74.1015 54.5032 74.1494 54.4205C74.1927 54.3459 74.2459 54.2431 74.2718 54.1302C74.304 53.9894 74.3222 53.7449 74.2848 53.4867C74.2477 53.2299 74.1437 52.8784 73.8558 52.6162C73.5679 52.354 73.2252 52.2848 72.9412 52.2825C72.6654 52.2803 72.4 52.3411 72.2257 52.3817C72.1168 52.407 71.9958 52.4714 71.9186 52.5132C71.818 52.5677 71.6906 52.642 71.5389 52.7341C71.2345 52.9188 70.8143 53.1858 70.2806 53.5333C69.212 54.2291 67.6749 55.2563 65.6707 56.6139C61.6616 59.3296 55.7753 63.3728 48.0125 68.7431L48.0092 68.7454C45.7799 70.3142 43.8243 71.0319 42.1268 70.9943C41.1715 70.9732 39.7323 70.6918 38.1383 70.2822C36.5563 69.8757 34.8618 69.3535 33.4137 68.8711C32.9686 68.7228 32.5404 68.5848 32.1317 68.453C30.8654 68.0448 29.7858 67.6967 28.9671 67.2903C28.4323 67.0248 28.0647 66.7595 27.8441 66.4816C27.6384 66.2226 27.5474 65.9379 27.5925 65.5688C27.6324 65.2433 27.8875 64.8187 28.5556 64.3103C29.2122 63.8105 30.1944 63.2862 31.5252 62.7439Z" stroke="white" stroke-opacity="0.5" shape-rendering="crispEdges"/>
</g>
<defs>
<filter id="filter0_d_1_944" x="9.08124" y="25.6484" width="97.8998" height="88.5728" filterUnits="userSpaceOnUse" color-interpolation-filters="sRGB">
<feFlood flood-opacity="0" result="BackgroundImageFix"/>
<feColorMatrix in="SourceAlpha" type="matrix" values="0 0 0 0 0 0 0 0 0 0 0 0 0 0 0 0 0 0 127 0" result="hardAlpha"/>
<feOffset dy="4"/>
<feGaussianBlur stdDeviation="9"/>
<feComposite in2="hardAlpha" operator="out"/>
<feColorMatrix type="matrix" values="0 0 0 0 0.803922 0 0 0 0 0.388235 0 0 0 0 1 0 0 0 0.7 0"/>
<feBlend mode="normal" in2="BackgroundImageFix" result="effect1_dropShadow_1_944"/>
<feBlend mode="normal" in="SourceGraphic" in2="effect1_dropShadow_1_944" result="shape"/>
</filter>
<filter id="filter1_d_1_944" x="9.08124" y="25.6484" width="97.8998" height="88.5728" filterUnits="userSpaceOnUse" color-interpolation-filters="sRGB">
<feFlood flood-opacity="0" result="BackgroundImageFix"/>
<feColorMatrix in="SourceAlpha" type="matrix" values="0 0 0 0 0 0 0 0 0 0 0 0 0 0 0 0 0 0 127 0" result="hardAlpha"/>
<feOffset dy="4"/>
<feGaussianBlur stdDeviation="9"/>
<feComposite in2="hardAlpha" operator="out"/>
<feColorMatrix type="matrix" values="0 0 0 0 0.803922 0 0 0 0 0.388235 0 0 0 0 1 0 0 0 0.7 0"/>
<feBlend mode="normal" in2="BackgroundImageFix" result="effect1_dropShadow_1_944"/>
<feBlend mode="normal" in="SourceGraphic" in2="effect1_dropShadow_1_944" result="shape"/>
</filter>
<filter id="filter2_d_1_944" x="9.08124" y="25.6484" width="97.8998" height="88.5728" filterUnits="userSpaceOnUse" color-interpolation-filters="sRGB">
<feFlood flood-opacity="0" result="BackgroundImageFix"/>
<feColorMatrix in="SourceAlpha" type="matrix" values="0 0 0 0 0 0 0 0 0 0 0 0 0 0 0 0 0 0 127 0" result="hardAlpha"/>
<feOffset dy="4"/>
<feGaussianBlur stdDeviation="9"/>
<feComposite in2="hardAlpha" operator="out"/>
<feColorMatrix type="matrix" values="0 0 0 0 0.803922 0 0 0 0 0.388235 0 0 0 0 1 0 0 0 0.7 0"/>
<feBlend mode="normal" in2="BackgroundImageFix" result="effect1_dropShadow_1_944"/>
<feBlend mode="normal" in="SourceGraphic" in2="effect1_dropShadow_1_944" result="shape"/>
</filter>
</defs>
</svg>
