<svg width="255" height="353" viewBox="0 0 255 353" fill="none" xmlns="http://www.w3.org/2000/svg">
<g opacity="0.3">
<path d="M0 25.0502L22.7394 3.19452C24.6021 1.40421 27.0854 0.404297 29.669 0.404297H121.308H137.088H157.306H172.1H220.746C223.384 0.404297 225.915 1.44655 227.788 3.30407L248.042 23.3909C249.935 25.2686 251 27.8246 251 30.4911V318.544C251 320.953 250.13 323.281 248.551 325.1L231.306 344.961C229.407 347.148 226.653 348.404 223.756 348.404H28.591C25.7711 348.404 23.0822 347.214 21.1868 345.126L2.59579 324.646C0.925387 322.806 0 320.41 0 317.925V25.0502V25.0502C1.18503 25.6425 2.61368 25.4328 3.57858 24.525L27.1218 2.37597H114.405H140.54H173.58H184.921H195.277H209.084H224.371H114.405H98.6248H69.5304H60.1611H43.3949H27.1218L3.57858 24.525C2.61368 25.4328 1.18503 25.6425 0 25.0502V25.0502Z" fill="url(#paint0_linear_113_256)"/>
<path d="M2 27.0502L24.7394 5.19452C26.6021 3.40421 29.0854 2.4043 31.669 2.4043H123.308H139.088H159.306H174.1H222.746C225.384 2.4043 227.915 3.44655 229.788 5.30407L250.042 25.3909C251.935 27.2686 253 29.8246 253 32.4911V320.544C253 322.953 252.13 325.281 250.551 327.1L233.306 346.961C231.407 349.148 228.653 350.404 225.756 350.404H30.591C27.7711 350.404 25.0822 349.214 23.1868 347.126L4.59579 326.646C2.92539 324.806 2 322.41 2 319.925V27.0502V27.0502C3.18503 27.6425 4.61368 27.4328 5.57858 26.525L29.1218 4.37597H116.405H142.54H175.58H186.921H197.277H211.084H226.371H116.405H100.625H71.5304H62.1611H45.3949H29.1218L5.57858 26.525C4.61368 27.4328 3.18503 27.6425 2 27.0502V27.0502Z" fill="url(#paint1_linear_113_256)"/>
</g>
<path d="M0 25L23.0967 2.79167C24.9595 1.00048 27.4435 0 30.0278 0H123H139H159.5H174.5H223.881C226.519 0 229.051 1.04283 230.924 2.90124L251.543 23.3592C253.436 25.2368 254.5 27.7922 254.5 30.458V322.766C254.5 325.174 253.631 327.501 252.052 329.32L234.49 349.555C232.591 351.743 229.836 353 226.938 353H28.9292C26.1086 353 23.4191 351.809 21.5236 349.72L2.5944 328.859C0.924853 327.019 0 324.624 0 322.139V25L2 26V322.1C2 324.608 2.94253 327.024 4.64069 328.87L22.0289 347.771C23.9225 349.829 26.5915 351 29.3882 351H195.5H202.5H221H226.106C228.906 351 231.578 349.826 233.472 347.764L250.359 329.376C252.057 327.527 252.998 325.106 252.993 322.595L252.507 31.1324C252.502 28.486 251.449 25.9493 249.578 24.078L230.429 4.92893C228.554 3.05357 226.01 2 223.358 2H116H100H70.5H61H44H31.4658C28.9184 2 26.4671 2.97214 24.6121 4.718L2 26L0 25Z" fill="#AAA8B7"/>
<path d="M0 25L23.0967 2.79167C24.9595 1.00048 27.4435 0 30.0278 0H123H139H159.5H174.5H223.881C226.519 0 229.051 1.04283 230.924 2.90124L251.543 23.3592C253.436 25.2368 254.5 27.7922 254.5 30.458V322.766C254.5 325.174 253.631 327.501 252.052 329.32L234.49 349.555C232.591 351.743 229.836 353 226.938 353H28.9292C26.1086 353 23.4191 351.809 21.5236 349.72L2.5944 328.859C0.924853 327.019 0 324.624 0 322.139V25L2 26V322.1C2 324.608 2.94253 327.024 4.64069 328.87L22.0289 347.771C23.9225 349.829 26.5915 351 29.3882 351H195.5H202.5H221H226.106C228.906 351 231.578 349.826 233.472 347.764L250.359 329.376C252.057 327.527 252.998 325.106 252.993 322.595L252.507 31.1324C252.502 28.486 251.449 25.9493 249.578 24.078L230.429 4.92893C228.554 3.05357 226.01 2 223.358 2H116H100H70.5H61H44H31.4658C28.9184 2 26.4671 2.97214 24.6121 4.718L2 26L0 25Z" fill="#AAA8B7"/>
<defs>
<linearGradient id="paint0_linear_113_256" x1="125.5" y1="0.404297" x2="125.5" y2="348.404" gradientUnits="userSpaceOnUse">
<stop stop-color="#00D1FF"/>
<stop offset="1" stop-color="white" stop-opacity="0"/>
</linearGradient>
<linearGradient id="paint1_linear_113_256" x1="127.5" y1="2.4043" x2="127.5" y2="350.404" gradientUnits="userSpaceOnUse">
<stop stop-color="#00D1FF"/>
<stop offset="1" stop-color="white" stop-opacity="0"/>
</linearGradient>
</defs>
</svg>
