<svg width="21" height="17" viewBox="0 0 21 17" fill="none" xmlns="http://www.w3.org/2000/svg">
<path d="M20.41 2.26417C19.6794 2.62946 18.9488 2.75122 18.0965 2.87298C18.9488 2.38593 19.5577 1.65536 19.8012 0.681268C19.0706 1.16831 18.2183 1.41184 17.2442 1.65536C16.5136 0.924791 15.4178 0.437744 14.3219 0.437744C11.7649 0.437744 9.81671 2.87298 10.4255 5.30822C7.13795 5.18646 4.21567 3.60355 2.14572 1.16832C1.04986 2.99474 1.65867 5.30822 3.36334 6.52584C2.75453 6.52584 2.14572 6.28231 1.53691 6.03879C1.53691 7.86522 2.87629 9.56988 4.70272 10.0569C4.09391 10.1787 3.4851 10.3005 2.87629 10.1787C3.36334 11.7616 4.82448 12.9792 6.65091 12.9792C5.18976 14.0751 2.99805 14.6839 0.928101 14.4404C2.75453 15.5362 4.82448 16.2668 7.01619 16.2668C14.4437 16.2668 18.5836 10.0569 18.34 4.33412C19.1924 3.84707 19.9229 3.1165 20.41 2.26417Z" fill="white"/>
</svg>
