<svg width="100" height="93" viewBox="0 0 100 93" fill="none" xmlns="http://www.w3.org/2000/svg">
<g filter="url(#filter0_d_109_236)">
<path d="M82 20.5769C79.6 21.8923 77.2 22.3308 74.4 22.7692C77.2 21.0154 79.2 18.3846 80 14.8769C77.6 16.6308 74.8 17.5077 71.6 18.3846C69.2 15.7538 65.6 14 62 14C53.6 14 47.2 22.7692 49.2 31.5385C38.4 31.1 28.8 25.4 22 16.6308C18.4 23.2077 20.4 31.5385 26 35.9231C24 35.9231 22 35.0462 20 34.1692C20 40.7462 24.4 46.8846 30.4 48.6385C28.4 49.0769 26.4 49.5154 24.4 49.0769C26 54.7769 30.8 59.1615 36.8 59.1615C32 63.1077 24.8 65.3 18 64.4231C24 68.3692 30.8 71 38 71C62.4 71 76 48.6385 75.2 28.0308C78 26.2769 80.4 23.6462 82 20.5769Z" fill="white" fill-opacity="0.5" shape-rendering="crispEdges"/>
<path d="M36.8 58.6615C31.3309 58.6615 26.8644 54.848 25.1167 49.7012C26.944 49.9081 28.7486 49.5124 30.4576 49.1377L30.5071 49.1269L30.5403 48.1585C25.0037 46.5401 20.8489 41.0154 20.5209 34.9423C22.2831 35.7046 24.1322 36.4231 26 36.4231H27.4496L26.3082 35.5294C21.0849 31.4397 19.1018 23.7905 22.0897 17.5514C28.9328 26.0688 38.4634 31.603 49.1797 32.038L49.8328 32.0646L49.6875 31.4273C47.7485 22.9256 53.966 14.5 62 14.5C65.4454 14.5 68.9155 16.1839 71.2306 18.7216L71.4369 18.9477L71.7321 18.8668C74.4529 18.1212 76.9448 17.3617 79.1562 16.035C78.2331 18.7783 76.4776 20.8779 74.1346 22.3455L74.4774 23.2632C76.7239 22.9114 78.7635 22.5536 80.7653 21.7227C79.2514 24.1237 77.2283 26.1703 74.9346 27.607L74.6891 27.7608L74.7004 28.0502C75.4935 48.4802 62.0205 70.5 38 70.5C31.6035 70.5 25.5098 68.3871 20.0084 65.0941C26.3037 65.3532 32.6971 63.1819 37.1175 59.5478L38.1955 58.6615H36.8Z" stroke="white" stroke-opacity="0.5" shape-rendering="crispEdges"/>
</g>
<g filter="url(#filter1_d_109_236)">
<path d="M82 20.5769C79.6 21.8923 77.2 22.3308 74.4 22.7692C77.2 21.0154 79.2 18.3846 80 14.8769C77.6 16.6308 74.8 17.5077 71.6 18.3846C69.2 15.7538 65.6 14 62 14C53.6 14 47.2 22.7692 49.2 31.5385C38.4 31.1 28.8 25.4 22 16.6308C18.4 23.2077 20.4 31.5385 26 35.9231C24 35.9231 22 35.0462 20 34.1692C20 40.7462 24.4 46.8846 30.4 48.6385C28.4 49.0769 26.4 49.5154 24.4 49.0769C26 54.7769 30.8 59.1615 36.8 59.1615C32 63.1077 24.8 65.3 18 64.4231C24 68.3692 30.8 71 38 71C62.4 71 76 48.6385 75.2 28.0308C78 26.2769 80.4 23.6462 82 20.5769Z" fill="white" fill-opacity="0.5" shape-rendering="crispEdges"/>
<path d="M36.8 58.6615C31.3309 58.6615 26.8644 54.848 25.1167 49.7012C26.944 49.9081 28.7486 49.5124 30.4576 49.1377L30.5071 49.1269L30.5403 48.1585C25.0037 46.5401 20.8489 41.0154 20.5209 34.9423C22.2831 35.7046 24.1322 36.4231 26 36.4231H27.4496L26.3082 35.5294C21.0849 31.4397 19.1018 23.7905 22.0897 17.5514C28.9328 26.0688 38.4634 31.603 49.1797 32.038L49.8328 32.0646L49.6875 31.4273C47.7485 22.9256 53.966 14.5 62 14.5C65.4454 14.5 68.9155 16.1839 71.2306 18.7216L71.4369 18.9477L71.7321 18.8668C74.4529 18.1212 76.9448 17.3617 79.1562 16.035C78.2331 18.7783 76.4776 20.8779 74.1346 22.3455L74.4774 23.2632C76.7239 22.9114 78.7635 22.5536 80.7653 21.7227C79.2514 24.1237 77.2283 26.1703 74.9346 27.607L74.6891 27.7608L74.7004 28.0502C75.4935 48.4802 62.0205 70.5 38 70.5C31.6035 70.5 25.5098 68.3871 20.0084 65.0941C26.3037 65.3532 32.6971 63.1819 37.1175 59.5478L38.1955 58.6615H36.8Z" stroke="white" stroke-opacity="0.5" shape-rendering="crispEdges"/>
</g>
<g filter="url(#filter2_d_109_236)">
<path d="M82 20.5769C79.6 21.8923 77.2 22.3308 74.4 22.7692C77.2 21.0154 79.2 18.3846 80 14.8769C77.6 16.6308 74.8 17.5077 71.6 18.3846C69.2 15.7538 65.6 14 62 14C53.6 14 47.2 22.7692 49.2 31.5385C38.4 31.1 28.8 25.4 22 16.6308C18.4 23.2077 20.4 31.5385 26 35.9231C24 35.9231 22 35.0462 20 34.1692C20 40.7462 24.4 46.8846 30.4 48.6385C28.4 49.0769 26.4 49.5154 24.4 49.0769C26 54.7769 30.8 59.1615 36.8 59.1615C32 63.1077 24.8 65.3 18 64.4231C24 68.3692 30.8 71 38 71C62.4 71 76 48.6385 75.2 28.0308C78 26.2769 80.4 23.6462 82 20.5769Z" fill="white" fill-opacity="0.5" shape-rendering="crispEdges"/>
<path d="M36.8 58.6615C31.3309 58.6615 26.8644 54.848 25.1167 49.7012C26.944 49.9081 28.7486 49.5124 30.4576 49.1377L30.5071 49.1269L30.5403 48.1585C25.0037 46.5401 20.8489 41.0154 20.5209 34.9423C22.2831 35.7046 24.1322 36.4231 26 36.4231H27.4496L26.3082 35.5294C21.0849 31.4397 19.1018 23.7905 22.0897 17.5514C28.9328 26.0688 38.4634 31.603 49.1797 32.038L49.8328 32.0646L49.6875 31.4273C47.7485 22.9256 53.966 14.5 62 14.5C65.4454 14.5 68.9155 16.1839 71.2306 18.7216L71.4369 18.9477L71.7321 18.8668C74.4529 18.1212 76.9448 17.3617 79.1562 16.035C78.2331 18.7783 76.4776 20.8779 74.1346 22.3455L74.4774 23.2632C76.7239 22.9114 78.7635 22.5536 80.7653 21.7227C79.2514 24.1237 77.2283 26.1703 74.9346 27.607L74.6891 27.7608L74.7004 28.0502C75.4935 48.4802 62.0205 70.5 38 70.5C31.6035 70.5 25.5098 68.3871 20.0084 65.0941C26.3037 65.3532 32.6971 63.1819 37.1175 59.5478L38.1955 58.6615H36.8Z" stroke="white" stroke-opacity="0.5" shape-rendering="crispEdges"/>
</g>
<defs>
<filter id="filter0_d_109_236" x="0" y="0" width="100" height="93" filterUnits="userSpaceOnUse" color-interpolation-filters="sRGB">
<feFlood flood-opacity="0" result="BackgroundImageFix"/>
<feColorMatrix in="SourceAlpha" type="matrix" values="0 0 0 0 0 0 0 0 0 0 0 0 0 0 0 0 0 0 127 0" result="hardAlpha"/>
<feOffset dy="4"/>
<feGaussianBlur stdDeviation="9"/>
<feComposite in2="hardAlpha" operator="out"/>
<feColorMatrix type="matrix" values="0 0 0 0 0.254902 0 0 0 0 0.776471 0 0 0 0 1 0 0 0 0.7 0"/>
<feBlend mode="normal" in2="BackgroundImageFix" result="effect1_dropShadow_109_236"/>
<feBlend mode="normal" in="SourceGraphic" in2="effect1_dropShadow_109_236" result="shape"/>
</filter>
<filter id="filter1_d_109_236" x="0" y="0" width="100" height="93" filterUnits="userSpaceOnUse" color-interpolation-filters="sRGB">
<feFlood flood-opacity="0" result="BackgroundImageFix"/>
<feColorMatrix in="SourceAlpha" type="matrix" values="0 0 0 0 0 0 0 0 0 0 0 0 0 0 0 0 0 0 127 0" result="hardAlpha"/>
<feOffset dy="4"/>
<feGaussianBlur stdDeviation="9"/>
<feComposite in2="hardAlpha" operator="out"/>
<feColorMatrix type="matrix" values="0 0 0 0 0.254902 0 0 0 0 0.776471 0 0 0 0 1 0 0 0 0.7 0"/>
<feBlend mode="normal" in2="BackgroundImageFix" result="effect1_dropShadow_109_236"/>
<feBlend mode="normal" in="SourceGraphic" in2="effect1_dropShadow_109_236" result="shape"/>
</filter>
<filter id="filter2_d_109_236" x="0" y="0" width="100" height="93" filterUnits="userSpaceOnUse" color-interpolation-filters="sRGB">
<feFlood flood-opacity="0" result="BackgroundImageFix"/>
<feColorMatrix in="SourceAlpha" type="matrix" values="0 0 0 0 0 0 0 0 0 0 0 0 0 0 0 0 0 0 127 0" result="hardAlpha"/>
<feOffset dy="4"/>
<feGaussianBlur stdDeviation="9"/>
<feComposite in2="hardAlpha" operator="out"/>
<feColorMatrix type="matrix" values="0 0 0 0 0.254902 0 0 0 0 0.776471 0 0 0 0 1 0 0 0 0.7 0"/>
<feBlend mode="normal" in2="BackgroundImageFix" result="effect1_dropShadow_109_236"/>
<feBlend mode="normal" in="SourceGraphic" in2="effect1_dropShadow_109_236" result="shape"/>
</filter>
</defs>
</svg>
