<svg width="105" height="114" viewBox="0 0 105 114" fill="none" xmlns="http://www.w3.org/2000/svg">
<g filter="url(#filter0_d_109_238)">
<mask id="path-1-inside-1_109_238" fill="white">
<path fill-rule="evenodd" clip-rule="evenodd" d="M77.8526 33.4764C80.6519 34.2954 82.859 36.6937 83.6127 39.7354C85.0123 45.2924 84.9585 56.8745 84.9585 56.8745C84.9585 56.8745 84.9585 68.398 83.6127 73.955C82.859 76.9968 80.6519 79.3951 77.8526 80.214C72.7385 81.6764 52.2822 81.6764 52.2822 81.6764C52.2822 81.6764 31.8797 81.6764 26.7118 80.1555C23.9125 79.3366 21.7054 76.9383 20.9517 73.8965C19.6059 68.398 19.6059 56.816 19.6059 56.816C19.6059 56.816 19.6059 45.2924 20.9517 39.7354C21.7054 36.6937 23.9663 34.2369 26.7118 33.4179C31.8259 31.9556 52.2822 31.9556 52.2822 31.9556C52.2822 31.9556 72.7385 31.9556 77.8526 33.4764ZM62.7795 56.4095L45.7684 67.0556V45.7634L62.7795 56.4095Z"/>
</mask>
<path fill-rule="evenodd" clip-rule="evenodd" d="M77.8526 33.4764C80.6519 34.2954 82.859 36.6937 83.6127 39.7354C85.0123 45.2924 84.9585 56.8745 84.9585 56.8745C84.9585 56.8745 84.9585 68.398 83.6127 73.955C82.859 76.9968 80.6519 79.3951 77.8526 80.214C72.7385 81.6764 52.2822 81.6764 52.2822 81.6764C52.2822 81.6764 31.8797 81.6764 26.7118 80.1555C23.9125 79.3366 21.7054 76.9383 20.9517 73.8965C19.6059 68.398 19.6059 56.816 19.6059 56.816C19.6059 56.816 19.6059 45.2924 20.9517 39.7354C21.7054 36.6937 23.9663 34.2369 26.7118 33.4179C31.8259 31.9556 52.2822 31.9556 52.2822 31.9556C52.2822 31.9556 72.7385 31.9556 77.8526 33.4764ZM62.7795 56.4095L45.7684 67.0556V45.7634L62.7795 56.4095Z" fill="white" fill-opacity="0.5" shape-rendering="crispEdges"/>
<path d="M83.6127 39.7354L82.642 39.9759L82.6429 39.9797L83.6127 39.7354ZM77.8526 33.4764L77.5675 34.435L77.5718 34.4362L77.8526 33.4764ZM84.9585 56.8745L83.9585 56.8698V56.8745H84.9585ZM83.6127 73.955L84.5833 74.1955L84.5846 74.1904L83.6127 73.955ZM77.8526 80.214L78.1275 81.1755L78.1334 81.1738L77.8526 80.214ZM26.7118 80.1555L26.9941 79.1962L26.9926 79.1957L26.7118 80.1555ZM20.9517 73.8965L19.9804 74.1343L19.9811 74.137L20.9517 73.8965ZM20.9517 39.7354L19.981 39.4949L19.9798 39.5L20.9517 39.7354ZM26.7118 33.4179L26.4368 32.4564L26.4259 32.4597L26.7118 33.4179ZM45.7684 67.0556H44.7684V68.8611L46.2989 67.9033L45.7684 67.0556ZM62.7795 56.4095L63.31 57.2572L64.6645 56.4095L63.31 55.5618L62.7795 56.4095ZM45.7684 45.7634L46.2989 44.9157L44.7684 43.9579V45.7634H45.7684ZM84.5833 39.4949C83.7518 36.1391 81.3041 33.4443 78.1334 32.5167L77.5718 34.4362C79.9996 35.1465 81.9662 37.2483 82.642 39.9759L84.5833 39.4949ZM84.9585 56.8745C85.9585 56.8791 85.9585 56.879 85.9585 56.8789C85.9585 56.8788 85.9585 56.8786 85.9585 56.8783C85.9585 56.8779 85.9585 56.8773 85.9585 56.8765C85.9585 56.875 85.9585 56.8727 85.9585 56.8697C85.9585 56.8638 85.9585 56.8551 85.9586 56.8438C85.9586 56.821 85.9587 56.7875 85.9587 56.7437C85.9588 56.6561 85.9587 56.5274 85.958 56.3621C85.9568 56.0315 85.9534 55.5538 85.9449 54.9636C85.928 53.7836 85.8907 52.1517 85.8094 50.3439C85.6481 46.7572 85.3098 42.3793 84.5824 39.4912L82.6429 39.9797C83.3152 42.6485 83.6498 46.8402 83.8114 50.4338C83.8916 52.2161 83.9284 53.827 83.9451 54.9923C83.9535 55.5747 83.9568 56.0454 83.9581 56.3698C83.9587 56.532 83.9588 56.6577 83.9587 56.7424C83.9587 56.7848 83.9586 56.817 83.9586 56.8384C83.9586 56.8491 83.9585 56.8571 83.9585 56.8624C83.9585 56.865 83.9585 56.867 83.9585 56.8682C83.9585 56.8688 83.9585 56.8693 83.9585 56.8695C83.9585 56.8697 83.9585 56.8697 83.9585 56.8698C83.9585 56.8698 83.9585 56.8698 84.9585 56.8745ZM84.5846 74.1904C85.2826 71.3082 85.6211 66.9503 85.7891 63.3779C85.8738 61.5781 85.9161 59.954 85.9373 58.7799C85.9479 58.1926 85.9532 57.7174 85.9558 57.3885C85.9571 57.2241 85.9578 57.0962 85.9581 57.0091C85.9583 56.9655 85.9584 56.9322 85.9584 56.9096C85.9585 56.8983 85.9585 56.8896 85.9585 56.8838C85.9585 56.8808 85.9585 56.8786 85.9585 56.877C85.9585 56.8763 85.9585 56.8757 85.9585 56.8752C85.9585 56.875 85.9585 56.8748 85.9585 56.8747C85.9585 56.8746 85.9585 56.8745 84.9585 56.8745C83.9585 56.8745 83.9585 56.8745 83.9585 56.8745C83.9585 56.8746 83.9585 56.8746 83.9585 56.8748C83.9585 56.875 83.9585 56.8755 83.9585 56.8761C83.9585 56.8774 83.9585 56.8793 83.9585 56.8819C83.9585 56.8872 83.9585 56.8952 83.9584 56.9058C83.9584 56.9272 83.9583 56.9592 83.9582 57.0014C83.9578 57.0858 83.9572 57.2109 83.9559 57.3724C83.9533 57.6954 83.9481 58.1639 83.9376 58.7438C83.9167 59.9041 83.8749 61.5082 83.7914 63.2839C83.623 66.8625 83.2885 71.0449 82.6408 73.7197L84.5846 74.1904ZM78.1334 81.1738C81.3041 80.2462 83.7518 77.5514 84.5833 74.1955L82.642 73.7145C81.9662 76.4422 79.9996 78.544 77.5718 79.2542L78.1334 81.1738ZM52.2822 81.6764C52.2822 82.6764 52.2823 82.6764 52.2825 82.6764C52.2827 82.6764 52.2829 82.6764 52.2833 82.6764C52.2839 82.6764 52.2849 82.6764 52.2862 82.6764C52.2888 82.6764 52.2926 82.6764 52.2976 82.6764C52.3076 82.6764 52.3225 82.6764 52.3422 82.6763C52.3814 82.6763 52.4396 82.6762 52.5155 82.676C52.6674 82.6757 52.8906 82.675 53.1762 82.6735C53.7474 82.6707 54.5686 82.6649 55.5698 82.6535C57.5719 82.6306 60.2959 82.5848 63.1814 82.4931C66.0651 82.4015 69.1187 82.2638 71.7775 82.0564C74.4066 81.8514 76.7393 81.5725 78.1275 81.1755L77.5777 79.2525C76.4089 79.5868 74.2667 79.8562 71.622 80.0625C69.0068 80.2664 65.9874 80.4029 63.1179 80.4941C60.25 80.5852 57.5403 80.6308 55.547 80.6536C54.5505 80.665 53.7336 80.6707 53.1661 80.6735C52.8824 80.675 52.661 80.6757 52.5108 80.676C52.4357 80.6762 52.3783 80.6763 52.3399 80.6763C52.3206 80.6764 52.3061 80.6764 52.2965 80.6764C52.2916 80.6764 52.288 80.6764 52.2856 80.6764C52.2844 80.6764 52.2836 80.6764 52.283 80.6764C52.2827 80.6764 52.2825 80.6764 52.2823 80.6764C52.2822 80.6764 52.2822 80.6764 52.2822 81.6764ZM26.4295 81.1148C27.8332 81.5279 30.1742 81.8182 32.8066 82.0315C35.4686 82.2472 38.5212 82.3904 41.4019 82.4857C44.2843 82.5811 47.0036 82.6287 49.0016 82.6526C50.0009 82.6645 50.8203 82.6704 51.3902 82.6734C51.6752 82.6749 51.8978 82.6756 52.0493 82.676C52.1251 82.6762 52.1831 82.6763 52.2223 82.6763C52.2419 82.6764 52.2568 82.6764 52.2668 82.6764C52.2718 82.6764 52.2756 82.6764 52.2782 82.6764C52.2795 82.6764 52.2804 82.6764 52.2811 82.6764C52.2814 82.6764 52.2817 82.6764 52.2819 82.6764C52.2821 82.6764 52.2822 82.6764 52.2822 81.6764C52.2822 80.6764 52.2821 80.6764 52.282 80.6764C52.2819 80.6764 52.2817 80.6764 52.2814 80.6764C52.2808 80.6764 52.2799 80.6764 52.2788 80.6764C52.2764 80.6764 52.2728 80.6764 52.268 80.6764C52.2583 80.6764 52.2439 80.6764 52.2247 80.6763C52.1863 80.6763 52.1292 80.6762 52.0543 80.676C51.9044 80.6757 51.6837 80.6749 51.4007 80.6734C50.8346 80.6705 50.0197 80.6646 49.0255 80.6527C47.0366 80.629 44.3322 80.5816 41.468 80.4868C38.6021 80.392 35.585 80.2501 32.9681 80.038C30.3216 79.8236 28.1743 79.5435 26.9941 79.1962L26.4295 81.1148ZM19.9811 74.137C20.8125 77.4929 23.2603 80.1877 26.431 81.1153L26.9926 79.1957C24.5647 78.4855 22.5982 76.3837 21.9224 73.656L19.9811 74.137ZM19.6059 56.816C18.6059 56.816 18.6059 56.8161 18.6059 56.8162C18.6059 56.8163 18.6059 56.8165 18.6059 56.8167C18.6059 56.8172 18.6059 56.8178 18.6059 56.8185C18.6059 56.8201 18.6059 56.8224 18.6059 56.8253C18.6059 56.8312 18.6059 56.8399 18.6059 56.8512C18.606 56.8739 18.6061 56.9075 18.6062 56.9512C18.6066 57.0387 18.6072 57.1672 18.6086 57.3324C18.6112 57.6628 18.6165 58.14 18.6271 58.7295C18.6482 59.9082 18.6905 61.5378 18.7752 63.3412C18.9433 66.92 19.2817 71.2796 19.9804 74.1343L21.923 73.6588C21.2759 71.0149 20.9414 66.8343 20.773 63.2474C20.6895 61.468 20.6477 59.8585 20.6268 58.6936C20.6163 58.1114 20.6111 57.6409 20.6085 57.3164C20.6072 57.1541 20.6065 57.0284 20.6062 56.9436C20.6061 56.9012 20.606 56.869 20.6059 56.8475C20.6059 56.8368 20.6059 56.8288 20.6059 56.8235C20.6059 56.8208 20.6059 56.8189 20.6059 56.8176C20.6059 56.817 20.6059 56.8166 20.6059 56.8163C20.6059 56.8161 20.6059 56.8161 20.6059 56.816C20.6059 56.816 20.6059 56.816 19.6059 56.816ZM19.9798 39.5C19.2818 42.3823 18.9433 46.7402 18.7752 50.3126C18.6905 52.1124 18.6482 53.7365 18.6271 54.9106C18.6165 55.4978 18.6112 55.973 18.6086 56.3019C18.6072 56.4664 18.6066 56.5943 18.6062 56.6814C18.6061 56.7249 18.606 56.7583 18.6059 56.7809C18.6059 56.7922 18.6059 56.8008 18.6059 56.8067C18.6059 56.8096 18.6059 56.8119 18.6059 56.8134C18.6059 56.8142 18.6059 56.8148 18.6059 56.8152C18.6059 56.8154 18.6059 56.8156 18.6059 56.8157C18.6059 56.8159 18.6059 56.816 19.6059 56.816C20.6059 56.816 20.6059 56.816 20.6059 56.816C20.6059 56.8159 20.6059 56.8158 20.6059 56.8157C20.6059 56.8154 20.6059 56.815 20.6059 56.8143C20.6059 56.8131 20.6059 56.8112 20.6059 56.8085C20.6059 56.8033 20.6059 56.7953 20.6059 56.7846C20.606 56.7633 20.6061 56.7312 20.6062 56.689C20.6065 56.6046 20.6072 56.4795 20.6085 56.318C20.6111 55.995 20.6163 55.5265 20.6268 54.9466C20.6477 53.7864 20.6895 52.1823 20.773 50.4066C20.9414 46.828 21.2758 42.6456 21.9236 39.9708L19.9798 39.5ZM26.4259 32.4597C23.3105 33.389 20.8118 36.1419 19.9811 39.4949L21.9224 39.9759C22.5989 37.2454 24.6222 35.0848 26.9976 34.3762L26.4259 32.4597ZM52.2822 31.9556C52.2822 30.9556 52.2821 30.9556 52.2819 30.9556C52.2817 30.9556 52.2814 30.9556 52.2811 30.9556C52.2804 30.9556 52.2795 30.9556 52.2782 30.9556C52.2756 30.9556 52.2718 30.9556 52.2668 30.9556C52.2567 30.9556 52.2418 30.9556 52.2222 30.9556C52.1829 30.9557 52.1248 30.9557 52.0488 30.9559C51.8969 30.9563 51.6738 30.957 51.3882 30.9584C50.817 30.9613 49.9958 30.967 48.9945 30.9785C46.9925 31.0014 44.2685 31.0472 41.383 31.1389C38.4992 31.2305 35.4456 31.3682 32.7869 31.5755C30.1577 31.7806 27.8251 32.0595 26.4368 32.4565L26.9867 34.3794C28.1555 34.0452 30.2977 33.7757 32.9424 33.5695C35.5576 33.3655 38.5769 33.229 41.4465 33.1379C44.3144 33.0467 47.0241 33.0012 49.0174 32.9784C50.0138 32.967 50.8307 32.9613 51.3982 32.9584C51.682 32.957 51.9033 32.9563 52.0536 32.9559C52.1287 32.9557 52.186 32.9557 52.2245 32.9556C52.2437 32.9556 52.2582 32.9556 52.2679 32.9556C52.2727 32.9556 52.2764 32.9556 52.2787 32.9556C52.2799 32.9556 52.2808 32.9556 52.2814 32.9556C52.2817 32.9556 52.2819 32.9556 52.282 32.9556C52.2821 32.9556 52.2822 32.9556 52.2822 31.9556ZM78.1376 32.5179C76.7457 32.104 74.4096 31.8137 71.7806 31.6005C69.121 31.3847 66.0667 31.2415 63.1826 31.1462C60.2968 31.0509 57.5725 31.0032 55.5703 30.9794C54.5689 30.9675 53.7476 30.9615 53.1764 30.9586C52.8907 30.9571 52.6676 30.9563 52.5156 30.9559C52.4397 30.9558 52.3815 30.9557 52.3422 30.9556C52.3226 30.9556 52.3077 30.9556 52.2976 30.9556C52.2926 30.9556 52.2888 30.9556 52.2862 30.9556C52.2849 30.9556 52.2839 30.9556 52.2833 30.9556C52.2829 30.9556 52.2827 30.9556 52.2825 30.9556C52.2823 30.9556 52.2822 30.9556 52.2822 31.9556C52.2822 32.9556 52.2822 32.9556 52.2823 32.9556C52.2825 32.9556 52.2827 32.9556 52.283 32.9556C52.2835 32.9556 52.2844 32.9556 52.2856 32.9556C52.288 32.9556 52.2916 32.9556 52.2964 32.9556C52.3061 32.9556 52.3206 32.9556 52.3398 32.9556C52.3783 32.9557 52.4356 32.9558 52.5107 32.9559C52.6609 32.9563 52.8822 32.957 53.1659 32.9585C53.7334 32.9615 54.5502 32.9674 55.5465 32.9793C57.5396 33.003 60.2491 33.0504 63.1166 33.1451C65.9859 33.2399 69.0046 33.3819 71.6189 33.5939C74.2637 33.8084 76.4024 34.0885 77.5675 34.435L78.1376 32.5179ZM46.2989 67.9033L63.31 57.2572L62.249 55.5618L45.2379 66.2079L46.2989 67.9033ZM44.7684 45.7634V67.0556H46.7684V45.7634H44.7684ZM63.31 55.5618L46.2989 44.9157L45.2379 46.6111L62.249 57.2572L63.31 55.5618Z" fill="white" fill-opacity="0.5" mask="url(#path-1-inside-1_109_238)"/>
</g>
<g filter="url(#filter1_d_109_238)">
<mask id="path-3-inside-2_109_238" fill="white">
<path fill-rule="evenodd" clip-rule="evenodd" d="M77.8526 33.4764C80.6519 34.2954 82.859 36.6937 83.6127 39.7354C85.0123 45.2924 84.9585 56.8745 84.9585 56.8745C84.9585 56.8745 84.9585 68.398 83.6127 73.955C82.859 76.9968 80.6519 79.3951 77.8526 80.214C72.7385 81.6764 52.2822 81.6764 52.2822 81.6764C52.2822 81.6764 31.8797 81.6764 26.7118 80.1555C23.9125 79.3366 21.7054 76.9383 20.9517 73.8965C19.6059 68.398 19.6059 56.816 19.6059 56.816C19.6059 56.816 19.6059 45.2924 20.9517 39.7354C21.7054 36.6937 23.9663 34.2369 26.7118 33.4179C31.8259 31.9556 52.2822 31.9556 52.2822 31.9556C52.2822 31.9556 72.7385 31.9556 77.8526 33.4764ZM62.7795 56.4095L45.7684 67.0556V45.7634L62.7795 56.4095Z"/>
</mask>
<path fill-rule="evenodd" clip-rule="evenodd" d="M77.8526 33.4764C80.6519 34.2954 82.859 36.6937 83.6127 39.7354C85.0123 45.2924 84.9585 56.8745 84.9585 56.8745C84.9585 56.8745 84.9585 68.398 83.6127 73.955C82.859 76.9968 80.6519 79.3951 77.8526 80.214C72.7385 81.6764 52.2822 81.6764 52.2822 81.6764C52.2822 81.6764 31.8797 81.6764 26.7118 80.1555C23.9125 79.3366 21.7054 76.9383 20.9517 73.8965C19.6059 68.398 19.6059 56.816 19.6059 56.816C19.6059 56.816 19.6059 45.2924 20.9517 39.7354C21.7054 36.6937 23.9663 34.2369 26.7118 33.4179C31.8259 31.9556 52.2822 31.9556 52.2822 31.9556C52.2822 31.9556 72.7385 31.9556 77.8526 33.4764ZM62.7795 56.4095L45.7684 67.0556V45.7634L62.7795 56.4095Z" fill="white" fill-opacity="0.5" shape-rendering="crispEdges"/>
<path d="M83.6127 39.7354L82.642 39.9759L82.6429 39.9797L83.6127 39.7354ZM77.8526 33.4764L77.5675 34.435L77.5718 34.4362L77.8526 33.4764ZM84.9585 56.8745L83.9585 56.8698V56.8745H84.9585ZM83.6127 73.955L84.5833 74.1955L84.5846 74.1904L83.6127 73.955ZM77.8526 80.214L78.1275 81.1755L78.1334 81.1738L77.8526 80.214ZM26.7118 80.1555L26.9941 79.1962L26.9926 79.1957L26.7118 80.1555ZM20.9517 73.8965L19.9804 74.1343L19.9811 74.137L20.9517 73.8965ZM20.9517 39.7354L19.981 39.4949L19.9798 39.5L20.9517 39.7354ZM26.7118 33.4179L26.4368 32.4564L26.4259 32.4597L26.7118 33.4179ZM45.7684 67.0556H44.7684V68.8611L46.2989 67.9033L45.7684 67.0556ZM62.7795 56.4095L63.31 57.2572L64.6645 56.4095L63.31 55.5618L62.7795 56.4095ZM45.7684 45.7634L46.2989 44.9157L44.7684 43.9579V45.7634H45.7684ZM84.5833 39.4949C83.7518 36.1391 81.3041 33.4443 78.1334 32.5167L77.5718 34.4362C79.9996 35.1465 81.9662 37.2483 82.642 39.9759L84.5833 39.4949ZM84.9585 56.8745C85.9585 56.8791 85.9585 56.879 85.9585 56.8789C85.9585 56.8788 85.9585 56.8786 85.9585 56.8783C85.9585 56.8779 85.9585 56.8773 85.9585 56.8765C85.9585 56.875 85.9585 56.8727 85.9585 56.8697C85.9585 56.8638 85.9585 56.8551 85.9586 56.8438C85.9586 56.821 85.9587 56.7875 85.9587 56.7437C85.9588 56.6561 85.9587 56.5274 85.958 56.3621C85.9568 56.0315 85.9534 55.5538 85.9449 54.9636C85.928 53.7836 85.8907 52.1517 85.8094 50.3439C85.6481 46.7572 85.3098 42.3793 84.5824 39.4912L82.6429 39.9797C83.3152 42.6485 83.6498 46.8402 83.8114 50.4338C83.8916 52.2161 83.9284 53.827 83.9451 54.9923C83.9535 55.5747 83.9568 56.0454 83.9581 56.3698C83.9587 56.532 83.9588 56.6577 83.9587 56.7424C83.9587 56.7848 83.9586 56.817 83.9586 56.8384C83.9586 56.8491 83.9585 56.8571 83.9585 56.8624C83.9585 56.865 83.9585 56.867 83.9585 56.8682C83.9585 56.8688 83.9585 56.8693 83.9585 56.8695C83.9585 56.8697 83.9585 56.8697 83.9585 56.8698C83.9585 56.8698 83.9585 56.8698 84.9585 56.8745ZM84.5846 74.1904C85.2826 71.3082 85.6211 66.9503 85.7891 63.3779C85.8738 61.5781 85.9161 59.954 85.9373 58.7799C85.9479 58.1926 85.9532 57.7174 85.9558 57.3885C85.9571 57.2241 85.9578 57.0962 85.9581 57.0091C85.9583 56.9655 85.9584 56.9322 85.9584 56.9096C85.9585 56.8983 85.9585 56.8896 85.9585 56.8838C85.9585 56.8808 85.9585 56.8786 85.9585 56.877C85.9585 56.8763 85.9585 56.8757 85.9585 56.8752C85.9585 56.875 85.9585 56.8748 85.9585 56.8747C85.9585 56.8746 85.9585 56.8745 84.9585 56.8745C83.9585 56.8745 83.9585 56.8745 83.9585 56.8745C83.9585 56.8746 83.9585 56.8746 83.9585 56.8748C83.9585 56.875 83.9585 56.8755 83.9585 56.8761C83.9585 56.8774 83.9585 56.8793 83.9585 56.8819C83.9585 56.8872 83.9585 56.8952 83.9584 56.9058C83.9584 56.9272 83.9583 56.9592 83.9582 57.0014C83.9578 57.0858 83.9572 57.2109 83.9559 57.3724C83.9533 57.6954 83.9481 58.1639 83.9376 58.7438C83.9167 59.9041 83.8749 61.5082 83.7914 63.2839C83.623 66.8625 83.2885 71.0449 82.6408 73.7197L84.5846 74.1904ZM78.1334 81.1738C81.3041 80.2462 83.7518 77.5514 84.5833 74.1955L82.642 73.7145C81.9662 76.4422 79.9996 78.544 77.5718 79.2542L78.1334 81.1738ZM52.2822 81.6764C52.2822 82.6764 52.2823 82.6764 52.2825 82.6764C52.2827 82.6764 52.2829 82.6764 52.2833 82.6764C52.2839 82.6764 52.2849 82.6764 52.2862 82.6764C52.2888 82.6764 52.2926 82.6764 52.2976 82.6764C52.3076 82.6764 52.3225 82.6764 52.3422 82.6763C52.3814 82.6763 52.4396 82.6762 52.5155 82.676C52.6674 82.6757 52.8906 82.675 53.1762 82.6735C53.7474 82.6707 54.5686 82.6649 55.5698 82.6535C57.5719 82.6306 60.2959 82.5848 63.1814 82.4931C66.0651 82.4015 69.1187 82.2638 71.7775 82.0564C74.4066 81.8514 76.7393 81.5725 78.1275 81.1755L77.5777 79.2525C76.4089 79.5868 74.2667 79.8562 71.622 80.0625C69.0068 80.2664 65.9874 80.4029 63.1179 80.4941C60.25 80.5852 57.5403 80.6308 55.547 80.6536C54.5505 80.665 53.7336 80.6707 53.1661 80.6735C52.8824 80.675 52.661 80.6757 52.5108 80.676C52.4357 80.6762 52.3783 80.6763 52.3399 80.6763C52.3206 80.6764 52.3061 80.6764 52.2965 80.6764C52.2916 80.6764 52.288 80.6764 52.2856 80.6764C52.2844 80.6764 52.2836 80.6764 52.283 80.6764C52.2827 80.6764 52.2825 80.6764 52.2823 80.6764C52.2822 80.6764 52.2822 80.6764 52.2822 81.6764ZM26.4295 81.1148C27.8332 81.5279 30.1742 81.8182 32.8066 82.0315C35.4686 82.2472 38.5212 82.3904 41.4019 82.4857C44.2843 82.5811 47.0036 82.6287 49.0016 82.6526C50.0009 82.6645 50.8203 82.6704 51.3902 82.6734C51.6752 82.6749 51.8978 82.6756 52.0493 82.676C52.1251 82.6762 52.1831 82.6763 52.2223 82.6763C52.2419 82.6764 52.2568 82.6764 52.2668 82.6764C52.2718 82.6764 52.2756 82.6764 52.2782 82.6764C52.2795 82.6764 52.2804 82.6764 52.2811 82.6764C52.2814 82.6764 52.2817 82.6764 52.2819 82.6764C52.2821 82.6764 52.2822 82.6764 52.2822 81.6764C52.2822 80.6764 52.2821 80.6764 52.282 80.6764C52.2819 80.6764 52.2817 80.6764 52.2814 80.6764C52.2808 80.6764 52.2799 80.6764 52.2788 80.6764C52.2764 80.6764 52.2728 80.6764 52.268 80.6764C52.2583 80.6764 52.2439 80.6764 52.2247 80.6763C52.1863 80.6763 52.1292 80.6762 52.0543 80.676C51.9044 80.6757 51.6837 80.6749 51.4007 80.6734C50.8346 80.6705 50.0197 80.6646 49.0255 80.6527C47.0366 80.629 44.3322 80.5816 41.468 80.4868C38.6021 80.392 35.585 80.2501 32.9681 80.038C30.3216 79.8236 28.1743 79.5435 26.9941 79.1962L26.4295 81.1148ZM19.9811 74.137C20.8125 77.4929 23.2603 80.1877 26.431 81.1153L26.9926 79.1957C24.5647 78.4855 22.5982 76.3837 21.9224 73.656L19.9811 74.137ZM19.6059 56.816C18.6059 56.816 18.6059 56.8161 18.6059 56.8162C18.6059 56.8163 18.6059 56.8165 18.6059 56.8167C18.6059 56.8172 18.6059 56.8178 18.6059 56.8185C18.6059 56.8201 18.6059 56.8224 18.6059 56.8253C18.6059 56.8312 18.6059 56.8399 18.6059 56.8512C18.606 56.8739 18.6061 56.9075 18.6062 56.9512C18.6066 57.0387 18.6072 57.1672 18.6086 57.3324C18.6112 57.6628 18.6165 58.14 18.6271 58.7295C18.6482 59.9082 18.6905 61.5378 18.7752 63.3412C18.9433 66.92 19.2817 71.2796 19.9804 74.1343L21.923 73.6588C21.2759 71.0149 20.9414 66.8343 20.773 63.2474C20.6895 61.468 20.6477 59.8585 20.6268 58.6936C20.6163 58.1114 20.6111 57.6409 20.6085 57.3164C20.6072 57.1541 20.6065 57.0284 20.6062 56.9436C20.6061 56.9012 20.606 56.869 20.6059 56.8475C20.6059 56.8368 20.6059 56.8288 20.6059 56.8235C20.6059 56.8208 20.6059 56.8189 20.6059 56.8176C20.6059 56.817 20.6059 56.8166 20.6059 56.8163C20.6059 56.8161 20.6059 56.8161 20.6059 56.816C20.6059 56.816 20.6059 56.816 19.6059 56.816ZM19.9798 39.5C19.2818 42.3823 18.9433 46.7402 18.7752 50.3126C18.6905 52.1124 18.6482 53.7365 18.6271 54.9106C18.6165 55.4978 18.6112 55.973 18.6086 56.3019C18.6072 56.4664 18.6066 56.5943 18.6062 56.6814C18.6061 56.7249 18.606 56.7583 18.6059 56.7809C18.6059 56.7922 18.6059 56.8008 18.6059 56.8067C18.6059 56.8096 18.6059 56.8119 18.6059 56.8134C18.6059 56.8142 18.6059 56.8148 18.6059 56.8152C18.6059 56.8154 18.6059 56.8156 18.6059 56.8157C18.6059 56.8159 18.6059 56.816 19.6059 56.816C20.6059 56.816 20.6059 56.816 20.6059 56.816C20.6059 56.8159 20.6059 56.8158 20.6059 56.8157C20.6059 56.8154 20.6059 56.815 20.6059 56.8143C20.6059 56.8131 20.6059 56.8112 20.6059 56.8085C20.6059 56.8033 20.6059 56.7953 20.6059 56.7846C20.606 56.7633 20.6061 56.7312 20.6062 56.689C20.6065 56.6046 20.6072 56.4795 20.6085 56.318C20.6111 55.995 20.6163 55.5265 20.6268 54.9466C20.6477 53.7864 20.6895 52.1823 20.773 50.4066C20.9414 46.828 21.2758 42.6456 21.9236 39.9708L19.9798 39.5ZM26.4259 32.4597C23.3105 33.389 20.8118 36.1419 19.9811 39.4949L21.9224 39.9759C22.5989 37.2454 24.6222 35.0848 26.9976 34.3762L26.4259 32.4597ZM52.2822 31.9556C52.2822 30.9556 52.2821 30.9556 52.2819 30.9556C52.2817 30.9556 52.2814 30.9556 52.2811 30.9556C52.2804 30.9556 52.2795 30.9556 52.2782 30.9556C52.2756 30.9556 52.2718 30.9556 52.2668 30.9556C52.2567 30.9556 52.2418 30.9556 52.2222 30.9556C52.1829 30.9557 52.1248 30.9557 52.0488 30.9559C51.8969 30.9563 51.6738 30.957 51.3882 30.9584C50.817 30.9613 49.9958 30.967 48.9945 30.9785C46.9925 31.0014 44.2685 31.0472 41.383 31.1389C38.4992 31.2305 35.4456 31.3682 32.7869 31.5755C30.1577 31.7806 27.8251 32.0595 26.4368 32.4565L26.9867 34.3794C28.1555 34.0452 30.2977 33.7757 32.9424 33.5695C35.5576 33.3655 38.5769 33.229 41.4465 33.1379C44.3144 33.0467 47.0241 33.0012 49.0174 32.9784C50.0138 32.967 50.8307 32.9613 51.3982 32.9584C51.682 32.957 51.9033 32.9563 52.0536 32.9559C52.1287 32.9557 52.186 32.9557 52.2245 32.9556C52.2437 32.9556 52.2582 32.9556 52.2679 32.9556C52.2727 32.9556 52.2764 32.9556 52.2787 32.9556C52.2799 32.9556 52.2808 32.9556 52.2814 32.9556C52.2817 32.9556 52.2819 32.9556 52.282 32.9556C52.2821 32.9556 52.2822 32.9556 52.2822 31.9556ZM78.1376 32.5179C76.7457 32.104 74.4096 31.8137 71.7806 31.6005C69.121 31.3847 66.0667 31.2415 63.1826 31.1462C60.2968 31.0509 57.5725 31.0032 55.5703 30.9794C54.5689 30.9675 53.7476 30.9615 53.1764 30.9586C52.8907 30.9571 52.6676 30.9563 52.5156 30.9559C52.4397 30.9558 52.3815 30.9557 52.3422 30.9556C52.3226 30.9556 52.3077 30.9556 52.2976 30.9556C52.2926 30.9556 52.2888 30.9556 52.2862 30.9556C52.2849 30.9556 52.2839 30.9556 52.2833 30.9556C52.2829 30.9556 52.2827 30.9556 52.2825 30.9556C52.2823 30.9556 52.2822 30.9556 52.2822 31.9556C52.2822 32.9556 52.2822 32.9556 52.2823 32.9556C52.2825 32.9556 52.2827 32.9556 52.283 32.9556C52.2835 32.9556 52.2844 32.9556 52.2856 32.9556C52.288 32.9556 52.2916 32.9556 52.2964 32.9556C52.3061 32.9556 52.3206 32.9556 52.3398 32.9556C52.3783 32.9557 52.4356 32.9558 52.5107 32.9559C52.6609 32.9563 52.8822 32.957 53.1659 32.9585C53.7334 32.9615 54.5502 32.9674 55.5465 32.9793C57.5396 33.003 60.2491 33.0504 63.1166 33.1451C65.9859 33.2399 69.0046 33.3819 71.6189 33.5939C74.2637 33.8084 76.4024 34.0885 77.5675 34.435L78.1376 32.5179ZM46.2989 67.9033L63.31 57.2572L62.249 55.5618L45.2379 66.2079L46.2989 67.9033ZM44.7684 45.7634V67.0556H46.7684V45.7634H44.7684ZM63.31 55.5618L46.2989 44.9157L45.2379 46.6111L62.249 57.2572L63.31 55.5618Z" fill="white" fill-opacity="0.5" mask="url(#path-3-inside-2_109_238)"/>
</g>
<g filter="url(#filter2_d_109_238)">
<mask id="path-5-inside-3_109_238" fill="white">
<path fill-rule="evenodd" clip-rule="evenodd" d="M77.8526 33.4764C80.6519 34.2954 82.859 36.6937 83.6127 39.7354C85.0123 45.2924 84.9585 56.8745 84.9585 56.8745C84.9585 56.8745 84.9585 68.398 83.6127 73.955C82.859 76.9968 80.6519 79.3951 77.8526 80.214C72.7385 81.6764 52.2822 81.6764 52.2822 81.6764C52.2822 81.6764 31.8797 81.6764 26.7118 80.1555C23.9125 79.3366 21.7054 76.9383 20.9517 73.8965C19.6059 68.398 19.6059 56.816 19.6059 56.816C19.6059 56.816 19.6059 45.2924 20.9517 39.7354C21.7054 36.6937 23.9663 34.2369 26.7118 33.4179C31.8259 31.9556 52.2822 31.9556 52.2822 31.9556C52.2822 31.9556 72.7385 31.9556 77.8526 33.4764ZM62.7795 56.4095L45.7684 67.0556V45.7634L62.7795 56.4095Z"/>
</mask>
<path fill-rule="evenodd" clip-rule="evenodd" d="M77.8526 33.4764C80.6519 34.2954 82.859 36.6937 83.6127 39.7354C85.0123 45.2924 84.9585 56.8745 84.9585 56.8745C84.9585 56.8745 84.9585 68.398 83.6127 73.955C82.859 76.9968 80.6519 79.3951 77.8526 80.214C72.7385 81.6764 52.2822 81.6764 52.2822 81.6764C52.2822 81.6764 31.8797 81.6764 26.7118 80.1555C23.9125 79.3366 21.7054 76.9383 20.9517 73.8965C19.6059 68.398 19.6059 56.816 19.6059 56.816C19.6059 56.816 19.6059 45.2924 20.9517 39.7354C21.7054 36.6937 23.9663 34.2369 26.7118 33.4179C31.8259 31.9556 52.2822 31.9556 52.2822 31.9556C52.2822 31.9556 72.7385 31.9556 77.8526 33.4764ZM62.7795 56.4095L45.7684 67.0556V45.7634L62.7795 56.4095Z" fill="white" fill-opacity="0.5" shape-rendering="crispEdges"/>
<path d="M83.6127 39.7354L82.642 39.9759L82.6429 39.9797L83.6127 39.7354ZM77.8526 33.4764L77.5675 34.435L77.5718 34.4362L77.8526 33.4764ZM84.9585 56.8745L83.9585 56.8698V56.8745H84.9585ZM83.6127 73.955L84.5833 74.1955L84.5846 74.1904L83.6127 73.955ZM77.8526 80.214L78.1275 81.1755L78.1334 81.1738L77.8526 80.214ZM26.7118 80.1555L26.9941 79.1962L26.9926 79.1957L26.7118 80.1555ZM20.9517 73.8965L19.9804 74.1343L19.9811 74.137L20.9517 73.8965ZM20.9517 39.7354L19.981 39.4949L19.9798 39.5L20.9517 39.7354ZM26.7118 33.4179L26.4368 32.4564L26.4259 32.4597L26.7118 33.4179ZM45.7684 67.0556H44.7684V68.8611L46.2989 67.9033L45.7684 67.0556ZM62.7795 56.4095L63.31 57.2572L64.6645 56.4095L63.31 55.5618L62.7795 56.4095ZM45.7684 45.7634L46.2989 44.9157L44.7684 43.9579V45.7634H45.7684ZM84.5833 39.4949C83.7518 36.1391 81.3041 33.4443 78.1334 32.5167L77.5718 34.4362C79.9996 35.1465 81.9662 37.2483 82.642 39.9759L84.5833 39.4949ZM84.9585 56.8745C85.9585 56.8791 85.9585 56.879 85.9585 56.8789C85.9585 56.8788 85.9585 56.8786 85.9585 56.8783C85.9585 56.8779 85.9585 56.8773 85.9585 56.8765C85.9585 56.875 85.9585 56.8727 85.9585 56.8697C85.9585 56.8638 85.9585 56.8551 85.9586 56.8438C85.9586 56.821 85.9587 56.7875 85.9587 56.7437C85.9588 56.6561 85.9587 56.5274 85.958 56.3621C85.9568 56.0315 85.9534 55.5538 85.9449 54.9636C85.928 53.7836 85.8907 52.1517 85.8094 50.3439C85.6481 46.7572 85.3098 42.3793 84.5824 39.4912L82.6429 39.9797C83.3152 42.6485 83.6498 46.8402 83.8114 50.4338C83.8916 52.2161 83.9284 53.827 83.9451 54.9923C83.9535 55.5747 83.9568 56.0454 83.9581 56.3698C83.9587 56.532 83.9588 56.6577 83.9587 56.7424C83.9587 56.7848 83.9586 56.817 83.9586 56.8384C83.9586 56.8491 83.9585 56.8571 83.9585 56.8624C83.9585 56.865 83.9585 56.867 83.9585 56.8682C83.9585 56.8688 83.9585 56.8693 83.9585 56.8695C83.9585 56.8697 83.9585 56.8697 83.9585 56.8698C83.9585 56.8698 83.9585 56.8698 84.9585 56.8745ZM84.5846 74.1904C85.2826 71.3082 85.6211 66.9503 85.7891 63.3779C85.8738 61.5781 85.9161 59.954 85.9373 58.7799C85.9479 58.1926 85.9532 57.7174 85.9558 57.3885C85.9571 57.2241 85.9578 57.0962 85.9581 57.0091C85.9583 56.9655 85.9584 56.9322 85.9584 56.9096C85.9585 56.8983 85.9585 56.8896 85.9585 56.8838C85.9585 56.8808 85.9585 56.8786 85.9585 56.877C85.9585 56.8763 85.9585 56.8757 85.9585 56.8752C85.9585 56.875 85.9585 56.8748 85.9585 56.8747C85.9585 56.8746 85.9585 56.8745 84.9585 56.8745C83.9585 56.8745 83.9585 56.8745 83.9585 56.8745C83.9585 56.8746 83.9585 56.8746 83.9585 56.8748C83.9585 56.875 83.9585 56.8755 83.9585 56.8761C83.9585 56.8774 83.9585 56.8793 83.9585 56.8819C83.9585 56.8872 83.9585 56.8952 83.9584 56.9058C83.9584 56.9272 83.9583 56.9592 83.9582 57.0014C83.9578 57.0858 83.9572 57.2109 83.9559 57.3724C83.9533 57.6954 83.9481 58.1639 83.9376 58.7438C83.9167 59.9041 83.8749 61.5082 83.7914 63.2839C83.623 66.8625 83.2885 71.0449 82.6408 73.7197L84.5846 74.1904ZM78.1334 81.1738C81.3041 80.2462 83.7518 77.5514 84.5833 74.1955L82.642 73.7145C81.9662 76.4422 79.9996 78.544 77.5718 79.2542L78.1334 81.1738ZM52.2822 81.6764C52.2822 82.6764 52.2823 82.6764 52.2825 82.6764C52.2827 82.6764 52.2829 82.6764 52.2833 82.6764C52.2839 82.6764 52.2849 82.6764 52.2862 82.6764C52.2888 82.6764 52.2926 82.6764 52.2976 82.6764C52.3076 82.6764 52.3225 82.6764 52.3422 82.6763C52.3814 82.6763 52.4396 82.6762 52.5155 82.676C52.6674 82.6757 52.8906 82.675 53.1762 82.6735C53.7474 82.6707 54.5686 82.6649 55.5698 82.6535C57.5719 82.6306 60.2959 82.5848 63.1814 82.4931C66.0651 82.4015 69.1187 82.2638 71.7775 82.0564C74.4066 81.8514 76.7393 81.5725 78.1275 81.1755L77.5777 79.2525C76.4089 79.5868 74.2667 79.8562 71.622 80.0625C69.0068 80.2664 65.9874 80.4029 63.1179 80.4941C60.25 80.5852 57.5403 80.6308 55.547 80.6536C54.5505 80.665 53.7336 80.6707 53.1661 80.6735C52.8824 80.675 52.661 80.6757 52.5108 80.676C52.4357 80.6762 52.3783 80.6763 52.3399 80.6763C52.3206 80.6764 52.3061 80.6764 52.2965 80.6764C52.2916 80.6764 52.288 80.6764 52.2856 80.6764C52.2844 80.6764 52.2836 80.6764 52.283 80.6764C52.2827 80.6764 52.2825 80.6764 52.2823 80.6764C52.2822 80.6764 52.2822 80.6764 52.2822 81.6764ZM26.4295 81.1148C27.8332 81.5279 30.1742 81.8182 32.8066 82.0315C35.4686 82.2472 38.5212 82.3904 41.4019 82.4857C44.2843 82.5811 47.0036 82.6287 49.0016 82.6526C50.0009 82.6645 50.8203 82.6704 51.3902 82.6734C51.6752 82.6749 51.8978 82.6756 52.0493 82.676C52.1251 82.6762 52.1831 82.6763 52.2223 82.6763C52.2419 82.6764 52.2568 82.6764 52.2668 82.6764C52.2718 82.6764 52.2756 82.6764 52.2782 82.6764C52.2795 82.6764 52.2804 82.6764 52.2811 82.6764C52.2814 82.6764 52.2817 82.6764 52.2819 82.6764C52.2821 82.6764 52.2822 82.6764 52.2822 81.6764C52.2822 80.6764 52.2821 80.6764 52.282 80.6764C52.2819 80.6764 52.2817 80.6764 52.2814 80.6764C52.2808 80.6764 52.2799 80.6764 52.2788 80.6764C52.2764 80.6764 52.2728 80.6764 52.268 80.6764C52.2583 80.6764 52.2439 80.6764 52.2247 80.6763C52.1863 80.6763 52.1292 80.6762 52.0543 80.676C51.9044 80.6757 51.6837 80.6749 51.4007 80.6734C50.8346 80.6705 50.0197 80.6646 49.0255 80.6527C47.0366 80.629 44.3322 80.5816 41.468 80.4868C38.6021 80.392 35.585 80.2501 32.9681 80.038C30.3216 79.8236 28.1743 79.5435 26.9941 79.1962L26.4295 81.1148ZM19.9811 74.137C20.8125 77.4929 23.2603 80.1877 26.431 81.1153L26.9926 79.1957C24.5647 78.4855 22.5982 76.3837 21.9224 73.656L19.9811 74.137ZM19.6059 56.816C18.6059 56.816 18.6059 56.8161 18.6059 56.8162C18.6059 56.8163 18.6059 56.8165 18.6059 56.8167C18.6059 56.8172 18.6059 56.8178 18.6059 56.8185C18.6059 56.8201 18.6059 56.8224 18.6059 56.8253C18.6059 56.8312 18.6059 56.8399 18.6059 56.8512C18.606 56.8739 18.6061 56.9075 18.6062 56.9512C18.6066 57.0387 18.6072 57.1672 18.6086 57.3324C18.6112 57.6628 18.6165 58.14 18.6271 58.7295C18.6482 59.9082 18.6905 61.5378 18.7752 63.3412C18.9433 66.92 19.2817 71.2796 19.9804 74.1343L21.923 73.6588C21.2759 71.0149 20.9414 66.8343 20.773 63.2474C20.6895 61.468 20.6477 59.8585 20.6268 58.6936C20.6163 58.1114 20.6111 57.6409 20.6085 57.3164C20.6072 57.1541 20.6065 57.0284 20.6062 56.9436C20.6061 56.9012 20.606 56.869 20.6059 56.8475C20.6059 56.8368 20.6059 56.8288 20.6059 56.8235C20.6059 56.8208 20.6059 56.8189 20.6059 56.8176C20.6059 56.817 20.6059 56.8166 20.6059 56.8163C20.6059 56.8161 20.6059 56.8161 20.6059 56.816C20.6059 56.816 20.6059 56.816 19.6059 56.816ZM19.9798 39.5C19.2818 42.3823 18.9433 46.7402 18.7752 50.3126C18.6905 52.1124 18.6482 53.7365 18.6271 54.9106C18.6165 55.4978 18.6112 55.973 18.6086 56.3019C18.6072 56.4664 18.6066 56.5943 18.6062 56.6814C18.6061 56.7249 18.606 56.7583 18.6059 56.7809C18.6059 56.7922 18.6059 56.8008 18.6059 56.8067C18.6059 56.8096 18.6059 56.8119 18.6059 56.8134C18.6059 56.8142 18.6059 56.8148 18.6059 56.8152C18.6059 56.8154 18.6059 56.8156 18.6059 56.8157C18.6059 56.8159 18.6059 56.816 19.6059 56.816C20.6059 56.816 20.6059 56.816 20.6059 56.816C20.6059 56.8159 20.6059 56.8158 20.6059 56.8157C20.6059 56.8154 20.6059 56.815 20.6059 56.8143C20.6059 56.8131 20.6059 56.8112 20.6059 56.8085C20.6059 56.8033 20.6059 56.7953 20.6059 56.7846C20.606 56.7633 20.6061 56.7312 20.6062 56.689C20.6065 56.6046 20.6072 56.4795 20.6085 56.318C20.6111 55.995 20.6163 55.5265 20.6268 54.9466C20.6477 53.7864 20.6895 52.1823 20.773 50.4066C20.9414 46.828 21.2758 42.6456 21.9236 39.9708L19.9798 39.5ZM26.4259 32.4597C23.3105 33.389 20.8118 36.1419 19.9811 39.4949L21.9224 39.9759C22.5989 37.2454 24.6222 35.0848 26.9976 34.3762L26.4259 32.4597ZM52.2822 31.9556C52.2822 30.9556 52.2821 30.9556 52.2819 30.9556C52.2817 30.9556 52.2814 30.9556 52.2811 30.9556C52.2804 30.9556 52.2795 30.9556 52.2782 30.9556C52.2756 30.9556 52.2718 30.9556 52.2668 30.9556C52.2567 30.9556 52.2418 30.9556 52.2222 30.9556C52.1829 30.9557 52.1248 30.9557 52.0488 30.9559C51.8969 30.9563 51.6738 30.957 51.3882 30.9584C50.817 30.9613 49.9958 30.967 48.9945 30.9785C46.9925 31.0014 44.2685 31.0472 41.383 31.1389C38.4992 31.2305 35.4456 31.3682 32.7869 31.5755C30.1577 31.7806 27.8251 32.0595 26.4368 32.4565L26.9867 34.3794C28.1555 34.0452 30.2977 33.7757 32.9424 33.5695C35.5576 33.3655 38.5769 33.229 41.4465 33.1379C44.3144 33.0467 47.0241 33.0012 49.0174 32.9784C50.0138 32.967 50.8307 32.9613 51.3982 32.9584C51.682 32.957 51.9033 32.9563 52.0536 32.9559C52.1287 32.9557 52.186 32.9557 52.2245 32.9556C52.2437 32.9556 52.2582 32.9556 52.2679 32.9556C52.2727 32.9556 52.2764 32.9556 52.2787 32.9556C52.2799 32.9556 52.2808 32.9556 52.2814 32.9556C52.2817 32.9556 52.2819 32.9556 52.282 32.9556C52.2821 32.9556 52.2822 32.9556 52.2822 31.9556ZM78.1376 32.5179C76.7457 32.104 74.4096 31.8137 71.7806 31.6005C69.121 31.3847 66.0667 31.2415 63.1826 31.1462C60.2968 31.0509 57.5725 31.0032 55.5703 30.9794C54.5689 30.9675 53.7476 30.9615 53.1764 30.9586C52.8907 30.9571 52.6676 30.9563 52.5156 30.9559C52.4397 30.9558 52.3815 30.9557 52.3422 30.9556C52.3226 30.9556 52.3077 30.9556 52.2976 30.9556C52.2926 30.9556 52.2888 30.9556 52.2862 30.9556C52.2849 30.9556 52.2839 30.9556 52.2833 30.9556C52.2829 30.9556 52.2827 30.9556 52.2825 30.9556C52.2823 30.9556 52.2822 30.9556 52.2822 31.9556C52.2822 32.9556 52.2822 32.9556 52.2823 32.9556C52.2825 32.9556 52.2827 32.9556 52.283 32.9556C52.2835 32.9556 52.2844 32.9556 52.2856 32.9556C52.288 32.9556 52.2916 32.9556 52.2964 32.9556C52.3061 32.9556 52.3206 32.9556 52.3398 32.9556C52.3783 32.9557 52.4356 32.9558 52.5107 32.9559C52.6609 32.9563 52.8822 32.957 53.1659 32.9585C53.7334 32.9615 54.5502 32.9674 55.5465 32.9793C57.5396 33.003 60.2491 33.0504 63.1166 33.1451C65.9859 33.2399 69.0046 33.3819 71.6189 33.5939C74.2637 33.8084 76.4024 34.0885 77.5675 34.435L78.1376 32.5179ZM46.2989 67.9033L63.31 57.2572L62.249 55.5618L45.2379 66.2079L46.2989 67.9033ZM44.7684 45.7634V67.0556H46.7684V45.7634H44.7684ZM63.31 55.5618L46.2989 44.9157L45.2379 46.6111L62.249 57.2572L63.31 55.5618Z" fill="white" fill-opacity="0.5" mask="url(#path-5-inside-3_109_238)"/>
</g>
<defs>
<filter id="filter0_d_109_238" x="1.6059" y="17.9556" width="101.353" height="85.7207" filterUnits="userSpaceOnUse" color-interpolation-filters="sRGB">
<feFlood flood-opacity="0" result="BackgroundImageFix"/>
<feColorMatrix in="SourceAlpha" type="matrix" values="0 0 0 0 0 0 0 0 0 0 0 0 0 0 0 0 0 0 127 0" result="hardAlpha"/>
<feOffset dy="4"/>
<feGaussianBlur stdDeviation="9"/>
<feComposite in2="hardAlpha" operator="out"/>
<feColorMatrix type="matrix" values="0 0 0 0 0.337255 0 0 0 0 1 0 0 0 0 0.921569 0 0 0 0.7 0"/>
<feBlend mode="normal" in2="BackgroundImageFix" result="effect1_dropShadow_109_238"/>
<feBlend mode="normal" in="SourceGraphic" in2="effect1_dropShadow_109_238" result="shape"/>
</filter>
<filter id="filter1_d_109_238" x="1.6059" y="17.9556" width="101.353" height="85.7207" filterUnits="userSpaceOnUse" color-interpolation-filters="sRGB">
<feFlood flood-opacity="0" result="BackgroundImageFix"/>
<feColorMatrix in="SourceAlpha" type="matrix" values="0 0 0 0 0 0 0 0 0 0 0 0 0 0 0 0 0 0 127 0" result="hardAlpha"/>
<feOffset dy="4"/>
<feGaussianBlur stdDeviation="9"/>
<feComposite in2="hardAlpha" operator="out"/>
<feColorMatrix type="matrix" values="0 0 0 0 0.337255 0 0 0 0 1 0 0 0 0 0.921569 0 0 0 0.7 0"/>
<feBlend mode="normal" in2="BackgroundImageFix" result="effect1_dropShadow_109_238"/>
<feBlend mode="normal" in="SourceGraphic" in2="effect1_dropShadow_109_238" result="shape"/>
</filter>
<filter id="filter2_d_109_238" x="1.6059" y="17.9556" width="101.353" height="85.7207" filterUnits="userSpaceOnUse" color-interpolation-filters="sRGB">
<feFlood flood-opacity="0" result="BackgroundImageFix"/>
<feColorMatrix in="SourceAlpha" type="matrix" values="0 0 0 0 0 0 0 0 0 0 0 0 0 0 0 0 0 0 127 0" result="hardAlpha"/>
<feOffset dy="4"/>
<feGaussianBlur stdDeviation="9"/>
<feComposite in2="hardAlpha" operator="out"/>
<feColorMatrix type="matrix" values="0 0 0 0 0.337255 0 0 0 0 1 0 0 0 0 0.921569 0 0 0 0.7 0"/>
<feBlend mode="normal" in2="BackgroundImageFix" result="effect1_dropShadow_109_238"/>
<feBlend mode="normal" in="SourceGraphic" in2="effect1_dropShadow_109_238" result="shape"/>
</filter>
</defs>
</svg>
